<svg xmlns="http://www.w3.org/2000/svg" xmlns:xlink="http://www.w3.org/1999/xlink" width="527" zoomAndPan="magnify" viewBox="0 0 395.25 179.999997" height="240" preserveAspectRatio="xMidYMid meet" version="1.0"><defs><g/><clipPath id="5bbee041da"><path d="M 0 11.957031 L 139.984375 11.957031 L 139.984375 151.941406 L 0 151.941406 Z M 0 11.957031 " clip-rule="nonzero"/></clipPath></defs><g clip-path="url(#5bbee041da)"><path fill="#2aaa8a" d="M 139.304688 133.273438 L 130.832031 121.976562 L 130.832031 61.761719 C 130.832031 55.613281 125.828125 50.613281 119.679688 50.613281 L 116.609375 50.613281 C 112.421875 28.628906 93.058594 11.957031 69.875 11.957031 C 46.691406 11.957031 27.332031 28.628906 23.144531 50.613281 L 20.070312 50.613281 C 13.921875 50.613281 8.921875 55.613281 8.921875 61.761719 L 8.921875 113.796875 C 8.921875 115.03125 9.917969 116.027344 11.148438 116.027344 C 12.382812 116.027344 13.378906 115.03125 13.378906 113.796875 L 13.378906 61.761719 C 13.378906 58.074219 16.382812 55.074219 20.070312 55.074219 L 22.511719 55.074219 C 22.375 56.542969 22.300781 58.027344 22.300781 59.535156 C 22.300781 68.367188 24.71875 76.921875 29.308594 84.394531 C 27.660156 86.339844 26.660156 88.851562 26.660156 91.597656 C 26.660156 97.746094 31.664062 102.746094 37.8125 102.746094 C 43.960938 102.746094 48.960938 97.746094 48.960938 91.597656 C 48.960938 85.449219 43.960938 80.445312 37.8125 80.445312 C 36.027344 80.445312 34.34375 80.871094 32.847656 81.617188 C 28.863281 74.953125 26.761719 67.363281 26.761719 59.535156 C 26.761719 35.761719 46.101562 16.417969 69.875 16.417969 C 93.648438 16.417969 112.988281 35.761719 112.988281 59.535156 C 112.988281 83.308594 93.648438 102.648438 69.875 102.648438 C 64.210938 102.648438 58.703125 101.566406 53.503906 99.429688 C 52.363281 98.960938 51.0625 99.503906 50.59375 100.644531 C 50.125 101.78125 50.671875 103.085938 51.808594 103.554688 C 57.550781 105.914062 63.628906 107.109375 69.875 107.109375 C 96.109375 107.109375 117.449219 85.765625 117.449219 59.535156 C 117.449219 58.027344 117.375 56.542969 117.238281 55.074219 L 119.679688 55.074219 C 123.367188 55.074219 126.371094 58.074219 126.371094 61.761719 L 126.371094 120.488281 L 11.148438 120.488281 C 10.449219 120.488281 9.789062 120.820312 9.367188 121.378906 L 0.445312 133.273438 C 0.15625 133.660156 0 134.128906 0 134.613281 L 0 140.558594 C 0 146.707031 5 151.710938 11.148438 151.710938 L 128.601562 151.710938 C 134.75 151.710938 139.75 146.707031 139.75 140.558594 L 139.75 134.613281 C 139.75 134.128906 139.59375 133.660156 139.304688 133.273438 Z M 33.554688 86.4375 C 33.566406 86.429688 33.578125 86.421875 33.585938 86.414062 C 34.742188 85.472656 36.210938 84.90625 37.8125 84.90625 C 41.5 84.90625 44.503906 87.90625 44.503906 91.597656 C 44.503906 95.285156 41.5 98.289062 37.8125 98.289062 C 34.125 98.289062 31.121094 95.285156 31.121094 91.597656 C 31.121094 89.523438 32.070312 87.667969 33.554688 86.4375 Z M 12.265625 124.949219 L 127.484375 124.949219 L 133.058594 132.382812 L 6.691406 132.382812 Z M 135.289062 140.558594 C 135.289062 144.246094 132.289062 147.25 128.601562 147.25 L 11.148438 147.25 C 7.460938 147.25 4.460938 144.246094 4.460938 140.558594 L 4.460938 136.84375 L 67.644531 136.84375 L 67.644531 140.558594 C 67.644531 141.789062 68.644531 142.789062 69.875 142.789062 C 71.105469 142.789062 72.105469 141.789062 72.105469 140.558594 L 72.105469 136.84375 L 135.289062 136.84375 Z M 135.289062 140.558594 " fill-opacity="1" fill-rule="nonzero"/></g><path fill="#2aaa8a" d="M 83.253906 57.304688 L 82.3125 57.304688 C 81.984375 55.476562 81.265625 53.785156 80.242188 52.320312 L 80.914062 51.648438 C 81.785156 50.777344 81.785156 49.367188 80.914062 48.496094 C 80.042969 47.625 78.628906 47.625 77.757812 48.496094 L 77.089844 49.167969 C 75.621094 48.144531 73.929688 47.425781 72.105469 47.097656 L 72.105469 46.152344 C 72.105469 44.921875 71.105469 43.921875 69.875 43.921875 C 68.644531 43.921875 67.644531 44.921875 67.644531 46.152344 L 67.644531 47.097656 C 65.820312 47.425781 64.128906 48.144531 62.660156 49.167969 L 61.992188 48.496094 C 61.121094 47.625 59.707031 47.625 58.835938 48.496094 C 57.964844 49.367188 57.964844 50.777344 58.835938 51.648438 L 59.507812 52.320312 C 58.484375 53.785156 57.765625 55.476562 57.4375 57.304688 L 56.496094 57.304688 C 55.261719 57.304688 54.265625 58.300781 54.265625 59.535156 C 54.265625 60.765625 55.261719 61.761719 56.496094 61.761719 L 57.4375 61.761719 C 57.765625 63.589844 58.484375 65.28125 59.507812 66.746094 L 58.835938 67.417969 C 57.964844 68.289062 57.964844 69.699219 58.835938 70.570312 C 59.273438 71.007812 59.84375 71.226562 60.414062 71.226562 C 60.984375 71.226562 61.554688 71.007812 61.992188 70.570312 L 62.660156 69.902344 C 64.128906 70.921875 65.820312 71.644531 67.644531 71.96875 L 67.644531 72.914062 C 67.644531 74.144531 68.644531 75.144531 69.875 75.144531 C 71.105469 75.144531 72.105469 74.144531 72.105469 72.914062 L 72.105469 71.96875 C 73.929688 71.644531 75.621094 70.925781 77.089844 69.902344 L 77.757812 70.570312 C 78.195312 71.007812 78.765625 71.226562 79.335938 71.226562 C 79.90625 71.226562 80.476562 71.007812 80.914062 70.570312 C 81.785156 69.699219 81.785156 68.289062 80.914062 67.417969 L 80.242188 66.746094 C 81.265625 65.28125 81.984375 63.589844 82.3125 61.765625 L 83.253906 61.765625 C 84.488281 61.765625 85.484375 60.765625 85.484375 59.535156 C 85.484375 58.300781 84.488281 57.304688 83.253906 57.304688 Z M 69.875 67.710938 C 65.367188 67.710938 61.699219 64.042969 61.699219 59.535156 C 61.699219 55.023438 65.367188 51.355469 69.875 51.355469 C 74.382812 51.355469 78.050781 55.023438 78.050781 59.535156 C 78.050781 64.042969 74.382812 67.710938 69.875 67.710938 Z M 69.875 67.710938 " fill-opacity="1" fill-rule="nonzero"/><path fill="#2aaa8a" d="M 69.875 29.800781 C 63.054688 29.800781 56.390625 32.167969 51.113281 36.464844 C 46.371094 40.328125 42.921875 45.59375 41.269531 51.433594 C 37.277344 51.972656 34.195312 55.398438 34.195312 59.535156 C 34.195312 64.042969 37.863281 67.710938 42.371094 67.710938 C 46.878906 67.710938 50.546875 64.042969 50.546875 59.535156 C 50.546875 56.21875 48.5625 53.359375 45.722656 52.078125 C 48.953125 41.636719 58.792969 34.257812 69.875 34.257812 C 83.8125 34.257812 95.148438 45.597656 95.148438 59.535156 C 95.148438 73.46875 83.8125 84.808594 69.875 84.808594 C 60.992188 84.808594 52.921875 80.273438 48.285156 72.683594 C 47.644531 71.632812 46.273438 71.300781 45.222656 71.941406 C 44.171875 72.585938 43.839844 73.957031 44.480469 75.007812 C 49.933594 83.9375 59.425781 89.269531 69.875 89.269531 C 86.269531 89.269531 99.609375 75.929688 99.609375 59.535156 C 99.609375 43.136719 86.269531 29.800781 69.875 29.800781 Z M 46.089844 59.535156 C 46.089844 61.582031 44.421875 63.25 42.371094 63.25 C 40.320312 63.25 38.65625 61.582031 38.65625 59.535156 C 38.65625 57.484375 40.320312 55.816406 42.371094 55.816406 C 42.496094 55.816406 42.621094 55.824219 42.742188 55.835938 C 42.75 55.835938 42.761719 55.839844 42.769531 55.839844 C 44.632812 56.039062 46.089844 57.617188 46.089844 59.535156 Z M 46.089844 59.535156 " fill-opacity="1" fill-rule="nonzero"/><path fill="#2aaa8a" d="M 110.476562 21.164062 C 110.476562 21.457031 110.421875 21.742188 110.308594 22.015625 C 110.195312 22.289062 110.03125 22.53125 109.824219 22.738281 C 109.613281 22.949219 109.375 23.109375 109.101562 23.222656 C 108.828125 23.335938 108.542969 23.390625 108.246094 23.390625 C 107.953125 23.390625 107.667969 23.335938 107.394531 23.222656 C 107.121094 23.109375 106.878906 22.949219 106.671875 22.738281 C 106.460938 22.53125 106.300781 22.289062 106.1875 22.015625 C 106.074219 21.742188 106.015625 21.457031 106.015625 21.164062 C 106.015625 20.867188 106.074219 20.582031 106.1875 20.308594 C 106.300781 20.035156 106.460938 19.792969 106.671875 19.585938 C 106.878906 19.375 107.121094 19.214844 107.394531 19.101562 C 107.667969 18.988281 107.953125 18.933594 108.246094 18.933594 C 108.542969 18.933594 108.828125 18.988281 109.101562 19.101562 C 109.375 19.214844 109.613281 19.375 109.824219 19.585938 C 110.03125 19.792969 110.195312 20.035156 110.308594 20.308594 C 110.421875 20.582031 110.476562 20.867188 110.476562 21.164062 Z M 110.476562 21.164062 " fill-opacity="1" fill-rule="nonzero"/><path fill="#2aaa8a" d="M 33.734375 21.164062 C 33.734375 21.457031 33.675781 21.742188 33.5625 22.015625 C 33.449219 22.289062 33.289062 22.53125 33.082031 22.738281 C 32.871094 22.949219 32.628906 23.109375 32.355469 23.222656 C 32.082031 23.335938 31.800781 23.390625 31.503906 23.390625 C 31.207031 23.390625 30.921875 23.335938 30.648438 23.222656 C 30.375 23.109375 30.136719 22.949219 29.925781 22.738281 C 29.71875 22.53125 29.554688 22.289062 29.441406 22.015625 C 29.328125 21.742188 29.273438 21.457031 29.273438 21.164062 C 29.273438 20.867188 29.328125 20.582031 29.441406 20.308594 C 29.554688 20.035156 29.71875 19.792969 29.925781 19.585938 C 30.136719 19.375 30.375 19.214844 30.648438 19.101562 C 30.921875 18.988281 31.207031 18.933594 31.503906 18.933594 C 31.800781 18.933594 32.082031 18.988281 32.355469 19.101562 C 32.628906 19.214844 32.871094 19.375 33.082031 19.585938 C 33.289062 19.792969 33.449219 20.035156 33.5625 20.308594 C 33.675781 20.582031 33.734375 20.867188 33.734375 21.164062 Z M 33.734375 21.164062 " fill-opacity="1" fill-rule="nonzero"/><path fill="#2aaa8a" d="M 110.476562 97.90625 C 110.476562 98.199219 110.421875 98.484375 110.308594 98.757812 C 110.195312 99.03125 110.03125 99.273438 109.824219 99.480469 C 109.613281 99.691406 109.375 99.851562 109.101562 99.964844 C 108.828125 100.078125 108.542969 100.136719 108.246094 100.136719 C 107.953125 100.136719 107.667969 100.078125 107.394531 99.964844 C 107.121094 99.851562 106.878906 99.691406 106.671875 99.480469 C 106.460938 99.273438 106.300781 99.03125 106.1875 98.757812 C 106.074219 98.484375 106.015625 98.199219 106.015625 97.90625 C 106.015625 97.609375 106.074219 97.324219 106.1875 97.050781 C 106.300781 96.777344 106.460938 96.539062 106.671875 96.328125 C 106.878906 96.121094 107.121094 95.957031 107.394531 95.84375 C 107.667969 95.730469 107.953125 95.675781 108.246094 95.675781 C 108.542969 95.675781 108.828125 95.730469 109.101562 95.84375 C 109.375 95.957031 109.613281 96.121094 109.824219 96.328125 C 110.03125 96.539062 110.195312 96.777344 110.308594 97.050781 C 110.421875 97.324219 110.476562 97.609375 110.476562 97.90625 Z M 110.476562 97.90625 " fill-opacity="1" fill-rule="nonzero"/><path fill="#2aaa8a" d="M 108.53125 59.535156 C 108.53125 59.828125 108.472656 60.113281 108.359375 60.386719 C 108.246094 60.660156 108.085938 60.902344 107.875 61.109375 C 107.667969 61.320312 107.425781 61.480469 107.152344 61.59375 C 106.878906 61.707031 106.59375 61.761719 106.300781 61.761719 C 106.003906 61.761719 105.71875 61.707031 105.445312 61.59375 C 105.171875 61.480469 104.933594 61.320312 104.722656 61.109375 C 104.511719 60.902344 104.351562 60.660156 104.238281 60.386719 C 104.125 60.113281 104.070312 59.828125 104.070312 59.535156 C 104.070312 59.238281 104.125 58.953125 104.238281 58.679688 C 104.351562 58.40625 104.511719 58.164062 104.722656 57.957031 C 104.933594 57.746094 105.171875 57.585938 105.445312 57.472656 C 105.71875 57.359375 106.003906 57.304688 106.300781 57.304688 C 106.59375 57.304688 106.878906 57.359375 107.152344 57.472656 C 107.425781 57.585938 107.667969 57.746094 107.875 57.957031 C 108.085938 58.164062 108.246094 58.40625 108.359375 58.679688 C 108.472656 58.953125 108.53125 59.238281 108.53125 59.535156 Z M 108.53125 59.535156 " fill-opacity="1" fill-rule="nonzero"/><path fill="#2aaa8a" d="M 72.105469 23.109375 C 72.105469 23.40625 72.046875 23.6875 71.933594 23.960938 C 71.824219 24.234375 71.660156 24.476562 71.453125 24.6875 C 71.242188 24.894531 71 25.054688 70.730469 25.167969 C 70.457031 25.28125 70.171875 25.339844 69.875 25.339844 C 69.578125 25.339844 69.296875 25.28125 69.023438 25.167969 C 68.75 25.054688 68.507812 24.894531 68.296875 24.6875 C 68.089844 24.476562 67.929688 24.234375 67.816406 23.960938 C 67.703125 23.6875 67.644531 23.40625 67.644531 23.109375 C 67.644531 22.8125 67.703125 22.527344 67.816406 22.253906 C 67.929688 21.984375 68.089844 21.742188 68.296875 21.53125 C 68.507812 21.324219 68.75 21.160156 69.023438 21.050781 C 69.296875 20.9375 69.578125 20.878906 69.875 20.878906 C 70.171875 20.878906 70.457031 20.9375 70.730469 21.050781 C 71 21.160156 71.242188 21.324219 71.453125 21.53125 C 71.660156 21.742188 71.824219 21.984375 71.933594 22.253906 C 72.046875 22.527344 72.105469 22.8125 72.105469 23.109375 Z M 72.105469 23.109375 " fill-opacity="1" fill-rule="nonzero"/><g fill="#2aaa8a" fill-opacity="1"><g transform="translate(157.609821, 79.970321)"><g><path d="M 5.375 -46.609375 L 15.875 -46.609375 L 15.875 0 L 5.375 0 Z M 5.375 -46.609375 "/></g></g></g><g fill="#2aaa8a" fill-opacity="1"><g transform="translate(178.858372, 79.970321)"><g><path d="M 4.703125 -34.15625 C 6.410156 -34.65625 8.609375 -35.117188 11.296875 -35.546875 C 13.984375 -35.972656 16.804688 -36.1875 19.765625 -36.1875 C 22.773438 -36.1875 25.273438 -35.789062 27.265625 -35 C 29.265625 -34.21875 30.847656 -33.109375 32.015625 -31.671875 C 33.179688 -30.234375 34.007812 -28.53125 34.5 -26.5625 C 34.988281 -24.59375 35.234375 -22.394531 35.234375 -19.96875 L 35.234375 0 L 25.21875 0 L 25.21875 -18.765625 C 25.21875 -21.992188 24.789062 -24.28125 23.9375 -25.625 C 23.082031 -26.96875 21.492188 -27.640625 19.171875 -27.640625 C 18.453125 -27.640625 17.6875 -27.601562 16.875 -27.53125 C 16.070312 -27.46875 15.359375 -27.390625 14.734375 -27.296875 L 14.734375 0 L 4.703125 0 Z M 4.703125 -34.15625 "/></g></g></g><g fill="#2aaa8a" fill-opacity="1"><g transform="translate(218.464063, 79.970321)"><g><path d="M 14.859375 -7.203125 C 16.703125 -7.203125 18.003906 -7.378906 18.765625 -7.734375 C 19.523438 -8.085938 19.90625 -8.78125 19.90625 -9.8125 C 19.90625 -10.625 19.410156 -11.332031 18.421875 -11.9375 C 17.441406 -12.539062 15.941406 -13.222656 13.921875 -13.984375 C 12.347656 -14.566406 10.921875 -15.171875 9.640625 -15.796875 C 8.367188 -16.429688 7.285156 -17.1875 6.390625 -18.0625 C 5.492188 -18.9375 4.796875 -19.976562 4.296875 -21.1875 C 3.804688 -22.394531 3.5625 -23.851562 3.5625 -25.5625 C 3.5625 -28.875 4.796875 -31.492188 7.265625 -33.421875 C 9.734375 -35.347656 13.117188 -36.3125 17.421875 -36.3125 C 19.566406 -36.3125 21.625 -36.117188 23.59375 -35.734375 C 25.570312 -35.359375 27.144531 -34.945312 28.3125 -34.5 L 26.5625 -26.703125 C 25.394531 -27.097656 24.128906 -27.453125 22.765625 -27.765625 C 21.398438 -28.085938 19.863281 -28.25 18.15625 -28.25 C 15.019531 -28.25 13.453125 -27.375 13.453125 -25.625 C 13.453125 -25.21875 13.519531 -24.859375 13.65625 -24.546875 C 13.789062 -24.234375 14.054688 -23.929688 14.453125 -23.640625 C 14.859375 -23.347656 15.410156 -23.03125 16.109375 -22.6875 C 16.804688 -22.351562 17.691406 -21.988281 18.765625 -21.59375 C 20.960938 -20.78125 22.773438 -19.976562 24.203125 -19.1875 C 25.640625 -18.40625 26.769531 -17.554688 27.59375 -16.640625 C 28.425781 -15.722656 29.007812 -14.703125 29.34375 -13.578125 C 29.6875 -12.460938 29.859375 -11.164062 29.859375 -9.6875 C 29.859375 -6.1875 28.546875 -3.539062 25.921875 -1.75 C 23.296875 0.0390625 19.585938 0.9375 14.796875 0.9375 C 11.660156 0.9375 9.046875 0.664062 6.953125 0.125 C 4.867188 -0.40625 3.425781 -0.847656 2.625 -1.203125 L 4.296875 -9.34375 C 6.003906 -8.675781 7.753906 -8.148438 9.546875 -7.765625 C 11.335938 -7.390625 13.109375 -7.203125 14.859375 -7.203125 Z M 14.859375 -7.203125 "/></g></g></g><g fill="#2aaa8a" fill-opacity="1"><g transform="translate(251.076558, 79.970321)"><g><path d="M 4.375 -44.1875 L 14.390625 -45.796875 L 14.390625 -35.375 L 26.421875 -35.375 L 26.421875 -27.03125 L 14.390625 -27.03125 L 14.390625 -14.59375 C 14.390625 -12.488281 14.757812 -10.804688 15.5 -9.546875 C 16.238281 -8.296875 17.726562 -7.671875 19.96875 -7.671875 C 21.050781 -7.671875 22.160156 -7.769531 23.296875 -7.96875 C 24.441406 -8.164062 25.484375 -8.445312 26.421875 -8.8125 L 27.84375 -1.015625 C 26.632812 -0.515625 25.289062 -0.0859375 23.8125 0.265625 C 22.332031 0.628906 20.515625 0.8125 18.359375 0.8125 C 15.617188 0.8125 13.351562 0.441406 11.5625 -0.296875 C 9.769531 -1.035156 8.335938 -2.066406 7.265625 -3.390625 C 6.191406 -4.710938 5.441406 -6.316406 5.015625 -8.203125 C 4.585938 -10.085938 4.375 -12.171875 4.375 -14.453125 Z M 4.375 -44.1875 "/></g></g></g><g fill="#2aaa8a" fill-opacity="1"><g transform="translate(280.932118, 79.970321)"><g><path d="M 18.21875 -7 C 19.207031 -7 20.148438 -7.019531 21.046875 -7.0625 C 21.941406 -7.101562 22.660156 -7.171875 23.203125 -7.265625 L 23.203125 -14.859375 C 22.796875 -14.953125 22.1875 -15.039062 21.375 -15.125 C 20.570312 -15.21875 19.835938 -15.265625 19.171875 -15.265625 C 18.222656 -15.265625 17.332031 -15.207031 16.5 -15.09375 C 15.675781 -14.976562 14.945312 -14.765625 14.3125 -14.453125 C 13.6875 -14.140625 13.195312 -13.710938 12.84375 -13.171875 C 12.488281 -12.640625 12.3125 -11.96875 12.3125 -11.15625 C 12.3125 -9.59375 12.835938 -8.507812 13.890625 -7.90625 C 14.941406 -7.300781 16.382812 -7 18.21875 -7 Z M 17.421875 -36.3125 C 20.378906 -36.3125 22.84375 -35.972656 24.8125 -35.296875 C 26.789062 -34.628906 28.375 -33.664062 29.5625 -32.40625 C 30.75 -31.15625 31.585938 -29.632812 32.078125 -27.84375 C 32.566406 -26.050781 32.8125 -24.054688 32.8125 -21.859375 L 32.8125 -1.015625 C 31.382812 -0.691406 29.390625 -0.320312 26.828125 0.09375 C 24.273438 0.519531 21.179688 0.734375 17.546875 0.734375 C 15.265625 0.734375 13.191406 0.53125 11.328125 0.125 C 9.472656 -0.269531 7.867188 -0.925781 6.515625 -1.84375 C 5.171875 -2.769531 4.140625 -3.972656 3.421875 -5.453125 C 2.710938 -6.929688 2.359375 -8.742188 2.359375 -10.890625 C 2.359375 -12.953125 2.769531 -14.703125 3.59375 -16.140625 C 4.425781 -17.578125 5.535156 -18.71875 6.921875 -19.5625 C 8.316406 -20.414062 9.910156 -21.03125 11.703125 -21.40625 C 13.492188 -21.789062 15.351562 -21.984375 17.28125 -21.984375 C 18.582031 -21.984375 19.738281 -21.925781 20.75 -21.8125 C 21.757812 -21.707031 22.578125 -21.566406 23.203125 -21.390625 L 23.203125 -22.328125 C 23.203125 -24.023438 22.6875 -25.390625 21.65625 -26.421875 C 20.625 -27.453125 18.832031 -27.96875 16.28125 -27.96875 C 14.570312 -27.96875 12.890625 -27.84375 11.234375 -27.59375 C 9.578125 -27.351562 8.140625 -27.007812 6.921875 -26.5625 L 5.65625 -34.640625 C 6.226562 -34.816406 6.953125 -35.003906 7.828125 -35.203125 C 8.703125 -35.410156 9.65625 -35.59375 10.6875 -35.75 C 11.71875 -35.90625 12.804688 -36.035156 13.953125 -36.140625 C 15.097656 -36.253906 16.253906 -36.3125 17.421875 -36.3125 Z M 17.421875 -36.3125 "/></g></g></g><g fill="#2aaa8a" fill-opacity="1"><g transform="translate(318.117089, 79.970321)"><g><path d="M 18.828125 0.671875 C 15.910156 0.628906 13.546875 0.316406 11.734375 -0.265625 C 9.921875 -0.847656 8.484375 -1.664062 7.421875 -2.71875 C 6.367188 -3.769531 5.648438 -5.046875 5.265625 -6.546875 C 4.890625 -8.054688 4.703125 -9.753906 4.703125 -11.640625 L 4.703125 -50.578125 L 14.734375 -52.1875 L 14.734375 -13.65625 C 14.734375 -12.757812 14.796875 -11.953125 14.921875 -11.234375 C 15.054688 -10.515625 15.316406 -9.90625 15.703125 -9.40625 C 16.085938 -8.914062 16.632812 -8.515625 17.34375 -8.203125 C 18.0625 -7.890625 19.03125 -7.6875 20.25 -7.59375 Z M 18.828125 0.671875 "/></g></g></g><g fill="#2aaa8a" fill-opacity="1"><g transform="translate(339.365649, 79.970321)"><g><path d="M 18.828125 0.671875 C 15.910156 0.628906 13.546875 0.316406 11.734375 -0.265625 C 9.921875 -0.847656 8.484375 -1.664062 7.421875 -2.71875 C 6.367188 -3.769531 5.648438 -5.046875 5.265625 -6.546875 C 4.890625 -8.054688 4.703125 -9.753906 4.703125 -11.640625 L 4.703125 -50.578125 L 14.734375 -52.1875 L 14.734375 -13.65625 C 14.734375 -12.757812 14.796875 -11.953125 14.921875 -11.234375 C 15.054688 -10.515625 15.316406 -9.90625 15.703125 -9.40625 C 16.085938 -8.914062 16.632812 -8.515625 17.34375 -8.203125 C 18.0625 -7.890625 19.03125 -7.6875 20.25 -7.59375 Z M 18.828125 0.671875 "/></g></g></g><g fill="#2aaa8a" fill-opacity="1"><g transform="translate(157.609821, 149.471026)"><g><path d="M 5.375 0 L 5.375 -46.609375 L 36.578125 -46.609375 L 36.578125 -37.796875 L 15.875 -37.796875 L 15.875 -28.046875 L 34.296875 -28.046875 L 34.296875 -19.234375 L 15.875 -19.234375 L 15.875 0 Z M 5.375 0 "/></g></g></g><g fill="#2aaa8a" fill-opacity="1"><g transform="translate(196.206877, 149.471026)"><g><path d="M 3.03125 -17.421875 C 3.03125 -20.554688 3.507812 -23.300781 4.46875 -25.65625 C 5.4375 -28.007812 6.703125 -29.96875 8.265625 -31.53125 C 9.835938 -33.101562 11.644531 -34.289062 13.6875 -35.09375 C 15.726562 -35.90625 17.820312 -36.3125 19.96875 -36.3125 C 24.988281 -36.3125 28.957031 -34.773438 31.875 -31.703125 C 34.789062 -28.640625 36.25 -24.125 36.25 -18.15625 C 36.25 -17.570312 36.222656 -16.929688 36.171875 -16.234375 C 36.128906 -15.546875 36.085938 -14.929688 36.046875 -14.390625 L 13.3125 -14.390625 C 13.539062 -12.328125 14.503906 -10.691406 16.203125 -9.484375 C 17.910156 -8.273438 20.195312 -7.671875 23.0625 -7.671875 C 24.90625 -7.671875 26.710938 -7.835938 28.484375 -8.171875 C 30.253906 -8.503906 31.695312 -8.921875 32.8125 -9.421875 L 34.15625 -1.28125 C 33.625 -1.007812 32.910156 -0.738281 32.015625 -0.46875 C 31.117188 -0.195312 30.117188 0.0351562 29.015625 0.234375 C 27.921875 0.429688 26.742188 0.597656 25.484375 0.734375 C 24.234375 0.867188 22.976562 0.9375 21.71875 0.9375 C 18.539062 0.9375 15.773438 0.46875 13.421875 -0.46875 C 11.066406 -1.414062 9.113281 -2.707031 7.5625 -4.34375 C 6.019531 -5.976562 4.878906 -7.914062 4.140625 -10.15625 C 3.398438 -12.394531 3.03125 -14.816406 3.03125 -17.421875 Z M 26.5625 -21.25 C 26.519531 -22.101562 26.375 -22.929688 26.125 -23.734375 C 25.875 -24.546875 25.488281 -25.265625 24.96875 -25.890625 C 24.457031 -26.515625 23.8125 -27.03125 23.03125 -27.4375 C 22.25 -27.84375 21.273438 -28.046875 20.109375 -28.046875 C 18.984375 -28.046875 18.015625 -27.851562 17.203125 -27.46875 C 16.398438 -27.09375 15.726562 -26.585938 15.1875 -25.953125 C 14.65625 -25.328125 14.242188 -24.597656 13.953125 -23.765625 C 13.660156 -22.941406 13.445312 -22.101562 13.3125 -21.25 Z M 26.5625 -21.25 "/></g></g></g><g fill="#2aaa8a" fill-opacity="1"><g transform="translate(235.476353, 149.471026)"><g><path d="M 14.859375 -7.203125 C 16.703125 -7.203125 18.003906 -7.378906 18.765625 -7.734375 C 19.523438 -8.085938 19.90625 -8.78125 19.90625 -9.8125 C 19.90625 -10.625 19.410156 -11.332031 18.421875 -11.9375 C 17.441406 -12.539062 15.941406 -13.222656 13.921875 -13.984375 C 12.347656 -14.566406 10.921875 -15.171875 9.640625 -15.796875 C 8.367188 -16.429688 7.285156 -17.1875 6.390625 -18.0625 C 5.492188 -18.9375 4.796875 -19.976562 4.296875 -21.1875 C 3.804688 -22.394531 3.5625 -23.851562 3.5625 -25.5625 C 3.5625 -28.875 4.796875 -31.492188 7.265625 -33.421875 C 9.734375 -35.347656 13.117188 -36.3125 17.421875 -36.3125 C 19.566406 -36.3125 21.625 -36.117188 23.59375 -35.734375 C 25.570312 -35.359375 27.144531 -34.945312 28.3125 -34.5 L 26.5625 -26.703125 C 25.394531 -27.097656 24.128906 -27.453125 22.765625 -27.765625 C 21.398438 -28.085938 19.863281 -28.25 18.15625 -28.25 C 15.019531 -28.25 13.453125 -27.375 13.453125 -25.625 C 13.453125 -25.21875 13.519531 -24.859375 13.65625 -24.546875 C 13.789062 -24.234375 14.054688 -23.929688 14.453125 -23.640625 C 14.859375 -23.347656 15.410156 -23.03125 16.109375 -22.6875 C 16.804688 -22.351562 17.691406 -21.988281 18.765625 -21.59375 C 20.960938 -20.78125 22.773438 -19.976562 24.203125 -19.1875 C 25.640625 -18.40625 26.769531 -17.554688 27.59375 -16.640625 C 28.425781 -15.722656 29.007812 -14.703125 29.34375 -13.578125 C 29.6875 -12.460938 29.859375 -11.164062 29.859375 -9.6875 C 29.859375 -6.1875 28.546875 -3.539062 25.921875 -1.75 C 23.296875 0.0390625 19.585938 0.9375 14.796875 0.9375 C 11.660156 0.9375 9.046875 0.664062 6.953125 0.125 C 4.867188 -0.40625 3.425781 -0.847656 2.625 -1.203125 L 4.296875 -9.34375 C 6.003906 -8.675781 7.753906 -8.148438 9.546875 -7.765625 C 11.335938 -7.390625 13.109375 -7.203125 14.859375 -7.203125 Z M 14.859375 -7.203125 "/></g></g></g><g fill="#2aaa8a" fill-opacity="1"><g transform="translate(268.088847, 149.471026)"><g><path d="M 4.375 -44.1875 L 14.390625 -45.796875 L 14.390625 -35.375 L 26.421875 -35.375 L 26.421875 -27.03125 L 14.390625 -27.03125 L 14.390625 -14.59375 C 14.390625 -12.488281 14.757812 -10.804688 15.5 -9.546875 C 16.238281 -8.296875 17.726562 -7.671875 19.96875 -7.671875 C 21.050781 -7.671875 22.160156 -7.769531 23.296875 -7.96875 C 24.441406 -8.164062 25.484375 -8.445312 26.421875 -8.8125 L 27.84375 -1.015625 C 26.632812 -0.515625 25.289062 -0.0859375 23.8125 0.265625 C 22.332031 0.628906 20.515625 0.8125 18.359375 0.8125 C 15.617188 0.8125 13.351562 0.441406 11.5625 -0.296875 C 9.769531 -1.035156 8.335938 -2.066406 7.265625 -3.390625 C 6.191406 -4.710938 5.441406 -6.316406 5.015625 -8.203125 C 4.585938 -10.085938 4.375 -12.171875 4.375 -14.453125 Z M 4.375 -44.1875 "/></g></g></g></svg>