<svg version="1.0" preserveAspectRatio="xMidYMid meet" viewBox="0 305.03597071462826 515.52 297.8417261223022" zoomAndPan="magnify" xmlns:xlink="http://www.w3.org/1999/xlink" xmlns="http://www.w3.org/2000/svg" style="max-height: 500px" width="515.52" height="297.8417261223022"><defs><filter id="433b1e0491" height="100%" width="100%" y="0%" x="0%"><feColorMatrix color-interpolation-filters="sRGB" values="0 0 0 0 1 0 0 0 0 1 0 0 0 0 1 0 0 0 1 0"/></filter><mask id="9c12765263"><g filter="url(#433b1e0491)"><rect fill-opacity="0.5" height="719.999999" y="-60" fill="#000000" width="1728" x="-144"/></g></mask><clipPath id="cfc0db6ee9"><path clip-rule="nonzero" d="M 20 16 L 24 16 L 24 66.167969 L 20 66.167969 Z M 20 16"/></clipPath><clipPath id="07c02a17e4"><path clip-rule="nonzero" d="M 0.269531 0.917969 L 23 0.917969 L 23 15 L 0.269531 15 Z M 0.269531 0.917969"/></clipPath><clipPath id="b6de9f799b"><path clip-rule="nonzero" d="M 21 0.917969 L 43.601562 0.917969 L 43.601562 15 L 21 15 Z M 21 0.917969"/></clipPath><clipPath id="65d892e645"><rect height="67" y="0" width="44" x="0"/></clipPath><mask id="09f1410143"><g filter="url(#433b1e0491)"><rect fill-opacity="0.6" height="719.999999" y="-60" fill="#000000" width="1728" x="-144"/></g></mask><clipPath id="4f7f55944a"><path clip-rule="nonzero" d="M 0.882812 1 L 32 1 L 32 20 L 0.882812 20 Z M 0.882812 1"/></clipPath><clipPath id="28be92cf66"><path clip-rule="nonzero" d="M 30 1 L 60.132812 1 L 60.132812 20 L 30 20 Z M 30 1"/></clipPath><clipPath id="687c56b84b"><rect height="210" y="0" width="61" x="0"/></clipPath><clipPath id="6e452647c6"><path clip-rule="nonzero" d="M 135 396.148438 L 158 396.148438 L 158 416 L 135 416 Z M 135 396.148438"/></clipPath><clipPath id="3150554943"><path clip-rule="nonzero" d="M 131 418 L 162 418 L 162 444.898438 L 131 444.898438 Z M 131 418"/></clipPath><mask id="87449936a0"><g filter="url(#433b1e0491)"><rect fill-opacity="0.8" height="719.999999" y="-60" fill="#000000" width="1728" x="-144"/></g></mask><clipPath id="2d4a1cfde9"><path clip-rule="nonzero" d="M 3 0.273438 L 27 0.273438 L 27 20 L 3 20 Z M 3 0.273438"/></clipPath><clipPath id="c0ae12cfac"><path clip-rule="nonzero" d="M 0.761719 22 L 29.800781 22 L 29.800781 48.273438 L 0.761719 48.273438 Z M 0.761719 22"/></clipPath><clipPath id="fcf0297c22"><rect height="49" y="0" width="30" x="0"/></clipPath><mask id="364d5a5a16"><g filter="url(#433b1e0491)"><rect fill-opacity="0.9" height="719.999999" y="-60" fill="#000000" width="1728" x="-144"/></g></mask><clipPath id="b4e25b91b5"><path clip-rule="nonzero" d="M 33 52 L 41 52 L 41 72 L 33 72 Z M 33 52"/></clipPath><clipPath id="937144e83c"><path clip-rule="nonzero" d="M 0.875 37.003906 L 37.464844 0.410156 L 74.058594 37.003906 L 37.464844 73.597656 Z M 0.875 37.003906"/></clipPath><clipPath id="0444c2d4df"><path clip-rule="nonzero" d="M 0.875 37.003906 L 37.464844 0.410156 L 74.058594 37.003906 L 37.464844 73.597656 Z M 0.875 37.003906"/></clipPath><clipPath id="8428ac65f7"><path clip-rule="nonzero" d="M 24 7 L 50 7 L 50 50 L 24 50 Z M 24 7"/></clipPath><clipPath id="6ba57858d3"><path clip-rule="nonzero" d="M 0.875 37.003906 L 37.464844 0.410156 L 74.058594 37.003906 L 37.464844 73.597656 Z M 0.875 37.003906"/></clipPath><clipPath id="e1959f6a5a"><path clip-rule="nonzero" d="M 0.875 37.003906 L 37.464844 0.410156 L 74.058594 37.003906 L 37.464844 73.597656 Z M 0.875 37.003906"/></clipPath><clipPath id="9c9a077665"><path clip-rule="nonzero" d="M 32 15 L 37 15 L 37 20 L 32 20 Z M 32 15"/></clipPath><clipPath id="e5cc7b3d9a"><path clip-rule="nonzero" d="M 0.875 37.003906 L 37.464844 0.410156 L 74.058594 37.003906 L 37.464844 73.597656 Z M 0.875 37.003906"/></clipPath><clipPath id="4150e8ea1c"><path clip-rule="nonzero" d="M 0.875 37.003906 L 37.464844 0.410156 L 74.058594 37.003906 L 37.464844 73.597656 Z M 0.875 37.003906"/></clipPath><clipPath id="bd69af1f35"><path clip-rule="nonzero" d="M 37 15 L 42 15 L 42 20 L 37 20 Z M 37 15"/></clipPath><clipPath id="6ba2967d78"><path clip-rule="nonzero" d="M 0.875 37.003906 L 37.464844 0.410156 L 74.058594 37.003906 L 37.464844 73.597656 Z M 0.875 37.003906"/></clipPath><clipPath id="b1949b0a5a"><path clip-rule="nonzero" d="M 0.875 37.003906 L 37.464844 0.410156 L 74.058594 37.003906 L 37.464844 73.597656 Z M 0.875 37.003906"/></clipPath><clipPath id="e47d39cb2f"><rect height="74" y="0" width="74" x="0"/></clipPath><clipPath id="93904313b8"><path clip-rule="nonzero" d="M 313 459 L 323 459 L 323 486 L 313 486 Z M 313 459"/></clipPath><clipPath id="da3b092170"><path clip-rule="nonzero" d="M 269.046875 438.253906 L 317.839844 389.464844 L 366.628906 438.253906 L 317.839844 487.042969 Z M 269.046875 438.253906"/></clipPath><clipPath id="78509a85d6"><path clip-rule="nonzero" d="M 269.046875 438.253906 L 317.839844 389.464844 L 366.628906 438.253906 L 317.839844 487.042969 Z M 269.046875 438.253906"/></clipPath><clipPath id="460562b861"><path clip-rule="nonzero" d="M 301 398 L 335 398 L 335 455 L 301 455 Z M 301 398"/></clipPath><clipPath id="9a16954115"><path clip-rule="nonzero" d="M 269.046875 438.253906 L 317.839844 389.464844 L 366.628906 438.253906 L 317.839844 487.042969 Z M 269.046875 438.253906"/></clipPath><clipPath id="e4897c5a87"><path clip-rule="nonzero" d="M 269.046875 438.253906 L 317.839844 389.464844 L 366.628906 438.253906 L 317.839844 487.042969 Z M 269.046875 438.253906"/></clipPath><clipPath id="292a2d3950"><path clip-rule="nonzero" d="M 311 409 L 317 409 L 317 415 L 311 415 Z M 311 409"/></clipPath><clipPath id="d5fc4475df"><path clip-rule="nonzero" d="M 269.046875 438.253906 L 317.839844 389.464844 L 366.628906 438.253906 L 317.839844 487.042969 Z M 269.046875 438.253906"/></clipPath><clipPath id="2754a97d2e"><path clip-rule="nonzero" d="M 269.046875 438.253906 L 317.839844 389.464844 L 366.628906 438.253906 L 317.839844 487.042969 Z M 269.046875 438.253906"/></clipPath><clipPath id="48c5a16cb1"><path clip-rule="nonzero" d="M 318 409 L 325 409 L 325 415 L 318 415 Z M 318 409"/></clipPath><clipPath id="a812da60a4"><path clip-rule="nonzero" d="M 269.046875 438.253906 L 317.839844 389.464844 L 366.628906 438.253906 L 317.839844 487.042969 Z M 269.046875 438.253906"/></clipPath><clipPath id="3614a2a6f4"><path clip-rule="nonzero" d="M 269.046875 438.253906 L 317.839844 389.464844 L 366.628906 438.253906 L 317.839844 487.042969 Z M 269.046875 438.253906"/></clipPath><mask id="445b3f5d63"><g filter="url(#433b1e0491)"><rect fill-opacity="0.45" height="719.999999" y="-60" fill="#000000" width="1728" x="-144"/></g></mask><clipPath id="b53a2a9187"><path clip-rule="nonzero" d="M 26 20 L 31 20 L 31 197.460938 L 26 197.460938 Z M 26 20"/></clipPath><clipPath id="29c3488f29"><path clip-rule="nonzero" d="M 0.632812 0.320312 L 30 0.320312 L 30 19 L 0.632812 19 Z M 0.632812 0.320312"/></clipPath><clipPath id="18c1ce3e7f"><path clip-rule="nonzero" d="M 28 0.320312 L 56.882812 0.320312 L 56.882812 19 L 28 19 Z M 28 0.320312"/></clipPath><clipPath id="2fda7223e1"><rect height="198" y="0" width="58" x="0"/></clipPath><mask id="d9e378f0ca"><g filter="url(#433b1e0491)"><rect fill-opacity="0.6" height="719.999999" y="-60" fill="#000000" width="1728" x="-144"/></g></mask><clipPath id="1fcad3d801"><path clip-rule="nonzero" d="M 25 19 L 29 19 L 29 81.308594 L 25 81.308594 Z M 25 19"/></clipPath><clipPath id="49ceab01a5"><path clip-rule="nonzero" d="M 0.0390625 0.308594 L 28 0.308594 L 28 18 L 0.0390625 18 Z M 0.0390625 0.308594"/></clipPath><clipPath id="ee510790cd"><path clip-rule="nonzero" d="M 26 0.308594 L 54 0.308594 L 54 18 L 26 18 Z M 26 0.308594"/></clipPath><clipPath id="913476a858"><rect height="83" y="0" width="55" x="0"/></clipPath><clipPath id="cd63b921e7"><path clip-rule="nonzero" d="M 0 439 L 668.992188 439 L 668.992188 600 L 0 600 Z M 0 439"/></clipPath><clipPath id="1e94e0d6cc"><path clip-rule="nonzero" d="M 0 457 L 668.992188 457 L 668.992188 600 L 0 600 Z M 0 457"/></clipPath><clipPath id="bc5eb195b8"><path clip-rule="nonzero" d="M 0 439 L 668.992188 439 L 668.992188 600 L 0 600 Z M 0 439"/></clipPath></defs><g mask="url(#9c12765263)"><g transform="matrix(1, 0, 0, 1, 86, 372)"><g clip-path="url(#65d892e645)"><path fill-rule="nonzero" fill-opacity="1" d="M 20.652344 17.886719 C 21.484375 15.6875 22.367188 15.824219 23.289062 17.828125 C 23.085938 18.21875 22.820312 18.492188 22.820312 21.300781 C 22.847656 36.886719 22.820312 50.171875 22.859375 65.757812 L 21.410156 65.980469 C 21.410156 51.144531 21.4375 36.308594 21.410156 21.472656 C 21.371094 20.277344 21.394531 18.492188 20.652344 17.886719 Z M 20.652344 17.886719" fill="#2aaa8a"/><g clip-path="url(#cfc0db6ee9)"><path fill-rule="nonzero" fill-opacity="1" d="M 21.15625 66.25 L 21.15625 56.976562 C 21.15625 45.339844 21.15625 33.308594 21.15625 21.472656 L 21.15625 21.335938 C 21.15625 20.238281 21.15625 18.582031 20.523438 18.050781 L 20.394531 17.941406 L 20.453125 17.789062 C 20.894531 16.621094 21.390625 16.050781 21.917969 16.027344 C 22.441406 16.003906 22.984375 16.542969 23.523438 17.710938 L 23.570312 17.820312 L 23.460938 18.015625 C 23.285156 18.347656 23.054688 18.757812 23.054688 21.28125 C 23.054688 27.582031 23.054688 33.492188 23.054688 39.355469 C 23.054688 48.148438 23.054688 56.449219 23.085938 65.738281 L 23.085938 65.941406 Z M 20.929688 17.824219 C 21.601562 18.546875 21.605469 20.171875 21.605469 21.335938 L 21.605469 21.472656 C 21.644531 33.308594 21.636719 45.339844 21.605469 56.976562 L 21.605469 65.726562 L 22.589844 65.574219 C 22.554688 56.371094 22.554688 48.121094 22.554688 39.394531 C 22.554688 33.542969 22.554688 27.621094 22.554688 21.320312 C 22.554688 18.703125 22.800781 18.234375 23.023438 17.839844 C 22.488281 16.710938 22.085938 16.535156 21.925781 16.535156 C 21.734375 16.523438 21.378906 16.707031 20.929688 17.824219 Z M 20.929688 17.824219" fill="#2aaa8a"/></g><g clip-path="url(#07c02a17e4)"><path fill-rule="nonzero" fill-opacity="1" d="M 22.332031 14.539062 L 3.28125 14.539062 C 2.390625 14.5625 1.648438 14.238281 1.058594 13.566406 C 0.605469 13.015625 0.128906 12.023438 0.410156 10.3125 C 1.3125 4.785156 5.765625 0.917969 11.238281 0.917969 C 17.34375 0.917969 22.332031 6.652344 22.332031 13.695312 Z M 11.238281 2.5625 C 6.589844 2.5625 2.785156 5.851562 2.027344 10.578125 C 1.886719 11.441406 1.988281 12.101562 2.3125 12.480469 C 2.574219 12.761719 2.898438 12.894531 3.28125 12.875 L 20.660156 12.875 C 20.300781 7.117188 16.210938 2.5625 11.238281 2.5625 Z M 11.238281 2.5625" fill="#2aaa8a"/></g><path fill-rule="nonzero" fill-opacity="1" d="M 13.28125 29.199219 C 12.46875 29.148438 11.769531 28.84375 11.183594 28.28125 C 7.691406 25.375 6.777344 20.769531 8.957031 17.070312 C 9.585938 16.027344 10.40625 15.167969 11.417969 14.488281 C 12.425781 13.808594 13.535156 13.378906 14.738281 13.191406 C 16.019531 12.972656 17.296875 12.988281 18.574219 13.230469 C 19.847656 13.472656 21.042969 13.929688 22.15625 14.597656 L 22.867188 15.015625 L 15.25 27.964844 C 14.902344 28.617188 14.367188 29.019531 13.640625 29.167969 C 13.523438 29.1875 13.402344 29.199219 13.28125 29.199219 Z M 16.511719 14.679688 C 16.011719 14.675781 15.519531 14.722656 15.027344 14.808594 C 14.0625 14.957031 13.171875 15.300781 12.355469 15.84375 C 11.542969 16.382812 10.878906 17.070312 10.371094 17.90625 C 8.609375 20.890625 9.378906 24.640625 12.246094 27.019531 C 12.554688 27.34375 12.929688 27.519531 13.375 27.546875 C 13.59375 27.476562 13.75 27.335938 13.84375 27.128906 L 20.597656 15.640625 C 19.308594 15.007812 17.949219 14.6875 16.511719 14.679688 Z M 16.511719 14.679688" fill="#2aaa8a"/><g clip-path="url(#b6de9f799b)"><path fill-rule="nonzero" fill-opacity="1" d="M 40.484375 14.539062 L 21.457031 14.539062 L 21.457031 13.695312 C 21.457031 6.652344 26.414062 0.917969 32.535156 0.917969 C 38.007812 0.917969 42.457031 4.785156 43.363281 10.3125 C 43.640625 12.023438 43.164062 13.015625 42.710938 13.546875 C 42.125 14.226562 41.382812 14.558594 40.484375 14.539062 Z M 23.109375 12.894531 L 40.484375 12.894531 C 40.871094 12.914062 41.195312 12.78125 41.460938 12.5 C 41.785156 12.121094 41.878906 11.460938 41.738281 10.597656 C 40.96875 5.902344 37.183594 2.582031 32.535156 2.582031 C 27.5625 2.5625 23.464844 7.117188 23.109375 12.875 Z M 23.109375 12.894531" fill="#2aaa8a"/></g><path fill-rule="nonzero" fill-opacity="1" d="M 30.335938 28.9375 C 30.195312 28.9375 30.050781 28.925781 29.910156 28.898438 C 29.289062 28.8125 28.820312 28.496094 28.5 27.960938 L 20.902344 15.03125 L 21.613281 14.613281 C 26.425781 11.796875 32.347656 12.878906 34.816406 17.070312 C 37.109375 20.960938 36.476562 24.957031 33.117188 27.753906 C 32.328125 28.472656 31.402344 28.867188 30.335938 28.9375 Z M 23.171875 15.640625 L 29.9375 27.128906 C 29.996094 27.222656 30.082031 27.273438 30.191406 27.28125 C 30.542969 27.34375 31.25 27.175781 32.070312 26.488281 C 34.792969 24.222656 35.28125 21.09375 33.402344 17.90625 C 31.523438 14.714844 27.050781 13.761719 23.171875 15.640625 Z M 23.171875 15.640625" fill="#2aaa8a"/></g></g></g><g mask="url(#09f1410143)"><g transform="matrix(1, 0, 0, 1, 37, 314)"><g clip-path="url(#687c56b84b)"><path fill-rule="nonzero" fill-opacity="1" d="M 28.894531 24.40625 C 30.039062 21.378906 31.257812 21.566406 32.527344 24.328125 C 32.246094 24.863281 31.878906 25.238281 31.878906 29.109375 C 31.917969 50.585938 31.878906 186.660156 31.9375 208.132812 L 29.9375 208.4375 C 29.9375 187.996094 29.976562 49.789062 29.9375 29.347656 C 29.886719 27.699219 29.917969 25.238281 28.894531 24.40625 Z M 28.894531 24.40625" fill="#2aaa8a"/><path fill-rule="nonzero" fill-opacity="1" d="M 29.585938 208.8125 L 29.585938 208.4375 C 29.585938 177.625 29.585938 48.902344 29.585938 29.347656 L 29.585938 29.160156 C 29.585938 27.648438 29.585938 25.363281 28.714844 24.632812 L 28.53125 24.484375 L 28.617188 24.269531 C 29.226562 22.664062 29.910156 21.875 30.636719 21.847656 L 30.648438 21.847656 C 31.40625 21.847656 32.09375 22.59375 32.824219 24.171875 L 32.886719 24.320312 L 32.738281 24.59375 C 32.492188 25.046875 32.175781 25.617188 32.175781 29.089844 C 32.175781 37.746094 32.175781 64.679688 32.175781 95.90625 C 32.175781 142.496094 32.175781 195.296875 32.222656 208.117188 L 32.222656 208.394531 Z M 29.277344 24.320312 C 30.203125 25.316406 30.210938 27.554688 30.210938 29.160156 L 30.210938 29.347656 C 30.265625 48.824219 30.246094 176.589844 30.210938 208.0625 L 31.5625 207.855469 C 31.515625 194.566406 31.515625 142.183594 31.515625 95.914062 C 31.515625 64.703125 31.515625 37.753906 31.515625 29.097656 C 31.515625 25.492188 31.851562 24.84375 32.164062 24.300781 C 31.414062 22.722656 30.867188 22.476562 30.628906 22.507812 C 30.390625 22.542969 29.890625 22.78125 29.277344 24.320312 Z M 29.277344 24.320312" fill="#2aaa8a"/><g clip-path="url(#4f7f55944a)"><path fill-rule="nonzero" fill-opacity="1" d="M 31.207031 19.792969 L 4.960938 19.792969 C 4.375 19.808594 3.8125 19.699219 3.277344 19.464844 C 2.742188 19.230469 2.28125 18.890625 1.894531 18.453125 C 1.273438 17.695312 0.613281 16.328125 1 13.96875 C 2.242188 6.351562 8.382812 1.027344 15.921875 1.027344 C 24.332031 1.027344 31.207031 8.925781 31.207031 18.632812 Z M 15.921875 3.292969 C 9.515625 3.292969 4.273438 7.820312 3.234375 14.335938 C 3.039062 15.527344 3.175781 16.433594 3.621094 16.957031 C 3.984375 17.347656 4.429688 17.527344 4.960938 17.5 L 28.902344 17.5 C 28.410156 9.566406 22.773438 3.292969 15.921875 3.292969 Z M 15.921875 3.292969" fill="#2aaa8a"/></g><path fill-rule="nonzero" fill-opacity="1" d="M 18.738281 39.992188 C 17.621094 39.921875 16.65625 39.5 15.84375 38.730469 C 11.035156 34.726562 9.773438 28.378906 12.777344 23.28125 C 16.175781 17.507812 24.332031 15.988281 30.964844 19.894531 L 31.941406 20.472656 L 21.449219 38.292969 C 21.222656 38.71875 20.914062 39.078125 20.527344 39.367188 C 20.140625 39.65625 19.707031 39.851562 19.234375 39.949219 C 19.070312 39.976562 18.902344 39.992188 18.738281 39.992188 Z M 23.175781 19.984375 C 19.648438 19.984375 16.414062 21.539062 14.726562 24.429688 C 12.296875 28.546875 13.359375 33.710938 17.3125 36.992188 C 17.734375 37.4375 18.253906 37.679688 18.867188 37.714844 C 19.167969 37.621094 19.382812 37.425781 19.511719 37.140625 L 28.816406 21.3125 C 27.039062 20.441406 25.15625 19.996094 23.175781 19.984375 Z M 23.175781 19.984375" fill="#2aaa8a"/><g clip-path="url(#28be92cf66)"><path fill-rule="nonzero" fill-opacity="1" d="M 56.222656 19.792969 L 30.003906 19.792969 L 30.003906 18.632812 C 30.003906 8.925781 36.835938 1.027344 45.265625 1.027344 C 52.804688 1.027344 58.9375 6.351562 60.1875 13.96875 C 60.570312 16.324219 59.910156 17.6875 59.289062 18.417969 C 58.90625 18.867188 58.445312 19.207031 57.910156 19.449219 C 57.371094 19.6875 56.808594 19.804688 56.222656 19.792969 Z M 32.28125 17.527344 L 56.222656 17.527344 C 56.753906 17.550781 57.203125 17.371094 57.566406 16.984375 C 58.015625 16.460938 58.144531 15.554688 57.949219 14.363281 C 56.886719 7.890625 51.671875 3.316406 45.265625 3.316406 C 38.414062 3.292969 32.769531 9.566406 32.28125 17.5 Z M 32.28125 17.527344" fill="#2aaa8a"/></g><path fill-rule="nonzero" fill-opacity="1" d="M 42.238281 39.632812 C 42.039062 39.632812 41.84375 39.617188 41.648438 39.578125 C 40.792969 39.460938 40.144531 39.03125 39.707031 38.285156 L 29.238281 20.472656 L 30.214844 19.894531 C 36.847656 16.011719 45.007812 17.507812 48.410156 23.28125 C 51.570312 28.644531 50.695312 34.148438 46.070312 38 C 44.984375 38.992188 43.707031 39.539062 42.238281 39.632812 Z M 32.363281 21.3125 L 41.6875 37.140625 C 41.769531 37.269531 41.882812 37.34375 42.039062 37.351562 C 42.523438 37.429688 43.492188 37.199219 44.625 36.257812 C 48.378906 33.132812 49.050781 28.824219 46.464844 24.429688 C 43.875 20.039062 37.707031 18.722656 32.363281 21.3125 Z M 32.363281 21.3125" fill="#2aaa8a"/></g></g></g><g clip-path="url(#6e452647c6)"><path fill-rule="evenodd" fill-opacity="1" d="M 157.90625 396.148438 L 135.085938 396.148438 L 135.085938 415.707031 L 157.90625 415.707031 Z M 141.605469 409.1875 L 141.605469 402.667969 L 144.867188 402.667969 L 144.867188 409.1875 Z M 148.125 409.1875 L 148.125 402.667969 L 151.386719 402.667969 L 151.386719 409.1875 Z M 148.125 409.1875" fill="#2aaa8a"/></g><g clip-path="url(#3150554943)"><path fill-rule="nonzero" fill-opacity="1" d="M 161.167969 418.96875 L 131.824219 418.96875 L 131.824219 430.378906 C 131.824219 433.082031 134.015625 435.269531 136.714844 435.269531 L 138.34375 435.269531 L 138.34375 441.789062 L 141.605469 441.789062 L 141.605469 445.050781 L 144.867188 445.050781 L 144.867188 441.789062 L 148.125 441.789062 L 148.125 445.050781 L 151.386719 445.050781 L 151.386719 441.789062 L 154.644531 441.789062 L 154.644531 435.269531 L 156.277344 435.269531 C 158.976562 435.269531 161.167969 433.082031 161.167969 430.378906 Z M 161.167969 418.96875" fill="#2aaa8a"/></g><g mask="url(#87449936a0)"><g transform="matrix(1, 0, 0, 1, 263, 432)"><g clip-path="url(#fcf0297c22)"><g clip-path="url(#2d4a1cfde9)"><path fill-rule="evenodd" fill-opacity="1" d="M 26.410156 0.273438 L 3.976562 0.273438 L 3.976562 19.5 L 26.410156 19.5 Z M 10.386719 13.09375 L 10.386719 6.683594 L 13.589844 6.683594 L 13.589844 13.09375 Z M 16.792969 13.09375 L 16.792969 6.683594 L 20 6.683594 L 20 13.09375 Z M 16.792969 13.09375" fill="#2aaa8a"/></g><g clip-path="url(#c0ae12cfac)"><path fill-rule="nonzero" fill-opacity="1" d="M 29.613281 22.707031 L 0.769531 22.707031 L 0.769531 33.921875 C 0.769531 36.578125 2.921875 38.730469 5.578125 38.730469 L 7.179688 38.730469 L 7.179688 45.140625 L 10.386719 45.140625 L 10.386719 48.34375 L 13.589844 48.34375 L 13.589844 45.140625 L 16.792969 45.140625 L 16.792969 48.34375 L 20 48.34375 L 20 45.140625 L 23.203125 45.140625 L 23.203125 38.730469 L 24.804688 38.730469 C 27.460938 38.730469 29.613281 36.578125 29.613281 33.921875 Z M 29.613281 22.707031" fill="#2aaa8a"/></g></g></g></g><g mask="url(#364d5a5a16)"><g transform="matrix(1, 0, 0, 1, 383, 486)"><g clip-path="url(#e47d39cb2f)"><g clip-path="url(#b4e25b91b5)"><g clip-path="url(#937144e83c)"><g clip-path="url(#0444c2d4df)"><path fill-rule="nonzero" fill-opacity="1" d="M 33.859375 68.570312 C 33.859375 70.460938 35.390625 71.992188 37.277344 71.992188 C 38.222656 71.992188 39.078125 71.609375 39.695312 70.988281 C 40.316406 70.371094 40.699219 69.515625 40.699219 68.570312 L 40.699219 52.652344 L 33.859375 52.652344 Z M 33.859375 68.570312" fill="#2aaa8a"/></g></g></g><g clip-path="url(#8428ac65f7)"><g clip-path="url(#6ba57858d3)"><g clip-path="url(#e1959f6a5a)"><path fill-rule="nonzero" fill-opacity="1" d="M 45.792969 9.085938 C 44.941406 8.234375 43.8125 7.765625 42.609375 7.765625 L 31.945312 7.765625 C 29.535156 7.765625 27.4375 9.867188 27.4375 12.273438 L 27.441406 22.347656 C 26.707031 22.375 26.042969 22.671875 25.5625 23.15625 C 25.054688 23.660156 24.742188 24.363281 24.742188 25.132812 L 24.742188 46.433594 C 24.742188 47.175781 25.035156 47.886719 25.558594 48.410156 C 26.085938 48.9375 26.796875 49.230469 27.539062 49.230469 L 47.019531 49.230469 C 47.789062 49.230469 48.488281 48.917969 48.996094 48.410156 C 49.5 47.90625 49.8125 47.207031 49.8125 46.433594 L 49.816406 25.132812 C 49.816406 24.390625 49.519531 23.679688 48.996094 23.15625 C 48.492188 22.65625 47.820312 22.371094 47.113281 22.347656 L 47.113281 12.273438 C 47.113281 11.070312 46.644531 9.9375 45.792969 9.085938 Z M 43.695312 12.273438 L 43.695312 22.335938 L 30.859375 22.335938 L 30.859375 12.273438 C 30.859375 11.699219 31.371094 11.1875 31.945312 11.1875 L 42.609375 11.1875 C 43.207031 11.183594 43.695312 11.671875 43.695312 12.273438 Z M 43.695312 12.273438" fill="#2aaa8a"/></g></g></g><g clip-path="url(#9c9a077665)"><g clip-path="url(#e5cc7b3d9a)"><g clip-path="url(#4150e8ea1c)"><path fill-rule="nonzero" fill-opacity="1" d="M 32.347656 17.25 C 32.347656 18.3125 33.210938 19.175781 34.273438 19.175781 C 35.335938 19.175781 36.199219 18.3125 36.199219 17.25 C 36.199219 16.1875 35.335938 15.324219 34.273438 15.324219 C 33.210938 15.324219 32.347656 16.183594 32.347656 17.25 Z M 32.347656 17.25" fill="#2aaa8a"/></g></g></g><g clip-path="url(#bd69af1f35)"><g clip-path="url(#6ba2967d78)"><g clip-path="url(#b1949b0a5a)"><path fill-rule="nonzero" fill-opacity="1" d="M 37.867188 17.25 C 37.867188 18.3125 38.730469 19.175781 39.792969 19.175781 C 40.859375 19.175781 41.722656 18.3125 41.722656 17.25 C 41.71875 16.1875 40.859375 15.324219 39.792969 15.324219 C 38.730469 15.320312 37.867188 16.183594 37.867188 17.25 Z M 37.867188 17.25" fill="#2aaa8a"/></g></g></g></g></g></g><g clip-path="url(#93904313b8)"><g clip-path="url(#da3b092170)"><g clip-path="url(#78509a85d6)"><path fill-rule="nonzero" fill-opacity="1" d="M 313.46875 480.769531 C 313.46875 483.3125 315.53125 485.375 318.074219 485.375 C 319.347656 485.375 320.5 484.859375 321.332031 484.027344 C 322.167969 483.191406 322.683594 482.039062 322.683594 480.769531 L 322.683594 459.328125 L 313.472656 459.328125 Z M 313.46875 480.769531" fill="#2aaa8a"/></g></g></g><g clip-path="url(#460562b861)"><g clip-path="url(#9a16954115)"><g clip-path="url(#e4897c5a87)"><path fill-rule="nonzero" fill-opacity="1" d="M 329.542969 400.65625 C 328.398438 399.511719 326.875 398.878906 325.253906 398.878906 L 310.894531 398.878906 C 307.648438 398.878906 304.820312 401.707031 304.824219 404.949219 L 304.828125 418.515625 C 303.839844 418.550781 302.945312 418.957031 302.296875 419.605469 C 301.617188 420.285156 301.195312 421.226562 301.195312 422.269531 L 301.191406 450.957031 C 301.191406 451.953125 301.589844 452.914062 302.296875 453.617188 C 303 454.324219 303.957031 454.722656 304.957031 454.722656 L 331.191406 454.71875 C 332.234375 454.71875 333.171875 454.300781 333.855469 453.617188 C 334.539062 452.933594 334.960938 451.992188 334.960938 450.953125 L 334.960938 422.265625 C 334.960938 421.269531 334.5625 420.3125 333.855469 419.605469 C 333.179688 418.929688 332.273438 418.546875 331.324219 418.515625 L 331.324219 404.945312 C 331.324219 403.324219 330.691406 401.800781 329.542969 400.65625 Z M 326.714844 404.949219 L 326.71875 418.5 L 309.433594 418.503906 L 309.433594 404.945312 C 309.429688 404.175781 310.117188 403.484375 310.894531 403.484375 L 325.253906 403.484375 C 326.0625 403.484375 326.71875 404.140625 326.714844 404.949219 Z M 326.714844 404.949219" fill="#2aaa8a"/></g></g></g><g clip-path="url(#292a2d3950)"><g clip-path="url(#d5fc4475df)"><g clip-path="url(#2754a97d2e)"><path fill-rule="nonzero" fill-opacity="1" d="M 311.433594 411.648438 C 311.4375 413.082031 312.597656 414.242188 314.03125 414.242188 C 315.460938 414.242188 316.621094 413.082031 316.625 411.648438 C 316.625 410.21875 315.460938 409.054688 314.027344 409.054688 C 312.597656 409.054688 311.4375 410.21875 311.433594 411.648438 Z M 311.433594 411.648438" fill="#2aaa8a"/></g></g></g><g clip-path="url(#48c5a16cb1)"><g clip-path="url(#a812da60a4)"><g clip-path="url(#3614a2a6f4)"><path fill-rule="nonzero" fill-opacity="1" d="M 318.871094 411.648438 C 318.871094 413.082031 320.03125 414.246094 321.464844 414.246094 C 322.898438 414.246094 324.058594 413.082031 324.058594 411.652344 C 324.058594 410.21875 322.898438 409.058594 321.464844 409.054688 C 320.03125 409.054688 318.867188 410.21875 318.871094 411.648438 Z M 318.871094 411.648438" fill="#2aaa8a"/></g></g></g><g mask="url(#445b3f5d63)"><g transform="matrix(1, 0, 0, 1, 202, 346)"><g clip-path="url(#2fda7223e1)"><path fill-rule="nonzero" fill-opacity="1" d="M 27.164062 22.527344 C 28.25 19.660156 29.402344 19.839844 30.601562 22.457031 C 30.339844 22.964844 29.988281 23.320312 29.988281 26.984375 C 30.027344 47.324219 29.988281 176.207031 30.042969 196.546875 L 28.152344 196.835938 C 28.152344 177.472656 28.1875 46.570312 28.152344 27.210938 C 28.101562 25.648438 28.132812 23.320312 27.164062 22.527344 Z M 27.164062 22.527344" fill="#2aaa8a"/><g clip-path="url(#b53a2a9187)"><path fill-rule="nonzero" fill-opacity="1" d="M 27.820312 197.191406 L 27.820312 196.835938 C 27.820312 167.648438 27.820312 45.730469 27.820312 27.210938 L 27.820312 27.035156 C 27.820312 25.597656 27.820312 23.4375 26.992188 22.742188 L 26.820312 22.601562 L 26.902344 22.398438 C 27.476562 20.878906 28.125 20.132812 28.8125 20.109375 L 28.824219 20.109375 C 29.542969 20.109375 30.191406 20.8125 30.882812 22.308594 L 30.945312 22.449219 L 30.804688 22.707031 C 30.570312 23.136719 30.269531 23.675781 30.269531 26.964844 C 30.269531 35.167969 30.269531 60.671875 30.269531 90.25 C 30.269531 134.378906 30.269531 184.386719 30.3125 196.527344 L 30.3125 196.792969 Z M 27.527344 22.449219 C 28.402344 23.394531 28.40625 25.511719 28.40625 27.035156 L 28.40625 27.210938 C 28.464844 45.660156 28.445312 166.667969 28.40625 196.480469 L 29.6875 196.28125 C 29.644531 183.695312 29.644531 134.082031 29.644531 90.257812 C 29.644531 60.699219 29.644531 35.171875 29.644531 26.972656 C 29.644531 23.558594 29.964844 22.945312 30.257812 22.429688 C 29.546875 20.933594 29.03125 20.703125 28.804688 20.734375 C 28.578125 20.765625 28.109375 20.992188 27.527344 22.449219 Z M 27.527344 22.449219" fill="#2aaa8a"/></g><g clip-path="url(#29c3488f29)"><path fill-rule="nonzero" fill-opacity="1" d="M 29.351562 18.160156 L 4.492188 18.160156 C 3.941406 18.175781 3.410156 18.070312 2.898438 17.847656 C 2.390625 17.625 1.953125 17.308594 1.589844 16.890625 C 1 16.171875 0.375 14.878906 0.742188 12.644531 C 1.921875 5.429688 7.734375 0.386719 14.875 0.386719 C 22.84375 0.386719 29.351562 7.867188 29.351562 17.0625 Z M 14.875 2.53125 C 8.808594 2.53125 3.84375 6.820312 2.859375 12.992188 C 2.671875 14.121094 2.800781 14.976562 3.226562 15.476562 C 3.570312 15.84375 3.992188 16.015625 4.492188 15.988281 L 27.171875 15.988281 C 26.703125 8.476562 21.367188 2.53125 14.875 2.53125 Z M 14.875 2.53125" fill="#2aaa8a"/></g><path fill-rule="nonzero" fill-opacity="1" d="M 17.542969 37.292969 C 16.484375 37.226562 15.570312 36.828125 14.800781 36.097656 C 10.25 32.304688 9.054688 26.292969 11.898438 21.460938 C 15.113281 15.996094 22.84375 14.554688 29.125 18.257812 L 30.050781 18.800781 L 20.109375 35.679688 C 19.894531 36.085938 19.605469 36.425781 19.238281 36.699219 C 18.871094 36.976562 18.464844 37.160156 18.015625 37.25 C 17.859375 37.277344 17.699219 37.289062 17.542969 37.292969 Z M 21.746094 18.34375 C 18.40625 18.34375 15.339844 19.8125 13.742188 22.554688 C 11.445312 26.449219 12.449219 31.339844 16.195312 34.449219 C 16.59375 34.871094 17.082031 35.101562 17.664062 35.136719 C 17.949219 35.042969 18.152344 34.863281 18.277344 34.589844 L 27.089844 19.597656 C 25.40625 18.773438 23.625 18.355469 21.746094 18.34375 Z M 21.746094 18.34375" fill="#2aaa8a"/><g clip-path="url(#18c1ce3e7f)"><path fill-rule="nonzero" fill-opacity="1" d="M 53.046875 18.160156 L 28.210938 18.160156 L 28.210938 17.0625 C 28.210938 7.867188 34.683594 0.386719 42.667969 0.386719 C 49.808594 0.386719 55.621094 5.429688 56.800781 12.644531 C 57.164062 14.875 56.539062 16.167969 55.949219 16.859375 C 55.585938 17.28125 55.152344 17.605469 54.644531 17.835938 C 54.136719 18.0625 53.601562 18.171875 53.046875 18.160156 Z M 30.371094 16.015625 L 53.046875 16.015625 C 53.550781 16.039062 53.972656 15.867188 54.320312 15.5 C 54.742188 15.003906 54.867188 14.144531 54.683594 13.015625 C 53.675781 6.886719 48.738281 2.554688 42.667969 2.554688 C 36.179688 2.53125 30.835938 8.476562 30.371094 15.988281 Z M 30.371094 16.015625" fill="#2aaa8a"/></g><path fill-rule="nonzero" fill-opacity="1" d="M 39.800781 36.949219 C 39.613281 36.953125 39.429688 36.9375 39.242188 36.902344 C 38.433594 36.789062 37.820312 36.378906 37.40625 35.675781 L 27.488281 18.800781 L 28.414062 18.257812 C 34.695312 14.578125 42.425781 15.996094 45.648438 21.460938 C 48.640625 26.542969 47.8125 31.757812 43.429688 35.40625 C 42.402344 36.347656 41.191406 36.859375 39.800781 36.949219 Z M 30.449219 19.597656 L 39.28125 34.589844 C 39.355469 34.714844 39.464844 34.78125 39.609375 34.792969 C 40.070312 34.867188 40.988281 34.644531 42.0625 33.757812 C 45.617188 30.796875 46.253906 26.714844 43.804688 22.554688 C 41.351562 18.390625 35.511719 17.148438 30.449219 19.597656 Z M 30.449219 19.597656" fill="#2aaa8a"/></g></g></g><g mask="url(#d9e378f0ca)"><g transform="matrix(1, 0, 0, 1, 359, 456)"><g clip-path="url(#913476a858)"><g clip-path="url(#1fcad3d801)"><path fill-rule="nonzero" fill-opacity="1" d="M 25.367188 21.417969 C 26.402344 18.683594 27.5 18.851562 28.644531 21.347656 C 28.394531 21.832031 28.058594 22.171875 28.058594 25.664062 C 28.09375 45.054688 28.058594 61.585938 28.113281 80.976562 L 26.308594 81.25 C 26.308594 62.792969 26.34375 44.335938 26.308594 25.882812 C 26.261719 24.390625 26.289062 22.171875 25.367188 21.417969 Z M 25.367188 21.417969" fill="#2aaa8a"/><path fill-rule="nonzero" fill-opacity="1" d="M 25.992188 81.589844 L 25.992188 70.050781 C 25.992188 55.574219 25.992188 40.605469 25.992188 25.882812 L 25.992188 25.710938 C 25.992188 24.34375 25.992188 22.28125 25.203125 21.621094 L 25.046875 21.488281 L 25.113281 21.292969 C 25.664062 19.847656 26.285156 19.132812 26.9375 19.105469 C 27.59375 19.074219 28.265625 19.746094 28.9375 21.203125 L 28.996094 21.335938 L 28.859375 21.582031 C 28.636719 21.988281 28.351562 22.503906 28.351562 25.640625 C 28.351562 33.480469 28.351562 40.832031 28.351562 48.128906 C 28.351562 59.066406 28.351562 69.394531 28.394531 80.953125 L 28.394531 81.203125 Z M 25.710938 21.339844 C 26.546875 22.242188 26.550781 24.261719 26.550781 25.710938 L 26.550781 25.882812 C 26.597656 40.605469 26.585938 55.574219 26.550781 70.050781 L 26.550781 80.933594 L 27.773438 80.75 C 27.734375 69.296875 27.734375 59.03125 27.734375 48.175781 C 27.734375 40.894531 27.734375 33.527344 27.734375 25.6875 C 27.734375 22.433594 28.035156 21.851562 28.316406 21.359375 C 27.652344 19.957031 27.148438 19.734375 26.949219 19.734375 C 26.710938 19.722656 26.265625 19.949219 25.710938 21.339844 Z M 25.710938 21.339844" fill="#2aaa8a"/></g><g clip-path="url(#49ceab01a5)"><path fill-rule="nonzero" fill-opacity="1" d="M 27.453125 17.25 L 3.753906 17.25 C 3.226562 17.265625 2.71875 17.167969 2.234375 16.957031 C 1.75 16.742188 1.335938 16.441406 0.984375 16.042969 C 0.425781 15.359375 -0.171875 14.125 0.179688 11.992188 C 1.300781 5.117188 6.84375 0.308594 13.652344 0.308594 C 21.246094 0.308594 27.453125 7.441406 27.453125 16.207031 Z M 13.652344 2.351562 C 7.867188 2.351562 3.136719 6.441406 2.195312 12.328125 C 2.019531 13.402344 2.140625 14.21875 2.546875 14.691406 C 2.871094 15.042969 3.277344 15.207031 3.753906 15.183594 L 25.371094 15.183594 C 24.929688 8.019531 19.839844 2.351562 13.652344 2.351562 Z M 13.652344 2.351562" fill="#2aaa8a"/></g><path fill-rule="nonzero" fill-opacity="1" d="M 16.195312 35.492188 C 15.183594 35.425781 14.316406 35.046875 13.582031 34.351562 C 9.242188 30.734375 8.101562 25.003906 10.8125 20.402344 C 11.59375 19.105469 12.617188 18.035156 13.875 17.191406 C 15.132812 16.347656 16.507812 15.808594 18.003906 15.574219 C 19.597656 15.304688 21.191406 15.320312 22.777344 15.625 C 24.367188 15.925781 25.851562 16.492188 27.234375 17.328125 L 28.117188 17.847656 L 18.640625 33.957031 C 18.210938 34.769531 17.546875 35.265625 16.644531 35.453125 C 16.496094 35.476562 16.34375 35.492188 16.195312 35.492188 Z M 20.214844 17.425781 C 19.59375 17.425781 18.976562 17.480469 18.367188 17.589844 C 17.164062 17.773438 16.054688 18.199219 15.042969 18.875 C 14.03125 19.546875 13.207031 20.402344 12.570312 21.441406 C 10.378906 25.15625 11.339844 29.820312 14.910156 32.78125 C 15.289062 33.183594 15.757812 33.402344 16.308594 33.433594 C 16.582031 33.347656 16.777344 33.175781 16.894531 32.914062 L 25.296875 18.625 C 23.695312 17.835938 22 17.4375 20.214844 17.425781 Z M 20.214844 17.425781" fill="#2aaa8a"/><g clip-path="url(#ee510790cd)"><path fill-rule="nonzero" fill-opacity="1" d="M 50.039062 17.25 L 26.367188 17.25 L 26.367188 16.207031 C 26.367188 7.441406 32.535156 0.308594 40.148438 0.308594 C 46.953125 0.308594 52.492188 5.117188 53.621094 11.992188 C 53.964844 14.125 53.371094 15.359375 52.808594 16.019531 C 52.460938 16.421875 52.046875 16.730469 51.5625 16.945312 C 51.078125 17.160156 50.570312 17.261719 50.039062 17.25 Z M 28.421875 15.207031 L 50.039062 15.207031 C 50.519531 15.230469 50.925781 15.066406 51.253906 14.714844 C 51.65625 14.242188 51.773438 13.425781 51.597656 12.351562 C 50.640625 6.507812 45.933594 2.375 40.148438 2.375 C 33.960938 2.351562 28.867188 8.019531 28.421875 15.183594 Z M 28.421875 15.207031" fill="#2aaa8a"/></g><path fill-rule="nonzero" fill-opacity="1" d="M 37.414062 35.164062 C 37.234375 35.167969 37.058594 35.152344 36.882812 35.117188 C 36.109375 35.007812 35.527344 34.621094 35.128906 33.949219 L 25.675781 17.863281 L 26.558594 17.34375 C 32.546875 13.839844 39.914062 15.1875 42.988281 20.402344 C 45.839844 25.246094 45.050781 30.214844 40.871094 33.691406 C 39.894531 34.589844 38.738281 35.082031 37.414062 35.164062 Z M 28.496094 18.625 L 36.917969 32.914062 C 36.988281 33.035156 37.09375 33.097656 37.234375 33.109375 C 37.671875 33.183594 38.546875 32.972656 39.570312 32.121094 C 42.957031 29.300781 43.566406 25.40625 41.230469 21.441406 C 38.890625 17.472656 33.324219 16.289062 28.496094 18.625 Z M 28.496094 18.625" fill="#2aaa8a"/></g></g></g><g clip-path="url(#cd63b921e7)"><path fill-rule="nonzero" fill-opacity="1" d="M -250.9375 1713.742188 C -249.652344 1712.882812 -247.507812 1712.882812 -246.21875 1714.171875 C -244.929688 1715.027344 -137.664062 1799.554688 -42.410156 1945.007812 C -65.582031 1868.636719 -80.597656 1806.421875 -87.035156 1760.082031 C -87.035156 1758.363281 -86.605469 1756.648438 -84.890625 1755.789062 C -83.171875 1754.933594 -81.457031 1754.933594 -80.167969 1756.21875 C -79.3125 1756.648438 -17.527344 1806.847656 40.828125 1882.792969 C 59.277344 1640.800781 79.015625 1540.398438 81.589844 1529.242188 C 79.871094 1523.664062 78.15625 1518.085938 76.441406 1512.078125 C 76.011719 1510.363281 75.582031 1508.648438 75.152344 1506.929688 C 74.296875 1503.5 73.007812 1499.636719 72.148438 1496.203125 C 60.566406 1491.484375 51.554688 1486.765625 44.261719 1481.1875 C 26.238281 1467.886719 15.941406 1449.863281 15.941406 1432.273438 C 15.941406 1375.207031 15.941406 1318.140625 15.511719 1261.074219 C 15.511719 1252.066406 15.511719 1242.195312 19.375 1232.757812 C 23.664062 1222.460938 30.960938 1214.734375 39.539062 1211.730469 C 70.863281 1200.578125 99.179688 1193.28125 128.359375 1188.5625 C 128.785156 1183.84375 129.214844 1178.695312 129.214844 1173.546875 C 129.644531 1167.96875 130.074219 1162.390625 130.503906 1157.242188 C 130.503906 1154.667969 132.648438 1152.949219 134.792969 1153.378906 C 142.515625 1153.808594 150.238281 1154.238281 157.535156 1155.09375 C 158.390625 1148.230469 159.25 1141.792969 160.109375 1134.929688 L 161.394531 1124.632812 C 159.679688 1123.773438 158.390625 1122.914062 156.675781 1122.058594 C 155.816406 1121.628906 155.390625 1121.199219 154.960938 1120.339844 C 139.085938 1084.726562 130.074219 1042.25 128.359375 997.628906 C 127.5 978.320312 136.082031 961.15625 150.238281 953.863281 C 160.539062 948.285156 172.980469 948.714844 183.277344 948.714844 L 203.445312 949.144531 L 203.445312 859.46875 L 148.09375 859.46875 C 145.949219 859.46875 143.804688 857.324219 143.804688 855.175781 L 143.804688 787.8125 C 143.804688 785.238281 145.949219 783.523438 148.09375 783.523438 L 366.488281 783.523438 L 366.488281 753.058594 C 366.488281 750.914062 368.207031 748.769531 370.78125 748.769531 L 988.210938 748.769531 C 990.355469 748.769531 992.5 750.914062 992.5 753.058594 L 992.5 783.523438 L 1210.464844 783.523438 C 1213.039062 783.523438 1214.757812 785.238281 1214.757812 787.8125 L 1214.757812 855.605469 C 1214.757812 857.75 1213.039062 859.898438 1210.464844 859.898438 L 1155.117188 859.898438 L 1155.117188 1155.953125 C 1165.414062 1138.363281 1174.855469 1121.199219 1176.140625 1102.320312 C 1177.429688 1084.300781 1186.4375 1066.707031 1201.027344 1053.40625 C 1213.898438 1041.820312 1231.0625 1033.667969 1250.371094 1030.238281 C 1286.410156 1023.800781 1325.457031 1035.386719 1352.058594 1059.84375 C 1378.230469 1083.441406 1392.820312 1119.910156 1391.105469 1155.09375 C 1419.421875 1165.820312 1446.023438 1191.566406 1458.039062 1219.457031 C 1470.050781 1247.34375 1470.050781 1279.953125 1458.46875 1308.273438 C 1485.5 1325.863281 1507.8125 1358.902344 1513.816406 1391.082031 C 1520.253906 1423.261719 1512.53125 1458.445312 1492.792969 1485.046875 C 1504.378906 1508.21875 1504.808594 1538.683594 1494.082031 1560.992188 C 1486.355469 1576.441406 1472.628906 1589.742188 1456.75 1597.464844 L 1469.625 1727.902344 C 1469.625 1729.1875 1469.195312 1730.90625 1467.90625 1731.761719 C 1466.621094 1732.621094 1465.332031 1733.480469 1464.046875 1734.335938 C 1472.199219 1752.785156 1477.777344 1772.523438 1481.636719 1794.835938 C 1483.355469 1805.5625 1476.488281 1815.859375 1465.761719 1818.863281 C 1455.894531 1821.4375 1446.023438 1824.011719 1436.15625 1826.585938 C 1434.011719 1827.015625 1431.867188 1827.445312 1429.71875 1827.445312 C 1424.140625 1827.445312 1418.5625 1825.726562 1414.273438 1821.867188 L 1410.839844 1818.863281 C 1409.125 1817.574219 1407.410156 1816.289062 1406.121094 1815 C 1400.542969 1810.28125 1397.109375 1803.417969 1397.109375 1795.695312 L 1397.539062 1744.632812 C 1393.679688 1743.347656 1390.246094 1742.488281 1386.8125 1740.773438 C 1385.527344 1740.34375 1384.667969 1739.058594 1384.238281 1737.339844 C 1378.660156 1695.292969 1372.652344 1652.386719 1367.078125 1610.335938 C 1365.789062 1615.054688 1364.074219 1619.347656 1361.925781 1623.207031 C 1359.351562 1627.5 1356.347656 1630.503906 1353.347656 1632.648438 C 1361.5 1672.550781 1367.503906 1710.738281 1373.511719 1747.636719 C 1380.804688 1792.691406 1388.101562 1839.886719 1399.257812 1889.660156 C 1429.71875 1916.691406 1464.476562 1948.871094 1497.941406 1980.191406 C 1531.410156 2011.515625 1566.164062 2044.125 1596.628906 2070.726562 C 1598.34375 2072.011719 1598.773438 2074.589844 1597.484375 2076.304688 C 1597.058594 2077.164062 1596.199219 2078.449219 1595.769531 2079.308594 C 1609.070312 2084.027344 1641.25 2096.042969 1667.421875 2113.632812 C 1668.28125 2114.492188 1669.140625 2115.347656 1669.140625 2116.207031 C 1669.570312 2117.496094 1669.140625 2118.351562 1668.28125 2119.640625 L 1553.292969 2289.121094 C 1552.433594 2290.410156 1551.144531 2290.839844 1549.859375 2290.839844 C 1548.570312 2290.839844 1547.285156 2289.980469 1546.425781 2289.121094 L 1538.703125 2278.394531 C 1524.113281 2257.800781 1518.109375 2231.199219 1522.828125 2206.3125 L 1527.976562 2178.421875 C 1527.117188 2179.28125 1526.691406 2180.566406 1525.832031 2181.855469 C 1524.972656 2182.714844 1524.113281 2183.570312 1523.257812 2183.570312 C 1522.828125 2183.570312 1522.828125 2183.570312 1522.398438 2183.570312 C 1521.539062 2183.570312 1520.683594 2183.140625 1519.824219 2182.710938 C 1437.445312 2127.363281 1355.0625 2055.707031 1274.398438 1971.183594 C 1263.671875 1960.027344 1256.375 1946.296875 1253.375 1931.277344 C 1249.941406 1915.832031 1246.507812 1899.527344 1243.074219 1883.652344 C 1238.355469 2042.835938 1239.214844 2327.738281 1239.214844 2330.742188 C 1239.214844 2332.027344 1238.785156 2332.886719 1237.925781 2333.746094 C 1237.070312 2334.601562 1236.210938 2335.03125 1234.921875 2335.03125 L 1224.195312 2335.03125 C 1227.628906 2347.902344 1236.210938 2381.800781 1236.210938 2414.410156 C 1236.210938 2416.554688 1234.066406 2418.699219 1231.921875 2418.699219 L 1027.683594 2418.699219 C 1026.394531 2418.699219 1025.109375 2417.84375 1024.25 2416.984375 C 1023.394531 2415.695312 1023.394531 2414.410156 1023.820312 2413.121094 L 1028.113281 2401.109375 C 1037.125 2377.082031 1055.574219 2357.773438 1078.742188 2347.476562 L 1105.34375 2335.890625 L 1090.757812 2335.890625 C 1089.898438 2335.890625 1089.039062 2335.460938 1088.183594 2335.03125 C 1086.035156 2333.316406 1086.035156 2333.316406 1086.035156 2256.082031 C 1086.035156 2213.605469 1086.464844 2147.101562 1088.183594 2071.585938 C 1090.328125 1961.742188 1095.046875 1815.859375 1106.203125 1694.863281 L 684.429688 1694.863281 L 684.429688 1740.773438 C 696.871094 1742.917969 706.742188 1753.644531 706.742188 1766.945312 C 706.742188 1781.535156 694.726562 1793.546875 680.136719 1793.546875 C 665.550781 1793.546875 653.535156 1781.535156 653.535156 1766.945312 C 653.535156 1753.644531 663.40625 1742.917969 675.847656 1740.773438 L 675.847656 1694.863281 L 415.832031 1694.863281 C 416.261719 1711.597656 416.691406 1730.046875 416.691406 1751.5 C 416.691406 1752.785156 415.832031 1754.503906 414.546875 1754.933594 C 410.683594 1757.507812 406.824219 1759.652344 402.53125 1762.226562 C 405.964844 1784.539062 407.25 1806.847656 406.394531 1829.589844 C 406.394531 1838.171875 401.671875 1845.894531 394.378906 1850.183594 C 381.507812 1857.910156 361.339844 1867.777344 337.742188 1869.492188 C 336.882812 1869.492188 336.457031 1869.492188 335.597656 1869.492188 C 333.023438 1869.492188 330.449219 1869.0625 328.304688 1868.636719 C 331.304688 2024.386719 327.445312 2300.277344 322.296875 2444.875 C 322.296875 2447.019531 320.152344 2449.164062 318.003906 2449.164062 L 302.988281 2449.164062 L 330.449219 2460.320312 C 354.046875 2470.617188 372.496094 2490.355469 381.078125 2513.953125 L 385.367188 2525.96875 C 385.796875 2527.253906 385.796875 2528.96875 384.941406 2529.828125 C 384.082031 2531.117188 382.792969 2531.542969 381.507812 2531.542969 L 177.269531 2531.542969 C 174.695312 2531.542969 172.980469 2529.398438 172.980469 2527.253906 C 172.980469 2494.644531 181.5625 2461.179688 184.996094 2447.875 L 175.984375 2447.875 C 174.695312 2447.875 173.839844 2447.449219 172.980469 2446.589844 C 172.121094 2445.730469 171.691406 2444.875 171.691406 2443.585938 C 171.691406 2440.152344 173.839844 2209.742188 173.839844 1998.640625 L 153.671875 2400.25 C 153.671875 2402.394531 151.527344 2404.539062 149.382812 2404.539062 L 136.507812 2404.539062 C 141.660156 2416.554688 151.527344 2444.015625 150.238281 2485.632812 C 150.238281 2487.78125 148.09375 2489.925781 145.949219 2489.925781 L 29.671875 2489.925781 C 27.527344 2489.925781 25.382812 2488.210938 25.382812 2485.632812 C 25.382812 2483.917969 24.09375 2443.15625 36.964844 2404.113281 L 20.660156 2404.113281 C 19.375 2404.113281 18.515625 2403.683594 17.65625 2402.824219 C 16.800781 2401.964844 16.371094 2400.679688 16.371094 2399.820312 C 16.800781 2383.515625 17.230469 2367.210938 17.65625 2351.335938 C 0.0664062 2331.171875 -213.179688 2080.164062 -252.65625 1717.601562 C -253.082031 1716.316406 -252.226562 1714.601562 -250.9375 1713.742188 Z M 661.6875 1766.515625 C 661.6875 1776.386719 669.839844 1784.539062 679.710938 1784.539062 C 689.578125 1784.539062 697.730469 1776.386719 697.730469 1766.515625 C 697.730469 1757.507812 690.867188 1749.785156 681.855469 1748.925781 C 681.425781 1749.355469 680.566406 1749.355469 679.710938 1749.355469 C 678.851562 1749.355469 678.421875 1748.925781 677.5625 1748.925781 C 668.554688 1749.785156 661.6875 1757.507812 661.6875 1766.515625 Z M 1664.847656 611.464844 L 1118.644531 611.464844 C 1116.5 611.464844 1114.785156 609.75 1114.355469 608.035156 C 1113.925781 605.886719 1115.214844 603.742188 1116.929688 603.3125 L 1204.886719 571.132812 C 1204.886719 569.847656 1204.886719 568.558594 1204.886719 567.273438 C 1204.886719 527.796875 1237.070312 495.617188 1276.542969 495.617188 C 1294.5625 495.617188 1311.726562 502.484375 1325.027344 514.496094 C 1338.757812 480.171875 1371.796875 457.429688 1409.125 457.429688 C 1449.457031 457.429688 1484.640625 483.605469 1496.226562 521.792969 C 1499.230469 521.363281 1502.660156 520.933594 1505.664062 520.933594 C 1536.558594 520.933594 1562.300781 544.960938 1564.449219 575.425781 L 1666.136719 603.3125 C 1668.28125 603.742188 1669.570312 605.886719 1669.140625 608.035156 C 1668.710938 609.75 1666.996094 611.464844 1664.847656 611.464844 Z M 626.933594 668.960938 L -248.792969 668.960938 C -250.9375 668.960938 -252.65625 667.675781 -253.082031 665.527344 C -253.511719 663.382812 -252.226562 661.238281 -250.082031 660.808594 L -136.378906 620.90625 C -136.804688 617.902344 -136.804688 614.898438 -136.804688 611.464844 C -136.804688 557.402344 -93.042969 513.640625 -38.980469 513.640625 C -28.679688 513.640625 -18.8125 515.355469 -8.945312 518.359375 C 12.507812 470.304688 60.136719 439.410156 113.339844 439.410156 C 157.535156 439.410156 198.296875 460.863281 223.609375 496.90625 C 242.488281 484.460938 264.371094 477.597656 287.542969 477.597656 C 336.882812 477.597656 381.078125 509.347656 396.953125 555.6875 C 409.398438 548.394531 423.554688 544.960938 437.714844 544.960938 C 481.050781 544.960938 516.664062 578 519.667969 620.90625 L 628.222656 660.808594 C 630.367188 661.667969 631.226562 663.382812 630.796875 665.527344 C 630.796875 667.675781 629.078125 668.960938 626.933594 668.960938 Z M 1501.375 1049.542969 C 1458.039062 1049.542969 1416.847656 1036.671875 1385.527344 1012.644531 L 1349.054688 1036.671875 C 1347.339844 1037.53125 1345.621094 1037.53125 1343.90625 1036.671875 C 1342.621094 1035.386719 1341.761719 1033.667969 1342.621094 1031.953125 L 1357.636719 984.753906 C 1342.191406 964.160156 1333.609375 940.5625 1333.609375 916.535156 C 1333.609375 843.164062 1408.695312 783.523438 1501.375 783.523438 C 1594.054688 783.523438 1669.140625 843.164062 1669.140625 916.535156 C 1669.140625 989.902344 1594.054688 1049.542969 1501.375 1049.542969 Z M 1501.375 1049.542969" fill="#2caa8c"/></g><g clip-path="url(#1e94e0d6cc)"><path fill-rule="nonzero" fill-opacity="1" d="M 1664.847656 611.464844 L 1118.644531 611.464844 C 1116.5 611.464844 1114.785156 610.179688 1114.355469 608.035156 C 1113.925781 605.886719 1115.214844 604.171875 1116.929688 603.3125 L 1204.886719 571.132812 C 1204.886719 569.847656 1204.886719 568.558594 1204.886719 567.273438 C 1204.886719 527.796875 1237.070312 495.617188 1276.542969 495.617188 C 1294.5625 495.617188 1311.726562 502.484375 1325.027344 514.496094 C 1338.757812 480.171875 1371.796875 457.429688 1409.125 457.429688 C 1449.457031 457.429688 1484.640625 483.605469 1496.226562 522.21875 C 1499.230469 521.792969 1502.660156 521.363281 1505.664062 521.363281 C 1536.558594 521.363281 1562.300781 545.390625 1564.449219 575.855469 L 1666.136719 602.886719 C 1668.28125 603.3125 1669.570312 605.460938 1669.140625 607.605469 C 1668.710938 609.75 1666.996094 611.464844 1664.847656 611.464844 Z M 1558.871094 583.148438 C 1557.152344 582.71875 1555.867188 581.003906 1555.867188 579.285156 C 1555.4375 552.253906 1532.695312 529.945312 1505.664062 529.945312 C 1501.804688 529.945312 1497.941406 530.371094 1494.082031 531.230469 C 1491.933594 531.660156 1489.359375 530.371094 1488.929688 528.226562 C 1479.921875 491.757812 1446.882812 466.011719 1409.125 466.011719 C 1373.082031 466.011719 1341.761719 489.183594 1330.605469 523.078125 C 1330.175781 524.367188 1328.890625 525.652344 1327.601562 526.082031 C 1325.886719 526.511719 1324.597656 526.082031 1323.3125 524.792969 C 1311.296875 511.492188 1294.132812 503.769531 1276.542969 503.769531 C 1241.789062 503.769531 1213.46875 532.089844 1213.46875 566.84375 C 1213.46875 568.988281 1213.46875 571.132812 1213.898438 573.28125 C 1213.898438 575.425781 1213.039062 577.140625 1210.894531 577.570312 L 1142.671875 602.457031 L 1632.238281 602.457031 Z M 1027.683594 2400.679688 C 1036.695312 2376.652344 1055.144531 2357.34375 1078.3125 2347.046875 L 1124.222656 2327.308594 C 1124.652344 2326.878906 1125.511719 2326.878906 1125.941406 2326.878906 L 1218.191406 2326.878906 C 1219.90625 2326.878906 1221.621094 2328.167969 1222.480469 2329.882812 C 1222.910156 2331.597656 1236.210938 2374.078125 1236.210938 2414.410156 C 1236.210938 2416.984375 1234.496094 2418.699219 1231.921875 2418.699219 L 1027.683594 2418.699219 C 1026.394531 2418.699219 1025.109375 2417.84375 1024.25 2416.984375 C 1023.394531 2415.695312 1023.394531 2414.410156 1023.820312 2413.121094 Z M 1531.839844 2157.828125 C 1531.839844 2156.96875 1532.265625 2156.539062 1532.695312 2156.109375 L 1536.128906 2150.960938 C 1542.136719 2141.953125 1548.570312 2132.941406 1555.007812 2124.359375 C 1565.304688 2109.769531 1575.601562 2095.183594 1585.472656 2080.164062 C 1586.328125 2078.449219 1588.476562 2078.019531 1590.191406 2078.449219 C 1597.484375 2081.023438 1636.53125 2093.894531 1666.996094 2114.921875 C 1667.851562 2115.347656 1668.710938 2116.636719 1668.710938 2117.496094 C 1668.710938 2118.351562 1668.710938 2119.640625 1667.851562 2120.5 L 1553.292969 2289.121094 C 1552.433594 2290.410156 1551.144531 2290.839844 1549.859375 2290.839844 C 1548.570312 2290.839844 1547.285156 2289.980469 1546.425781 2289.121094 L 1538.703125 2278.394531 C 1523.6875 2257.800781 1518.109375 2231.199219 1522.828125 2206.3125 Z M 16.371094 1431.84375 C 16.371094 1374.777344 16.371094 1317.710938 15.941406 1260.644531 C 15.941406 1251.636719 15.941406 1241.765625 19.804688 1232.328125 C 24.09375 1222.03125 31.386719 1214.308594 39.96875 1211.304688 C 71.292969 1200.148438 99.609375 1192.851562 128.785156 1188.132812 C 129.214844 1183.414062 129.644531 1178.265625 129.644531 1173.117188 C 130.074219 1167.539062 130.503906 1161.960938 130.933594 1156.8125 C 130.933594 1154.667969 133.078125 1152.519531 135.222656 1152.949219 C 178.988281 1155.09375 221.894531 1162.820312 263.515625 1175.261719 C 265.660156 1175.691406 266.515625 1177.835938 266.515625 1179.550781 C 266.089844 1184.699219 266.089844 1189.851562 266.515625 1195.429688 C 266.515625 1199.71875 266.945312 1204.4375 266.515625 1208.730469 C 298.699219 1219.027344 332.59375 1234.902344 364.773438 1254.640625 C 384.082031 1266.652344 388.371094 1291.539062 390.089844 1312.132812 L 400.816406 1457.160156 C 402.960938 1485.90625 404.675781 1509.933594 406.394531 1530.957031 C 412.398438 1607.332031 415.402344 1645.519531 416.261719 1751.070312 C 416.261719 1752.359375 415.402344 1754.074219 414.117188 1754.503906 C 387.941406 1771.664062 359.625 1780.675781 332.164062 1780.675781 C 317.578125 1780.675781 302.988281 1778.101562 289.257812 1772.953125 C 287.542969 1772.523438 286.683594 1770.808594 286.683594 1769.089844 C 283.679688 1687.140625 280.246094 1631.359375 277.242188 1577.726562 L 276.386719 1560.136719 C 249.785156 1556.703125 222.324219 1552.414062 196.148438 1548.550781 C 160.109375 1542.972656 122.351562 1537.394531 85.878906 1533.105469 C 84.164062 1533.105469 82.875 1531.816406 82.445312 1530.101562 C 79.015625 1518.945312 75.582031 1507.359375 73.007812 1495.773438 C 61.421875 1491.054688 52.414062 1486.335938 44.6875 1480.757812 C 26.667969 1467.027344 16.371094 1449.4375 16.371094 1431.84375 Z M -250.9375 1713.742188 C -249.222656 1712.882812 -247.507812 1712.882812 -246.21875 1714.171875 C -244.929688 1715.027344 -124.363281 1809.851562 -25.25 1972.039062 C -2.078125 2010.226562 18.515625 2049.703125 36.109375 2089.175781 C 36.535156 2089.605469 36.535156 2090.464844 36.535156 2091.320312 C 35.679688 2105.910156 34.820312 2120.496094 34.390625 2135.945312 L 33.960938 2144.527344 C 30.960938 2211.03125 27.957031 2280.109375 25.808594 2350.050781 C 25.808594 2351.765625 24.523438 2353.480469 23.234375 2353.910156 C 22.808594 2353.910156 22.378906 2354.339844 21.519531 2354.339844 C 20.234375 2354.339844 19.375 2353.910156 18.515625 2353.054688 C 16.371094 2350.476562 -211.894531 2094.324219 -253.082031 1718.03125 C -253.082031 1716.316406 -252.226562 1714.601562 -250.9375 1713.742188 Z M -250.9375 1713.742188" fill="#c7d99b"/></g><g clip-path="url(#bc5eb195b8)"><path fill-rule="nonzero" fill-opacity="1" d="M -250.082031 660.808594 L -136.378906 620.90625 C -136.804688 617.902344 -136.804688 614.898438 -136.804688 611.894531 C -136.804688 557.832031 -93.042969 514.066406 -38.980469 514.066406 C -28.679688 514.066406 -18.8125 515.785156 -8.945312 518.789062 C 12.507812 470.304688 60.136719 439.410156 113.339844 439.410156 C 157.535156 439.410156 198.296875 460.863281 223.609375 496.90625 C 242.488281 484.460938 264.371094 477.597656 287.542969 477.597656 C 336.882812 477.597656 381.078125 509.347656 396.953125 555.6875 C 409.398438 548.394531 423.554688 544.960938 437.714844 544.960938 C 481.050781 544.960938 516.664062 578 519.667969 620.90625 L 628.222656 660.808594 C 630.367188 661.667969 631.226562 663.382812 630.796875 665.527344 C 630.367188 667.675781 628.652344 668.960938 626.503906 668.960938 L -248.792969 668.960938 C -250.9375 668.960938 -252.65625 667.246094 -253.082031 665.527344 C -253.511719 663.8125 -252.226562 661.238281 -250.082031 660.808594 Z M 602.90625 660.378906 L 514.089844 627.769531 C 512.375 627.34375 511.515625 625.625 511.085938 623.910156 C 509.371094 584.433594 477.191406 553.113281 437.714844 553.113281 C 423.128906 553.113281 408.96875 557.402344 396.953125 565.554688 C 395.667969 566.414062 394.378906 566.414062 393.09375 565.984375 C 391.804688 565.554688 390.945312 564.269531 390.519531 562.980469 C 377.214844 517.5 335.167969 485.75 287.542969 485.75 C 264.800781 485.75 243.347656 492.613281 225.328125 505.914062 C 224.46875 506.773438 223.179688 506.773438 221.894531 506.773438 C 220.605469 506.773438 219.75 505.914062 218.890625 505.058594 C 195.292969 469.445312 155.816406 447.992188 113.339844 447.992188 C 62.28125 447.992188 16.800781 478.457031 -2.9375 525.222656 C -3.796875 527.371094 -6.371094 528.226562 -8.515625 527.796875 C -18.382812 524.367188 -28.679688 522.21875 -39.40625 522.21875 C -88.320312 522.21875 -128.652344 562.125 -128.652344 611.464844 C -128.652344 615.328125 -128.226562 619.191406 -127.796875 623.050781 C -127.367188 625.195312 -128.652344 626.914062 -130.800781 627.769531 L -223.90625 660.378906 Z M 190.570312 2439.722656 L 282.820312 2439.722656 C 283.25 2439.722656 284.109375 2439.722656 284.539062 2440.152344 L 330.019531 2459.890625 C 353.617188 2470.1875 372.066406 2489.925781 380.648438 2513.523438 L 384.941406 2525.539062 C 385.367188 2526.824219 385.367188 2528.113281 384.511719 2529.398438 C 383.652344 2530.6875 382.367188 2531.117188 381.078125 2531.117188 L 176.84375 2531.117188 C 174.269531 2531.117188 172.550781 2529.398438 172.550781 2526.824219 C 172.550781 2486.492188 185.421875 2444.015625 186.28125 2442.296875 C 187.140625 2441.011719 188.855469 2439.722656 190.570312 2439.722656 Z M 42.542969 2395.960938 L 128.785156 2395.960938 C 130.503906 2395.960938 131.789062 2396.816406 132.648438 2398.105469 C 133.507812 2399.390625 151.097656 2429.855469 149.8125 2486.0625 C 149.8125 2488.210938 147.664062 2490.355469 145.519531 2490.355469 L 29.242188 2490.355469 C 27.097656 2490.355469 24.953125 2488.636719 24.953125 2486.0625 C 24.953125 2484.347656 23.664062 2439.722656 38.683594 2398.964844 C 39.113281 2397.246094 40.828125 2395.960938 42.542969 2395.960938 Z M 981.773438 1326.292969 C 983.488281 1325.863281 985.207031 1326.292969 986.0625 1328.007812 C 998.507812 1344.3125 1010.949219 1361.046875 1022.964844 1376.921875 C 1033.691406 1391.082031 1044.417969 1405.671875 1055.574219 1420.257812 L 1089.898438 1350.75 C 1095.476562 1339.164062 1101.484375 1327.582031 1110.066406 1317.28125 C 1120.363281 1305.699219 1131.519531 1298.402344 1143.53125 1295.828125 C 1152.542969 1294.113281 1161.554688 1291.539062 1169.707031 1289.394531 C 1177.429688 1287.25 1185.152344 1285.53125 1193.304688 1283.816406 C 1194.160156 1276.949219 1194.589844 1270.085938 1195.449219 1263.21875 C 1196.308594 1255.496094 1196.738281 1247.34375 1198.023438 1239.191406 C 1198.453125 1237.476562 1199.738281 1235.761719 1201.457031 1235.332031 C 1240.5 1227.179688 1280.832031 1229.753906 1318.589844 1243.054688 C 1320.738281 1243.914062 1321.59375 1245.628906 1321.59375 1247.773438 C 1320.308594 1255.925781 1319.878906 1264.078125 1319.449219 1272.230469 C 1319.019531 1279.097656 1318.589844 1286.390625 1317.734375 1293.683594 C 1348.199219 1303.125 1379.519531 1316.425781 1403.546875 1330.15625 C 1412.988281 1335.734375 1425 1344.742188 1430.148438 1358.472656 C 1434.441406 1370.488281 1435.726562 1382.929688 1437.015625 1394.945312 L 1469.625 1728.328125 C 1469.625 1729.617188 1469.195312 1731.332031 1467.90625 1732.191406 C 1454.605469 1742.917969 1437.871094 1748.496094 1420.28125 1748.496094 C 1408.695312 1748.496094 1397.109375 1745.921875 1386.382812 1741.203125 C 1385.097656 1740.773438 1384.238281 1739.484375 1383.808594 1737.769531 C 1378.230469 1695.722656 1372.226562 1652.8125 1366.648438 1610.765625 C 1365.359375 1615.484375 1363.644531 1620.203125 1361.5 1623.636719 C 1353.773438 1636.507812 1341.761719 1640.371094 1325.027344 1634.792969 C 1269.679688 1612.480469 1201.457031 1609.90625 1133.664062 1627.5 C 1120.363281 1630.929688 1104.914062 1624.496094 1095.90625 1612.050781 C 1088.609375 1601.753906 1085.609375 1587.59375 1087.753906 1572.578125 L 1088.183594 1567.859375 C 1089.039062 1560.5625 1089.898438 1553.269531 1091.613281 1546.40625 C 1081.746094 1551.125 1069.730469 1553.269531 1059.003906 1551.984375 C 1047.851562 1550.695312 1039.269531 1545.976562 1033.691406 1538.683594 L 916.554688 1382.5 C 915.695312 1381.214844 915.269531 1379.070312 916.125 1377.78125 C 932 1351.179688 955.171875 1333.160156 981.773438 1326.292969 Z M -84.890625 1755.789062 C -83.171875 1754.933594 -81.457031 1754.933594 -80.167969 1756.21875 C -79.3125 1756.648438 -12.375 1810.710938 47.691406 1891.375 C 48.121094 1892.234375 48.550781 1893.09375 48.550781 1894.378906 C 43.832031 1955.734375 39.96875 2022.242188 36.109375 2091.75 C 35.25 2106.339844 34.390625 2120.925781 33.960938 2136.375 L 33.535156 2144.953125 C 33.535156 2147.101562 31.816406 2148.816406 30.101562 2148.816406 C 29.671875 2148.816406 29.671875 2148.816406 29.242188 2148.816406 C 27.527344 2148.816406 25.808594 2147.53125 25.382812 2145.8125 C 10.363281 2105.050781 -11.949219 2042.40625 -32.972656 1975.472656 C -61.289062 1884.941406 -79.742188 1812.425781 -87.035156 1759.652344 C -87.035156 1758.363281 -86.175781 1756.648438 -84.890625 1755.789062 Z M -84.890625 1755.789062" fill="#2aaa8a"/></g></svg>