<?xml version="1.0" encoding="UTF-8" standalone="no" ?>
<!DOCTYPE svg PUBLIC "-//W3C//DTD SVG 1.1//EN" "http://www.w3.org/Graphics/SVG/1.1/DTD/svg11.dtd">
<svg xmlns="http://www.w3.org/2000/svg" xmlns:xlink="http://www.w3.org/1999/xlink" version="1.1" width="1080" height="1080" viewBox="0 0 1080 1080" xml:space="preserve">
<desc>Created with Fabric.js 5.2.4</desc>
<defs>
</defs>
<rect x="0" y="0" width="100%" height="100%" fill="transparent"></rect>
<g transform="matrix(0 0 0 0 0 0)" id="2bd0806b-0429-496d-964e-092d6ead1955"  >
</g>
<g transform="matrix(1 0 0 1 540 540)" id="85cdd00a-2d1a-428d-8632-df060475931e"  >
<rect style="stroke: none; stroke-width: 1; stroke-dasharray: none; stroke-linecap: butt; stroke-dashoffset: 0; stroke-linejoin: miter; stroke-miterlimit: 4; fill: rgb(255,255,255); fill-rule: nonzero; opacity: 1; visibility: hidden;" vector-effect="non-scaling-stroke"  x="-540" y="-540" rx="0" ry="0" width="1080" height="1080" />
</g>
<g transform="matrix(3.54 0 0 3.54 535.59 537.37)"  >
<g style="" vector-effect="non-scaling-stroke"   >
		<g transform="matrix(1 0 0 1 0 0)"  >
<path style="stroke: none; stroke-width: 1; stroke-dasharray: none; stroke-linecap: butt; stroke-dashoffset: 0; stroke-linejoin: miter; stroke-miterlimit: 4; fill: rgb(255,255,255); fill-rule: nonzero; opacity: 1;" vector-effect="non-scaling-stroke"  transform=" translate(-302.04, -299.98)" d="M 447.79 347.35 C 440.02000000000004 340.41 432.14000000000004 333.59000000000003 424.3 326.73 C 419.77000000000004 322.73 415.19 318.86 410.68 314.87 C 406.17 310.88 401.85 310.58 397.68 314.28000000000003 C 389.1767644923055 321.92574901689215 381.3231129699775 330.2644003138102 374.19999999999993 339.2100000000001 C 371.31 342.78000000000003 371.49 345.75000000000006 374.8 349.00000000000006 C 380.04 354.13000000000005 385.34000000000003 359.2200000000001 390.6 364.34000000000003 C 394.14000000000004 367.78000000000003 397.07000000000005 367.79 400.6 364.22 Q 408.46000000000004 356.22 416.22 348.05 C 416.77000000000004 347.47 418.22 347.05 417 345.7 C 415.78 344.34999999999997 415.14 345.28 414.28 345.93 C 408.63 350.21 402.90999999999997 354.42 397.35999999999996 358.83 C 395.86999999999995 360.01 395.02 359.74 393.86999999999995 358.63 C 389.36999999999995 354.28 384.86999999999995 349.90999999999997 380.28 345.63 C 379.01 344.46 378.96 343.86 380.28 342.63 C 387.28 335.95 394.2 329.23 401.01 322.38 C 402.57 320.82 403.38 321.04 404.81 322.38 Q 420.95 337.88 437.23 353.2 C 438.56 354.45 438.58000000000004 355.08 437.23 356.32 Q 417 374.87 397 393.47 C 395.87 394.47 395.4 394.25 394.48 393.34000000000003 Q 376.48 375.43 358.38 357.62 C 357.11 356.37 357.2 355.75 358.38 354.56 C 365.777466713581 347.16904541567555 371.5476245385928 338.31284096170236 375.32 328.56 C 378.19392036393833 321.4940465938883 379.9125388369814 314.0118097839403 380.40999999999997 306.4 C 380.57 303.60999999999996 382.05999999999995 303.27 384.21999999999997 303.22999999999996 Q 390.80999999999995 303.10999999999996 397.39 302.87999999999994 C 406.39 302.56999999999994 415.39 302.29999999999995 424.39 301.87999999999994 C 431.71 301.54999999999995 439.03999999999996 301.4599999999999 446.39 301.35999999999996 C 447.0053881608001 301.4239334561502 447.6205827818859 301.23724139151113 448.096651812635 300.84208527903166 C 448.5727208433841 300.44692916655214 448.86951212347867 299.87663688633796 448.91999999999996 299.25999999999993 C 449.48895750742753 297.0393271660628 449.9164825221884 294.7848007210346 450.19999999999993 292.50999999999993 C 450.50999999999993 288.3999999999999 451.0399999999999 284.2199999999999 449.3399999999999 280.2699999999999 C 448.12999999999994 277.4599999999999 446.3399999999999 276.4799999999999 443.3399999999999 276.62999999999994 C 441.0999999999999 276.73999999999995 439.3999999999999 278.22999999999996 438.55999999999995 280.92999999999995 C 437.62379529360425 283.8671523876711 437.4347596490013 286.99139604119927 438.00999999999993 290.0199999999999 C 438.30999999999995 291.5799999999999 438.86999999999995 293.5299999999999 436.18999999999994 293.74999999999994 Q 425.03999999999996 294.69999999999993 413.90999999999997 295.6499999999999 C 409.4 296.0499999999999 404.90999999999997 296.50999999999993 400.39 296.9099999999999 C 394.39 297.4399999999999 388.44 297.9099999999999 382.46999999999997 298.44999999999993 C 380.95 298.5999999999999 380.7 297.91999999999996 380.67999999999995 296.5899999999999 C 380.6384302478874 294.3546716764216 380.46143919556675 292.1239165264179 380.15 289.90999999999985 C 378.80513383492075 279.65970550278314 375.4220034796729 269.78232491786355 370.2 260.8599999999999 C 369.83307403236324 260.42445696367804 369.6597729926927 259.8580416782855 369.7201772000119 259.29175223466785 C 369.7805814073311 258.72546279105023 370.0694591405143 258.20834657476206 370.52 257.8599999999999 C 383.64 244.2099999999999 396.66999999999996 230.4799999999999 409.78 216.8599999999999 C 412.40761484418414 214.24811608575178 413.82768302695905 210.65922350913723 413.6986310341679 206.9565700100853 C 413.56957904137676 203.25391651103334 411.90308644255776 199.77260268026623 409.09999999999997 197.3499999999999 C 400.09999999999997 189.0399999999999 391.09999999999997 180.5999999999999 382.15999999999997 172.2199999999999 C 375.60999999999996 166.0999999999999 369.15999999999997 159.9199999999999 362.48999999999995 153.89999999999992 C 358.03 149.83999999999992 353.24999999999994 150.04999999999993 349.28 154.4699999999999 C 343.4 161.0099999999999 337.64 167.6699999999999 331.86999999999995 174.30999999999992 C 326.49999999999994 180.4799999999999 321.09 186.61999999999992 315.86999999999995 192.9099999999999 C 312.86999999999995 196.5099999999999 312.9599999999999 200.4699999999999 316.0799999999999 204.0399999999999 C 323.7713966159308 212.70887044578558 332.1703351115979 220.7231502688116 341.19 227.99999999999997 C 344.8 231 348.52 230.12 351.19 227.29 C 356.09 222.04999999999998 361.19 216.93 366.19 211.79 C 369.87 208.03 369.96 205.13 366.19 201.48 C 360.65 196.09 355.02 190.79999999999998 349.43 185.48 C 348.95 185.01999999999998 348.55 184.35999999999999 347.77 185.19 C 347.15999999999997 185.85999999999999 346.53 186.38 347.44 187.28 C 347.8431639190621 187.74756685729668 348.2140217143326 188.24204391765736 348.55 188.76 C 352.69 194.23 356.78000000000003 199.76 361.01 205.14 C 362.01 206.39 361.90999999999997 207.14 360.88 208.14 C 356.35 212.77999999999997 351.83 217.45 347.42 222.20999999999998 C 346.31 223.40999999999997 345.75 223.12999999999997 344.78000000000003 222.12999999999997 Q 334.39000000000004 211.36999999999998 323.88000000000005 200.73999999999995 C 322.88000000000005 199.73999999999995 322.97 199.17999999999995 323.88000000000005 198.19999999999996 Q 339.78000000000003 181.48999999999995 355.58000000000004 164.69999999999996 C 356.68000000000006 163.51999999999995 357.21000000000004 163.90999999999997 358.07000000000005 164.83999999999995 C 364.7300000000001 172.04999999999995 371.4200000000001 179.21999999999994 378.07000000000005 186.41999999999996 C 383.7900000000001 192.58999999999995 389.4800000000001 198.78999999999996 395.22 204.95999999999995 C 396.11 205.95999999999995 396.55 206.52999999999994 395.34000000000003 207.73999999999995 Q 377.34000000000003 225.73999999999995 359.44000000000005 243.97999999999996 C 358.44000000000005 244.97999999999996 357.9800000000001 245.09999999999997 356.9100000000001 244.05999999999997 C 343.0800000000001 230.64999999999998 326.44000000000005 223.48999999999998 307.2900000000001 222.11999999999998 C 305.81000000000006 222.00999999999996 305.6600000000001 221.46999999999997 305.49000000000007 220.18999999999997 C 304.74000000000007 214.51999999999998 305.08000000000004 208.79999999999995 304.80000000000007 203.10999999999996 C 304.3500000000001 193.87999999999997 304.20000000000005 184.62999999999997 303.80000000000007 175.38999999999996 C 303.50000000000006 168.75999999999996 303.4100000000001 162.12999999999997 303.31000000000006 155.49999999999994 C 303.36003479435277 154.97069202607 303.1972570271332 154.44324495765886 302.85763054640563 154.0341920692687 C 302.51800406567804 153.62513918087856 302.02948286404296 153.36814881718857 301.50000000000006 153.31999999999994 C 297.851447320396 152.43230603850074 294.13524765760184 151.85029096980028 290.39 151.57999999999993 C 287.3091415929137 151.2450634002668 284.1991115273994 151.85172845788955 281.47 153.31999999999994 C 279.4692014916948 154.44539139785488 278.3204158181751 156.6449434894745 278.54 158.92999999999995 C 278.61 161.18999999999994 279.97 162.43999999999994 281.85 163.21999999999994 C 284.5219594994085 164.43385020987904 287.4932002302506 164.83047953460502 290.39000000000004 164.35999999999993 C 292.04 164.04999999999993 293.96000000000004 163.56999999999994 295.33000000000004 164.43999999999994 C 296.33000000000004 165.06999999999994 295.63000000000005 166.88999999999993 295.75000000000006 168.17999999999995 C 296.68000000000006 177.57999999999996 297.63000000000005 186.96999999999994 298.4700000000001 196.36999999999995 C 299.1900000000001 204.36999999999995 299.6500000000001 212.31999999999994 300.4700000000001 220.25999999999993 C 300.68000000000006 222.14999999999992 300.0400000000001 222.02999999999994 298.75000000000006 222.08999999999995 C 296.59179128581246 222.1461100108483 294.4384190717169 222.32305377417705 292.30000000000007 222.61999999999995 C 282.13081802032843 224.0193245846776 272.33926335649613 227.41798986195369 263.49 232.62 C 263.01494965467646 233.0042651906634 262.4035444139737 233.17779669203887 261.7974587564788 233.10038388220306 C 261.19137309898395 233.02297107236726 260.6432137913081 232.70133319565372 260.2800000000001 232.20999999999995 C 256.4800000000001 228.46999999999994 252.60000000000008 224.80999999999995 248.7400000000001 221.12999999999994 C 238.5800000000001 211.40999999999994 228.35000000000008 201.74999999999994 218.2900000000001 191.92999999999995 C 213.9400000000001 187.68999999999994 204.2900000000001 187.15999999999994 199.2100000000001 193.17999999999995 C 193.6700000000001 199.71999999999994 187.60000000000008 205.78999999999996 181.7400000000001 212.05999999999995 C 173.2000000000001 221.19999999999993 164.60000000000008 230.29999999999995 156.1100000000001 239.48999999999995 C 151.5400000000001 244.48999999999995 152.1100000000001 249.60999999999996 157.2800000000001 253.87999999999994 C 160.2800000000001 256.31999999999994 163.1500000000001 258.87999999999994 166.0600000000001 261.41999999999996 C 175.2700000000001 269.41999999999996 184.41000000000008 277.48999999999995 193.6800000000001 285.41999999999996 C 198.7700000000001 289.77 202.63000000000008 289.59999999999997 207.5100000000001 284.99999999999994 C 215.6564724487177 277.53274612190705 223.19375277604206 269.4269930103568 230.05000000000013 260.7599999999999 C 232.5800000000001 257.4699999999999 232.6300000000001 254.39999999999992 229.6800000000001 251.48999999999992 Q 221.1700000000001 243.11999999999992 212.4200000000001 234.99999999999991 C 209.7900000000001 232.54999999999993 207.1600000000001 232.51999999999992 204.6200000000001 235.05999999999992 C 198.7800000000001 240.9099999999999 193.10000000000008 246.9199999999999 187.3400000000001 252.8499999999999 C 186.7700000000001 253.4399999999999 186.5600000000001 253.9399999999999 187.2100000000001 254.61999999999992 C 187.8600000000001 255.29999999999993 188.3200000000001 255.66999999999993 189.1100000000001 254.86999999999992 C 189.57772410471526 254.47007811810445 190.07220728158038 254.10255683800202 190.5900000000001 253.76999999999992 Q 199 247.33 207.38 241 C 208.18 240.38 208.71 240 209.67 240.92 Q 216.92999999999998 248.07999999999998 224.35 255.08999999999997 C 225.35 255.98999999999998 225.06 256.46 224.26 257.23999999999995 Q 213.37 267.80999999999995 202.54 278.46999999999997 C 201.70999999999998 279.28 201.22 279.36999999999995 200.32 278.52 Q 183.60999999999999 262.63 166.79999999999998 246.84999999999997 C 165.57 245.69999999999996 165.67 245.11999999999998 166.79999999999998 244.03999999999996 C 176.01 235.56999999999996 185.15999999999997 227.03999999999996 194.33999999999997 218.53999999999996 C 198.52999999999997 214.64999999999998 202.74999999999997 210.78999999999996 206.92999999999998 206.88999999999996 C 207.92999999999998 206.00999999999996 208.55999999999997 205.57999999999996 209.76 206.78999999999996 Q 228.07 225.19999999999996 246.53 243.47999999999996 C 247.35 244.28999999999996 247.48 244.81999999999996 246.64000000000001 245.70999999999995 C 244.84 247.61999999999995 243.06 249.54999999999995 241.44000000000003 251.60999999999996 C 231.5841711369001 263.8766745009635 225.78341847310483 278.90272055778246 224.84000000000003 294.6099999999999 C 224.74000000000004 296.08 224.31000000000003 296.55999999999995 222.84000000000003 296.66999999999996 C 216.07000000000002 297.16999999999996 209.29000000000002 297.09999999999997 202.52000000000004 297.44999999999993 C 191.20000000000005 298.0399999999999 179.86000000000004 298.19999999999993 168.52000000000004 298.44999999999993 C 164.75000000000003 298.54999999999995 160.99000000000004 299.16999999999996 157.21000000000004 298.8999999999999 C 156.7477096441509 298.8008739475105 156.26508547435898 298.9035782831686 155.88321234000853 299.1823456712444 C 155.50133920565807 299.4611130593202 155.2564555995712 299.8894894000537 155.21000000000004 300.3599999999999 C 154.09000000000003 305.6899999999999 153.16000000000003 311.0499999999999 153.78000000000003 316.5199999999999 C 153.96573792800515 318.6909439148964 154.95749361077495 320.71369741176863 156.56000000000003 322.18999999999994 C 158.03801132910175 323.61382799329743 160.2111690679401 324.043769272564 162.12000000000003 323.28999999999996 C 164.69000000000003 322.34999999999997 165.30000000000004 320.11999999999995 165.94000000000003 317.93999999999994 C 166.88000000000002 314.75999999999993 166.32000000000002 311.5199999999999 165.94000000000003 308.31999999999994 C 165.77000000000004 306.87999999999994 166.31000000000003 306.53999999999996 167.72000000000003 306.44999999999993 C 173.72000000000003 306.05999999999995 179.72000000000003 305.5299999999999 185.64000000000004 304.99999999999994 C 193.82000000000005 304.2799999999999 202.00000000000006 303.50999999999993 210.18000000000004 302.75999999999993 C 214.18000000000004 302.3999999999999 218.18000000000004 302.2799999999999 222.11000000000004 301.63999999999993 C 224.11000000000004 301.29999999999995 224.70000000000005 301.63999999999993 224.76000000000005 303.63999999999993 C 225.10760299785565 315.9225298074257 228.5469779635014 327.91906968759804 234.76000000000005 338.5199999999999 C 235.116047829597 338.97098975725925 235.26967323687052 339.5491756340861 235.18443724399359 340.11741558659895 C 235.09920125111665 340.6856555391118 234.78269797614558 341.19332211360194 234.31000000000006 341.5199999999999 C 229.72000000000006 346.2199999999999 225.19000000000005 350.9699999999999 220.65000000000006 355.7199999999999 C 211.65000000000006 365.0999999999999 202.80000000000007 374.56999999999994 193.72000000000006 383.8399999999999 C 189.60000000000005 388.0499999999999 189.06000000000006 397.56999999999994 194.26000000000005 402.0199999999999 C 199.95000000000005 406.88999999999993 205.26000000000005 412.2199999999999 210.70000000000005 417.3499999999999 Q 226.08000000000004 431.7899999999999 241.45000000000005 446.2199999999999 C 245.78000000000006 450.2199999999999 251.45000000000005 449.7899999999999 255.30000000000004 445.2699999999999 C 255.80000000000004 444.67999999999995 256.24000000000007 444.0399999999999 256.75000000000006 443.4599999999999 Q 272.33000000000004 425.5499999999999 287.9100000000001 407.63999999999993 C 291.0900000000001 403.9699999999999 291.1600000000001 399.5799999999999 287.9100000000001 395.8999999999999 C 280.13520317972734 387.09217022149517 271.55089197842733 379.0334974205868 262.27000000000004 371.8299999999999 C 258.9300000000001 369.2099999999999 256.0100000000001 369.5299999999999 253.0500000000001 372.5999999999999 Q 245.1600000000001 380.7699999999999 237.3300000000001 388.9999999999999 C 234.2000000000001 392.27999999999986 234.2100000000001 394.9999999999999 237.4500000000001 398.20999999999987 Q 245.6600000000001 406.20999999999987 253.9500000000001 414.20999999999987 C 254.5800000000001 414.8199999999999 255.1000000000001 416.04999999999984 256.3800000000001 414.9499999999999 C 257.6600000000001 413.8499999999999 256.6900000000001 413.07999999999987 256.0600000000001 412.2499999999999 Q 249.42000000000013 403.4999999999999 242.7500000000001 394.76999999999987 C 242.11000000000013 393.9299999999999 241.86000000000013 393.3699999999999 242.7500000000001 392.4499999999999 Q 249.83000000000013 385.27999999999986 256.7500000000001 377.9499999999999 C 257.7500000000001 376.9499999999999 258.22000000000014 377.1299999999999 259.0900000000001 378.02999999999986 Q 269.6500000000001 388.96999999999986 280.30000000000007 399.77999999999986 C 281.01000000000005 400.5099999999999 281.20000000000005 400.90999999999985 280.37000000000006 401.77999999999986 Q 264.37000000000006 418.55999999999983 248.54000000000008 435.46999999999986 C 247.3400000000001 436.73999999999984 246.77000000000007 436.46999999999986 245.75000000000009 435.33999999999986 C 242.69000000000008 431.85999999999984 239.5200000000001 428.46999999999986 236.38000000000008 425.0699999999999 Q 222.38000000000008 409.89999999999986 208.38000000000008 394.78999999999985 C 207.54000000000008 393.8799999999998 207.5600000000001 393.36999999999983 208.38000000000008 392.54999999999984 C 210.23000000000008 390.79999999999984 212.00000000000009 388.9499999999998 213.80000000000007 387.14999999999986 Q 229.36000000000007 371.54999999999984 244.88000000000005 355.91999999999985 C 246.06000000000006 354.71999999999986 246.71000000000006 354.57999999999987 247.98000000000005 355.84999999999985 C 250.05885153058642 357.91523771841923 252.2702134625373 359.84266345064833 254.60000000000005 361.61999999999983 C 266.60380292221737 371.04989182655277 281.146588877181 376.68665755819893 296.37000000000006 377.80999999999983 C 297.8400000000001 377.92999999999984 298.24000000000007 378.2699999999998 298.4200000000001 379.80999999999983 C 299.12000000000006 385.6399999999998 298.8300000000001 391.49999999999983 299.11000000000007 397.34999999999985 C 299.55000000000007 406.34999999999985 299.7100000000001 415.34999999999985 300.11000000000007 424.34999999999985 C 300.4200000000001 431.1299999999998 300.5200000000001 437.91999999999985 300.6000000000001 444.70999999999987 C 300.6000000000001 446.0599999999999 301.06000000000006 446.70999999999987 302.30000000000007 446.91999999999985 C 306.2300000000001 447.53999999999985 310.08000000000004 448.7599999999998 313.99000000000007 448.45999999999987 C 316.76000000000005 448.53999999999985 319.36000000000007 448.52999999999986 321.77000000000004 447.20999999999987 C 324.53000000000003 445.6999999999999 325.77000000000004 443.6199999999999 325.35 440.8899999999999 C 325.06 438.7499999999999 322.63 436.7399999999999 319.93 436.21999999999986 C 316.90514313168126 435.61526085624126 313.7925112487253 435.59489467161995 310.76 436.15999999999985 C 309.76 436.35999999999984 308.34999999999997 436.6999999999999 308.2 434.80999999999983 Q 307.3 423.3199999999998 306.32 411.80999999999983 Q 305.82 405.9599999999998 305.32 400.09999999999985 C 304.71999999999997 393.28999999999985 304.14 386.47999999999985 303.51 379.66999999999985 C 303.39 378.35999999999984 303.84 377.83999999999986 305.17 377.89999999999986 C 308.1846263370557 377.9860938412015 311.20018376194673 377.7649529633761 314.17 377.23999999999984 C 323.6348004345168 375.8051628288488 332.74798146307745 372.6136840987128 341.04 367.8299999999998 C 341.4545114931075 367.50718374710516 341.98320158259395 367.368330708126 342.50284367482755 367.44580462005905 C 343.02248576706114 367.52327853199205 343.4876802402975 367.81031072395893 343.79 368.23999999999984 Q 364.68 388.30999999999983 385.66 408.30999999999983 C 390.71920092051175 412.9260727109768 398.491967030338 412.825468535104 403.43 408.0799999999998 C 406.34000000000003 405.0799999999998 409.16 402.0099999999998 412.01 398.9699999999998 Q 430.01 379.7799999999998 448.01 360.6099999999998 C 452.19 356.38 452.07 351.16 447.79 347.35 Z M 340.31 292.78 C 334.36 297.08 328.41 301.34999999999997 322.39 305.54999999999995 C 321.21 306.37999999999994 321.33 307.15 321.7 308.28999999999996 C 324.59999999999997 317.15999999999997 327.44 326.05999999999995 330.28999999999996 334.95 C 330.65453150704826 335.6399650847698 330.77438777399414 336.43313155720597 330.62999999999994 337.2 L 319 328.77 C 314.81 325.77 310.56 322.77 306.45 319.62 C 305.08 318.57 304.19 318.72 302.89 319.69 C 295.16999999999996 325.37 287.4 330.96 279.64 336.58 C 279.33 336.81 279.01 337 278.27 337.47999999999996 C 281.51 327.39 284.56 317.76 287.72999999999996 308.16999999999996 C 287.98752031605 307.6759093375244 288.0328330278462 307.0982821932427 287.855507841453 306.5700795103693 C 287.6781826550598 306.0418768274959 287.29349713121206 305.6086062337518 286.78999999999996 305.36999999999995 C 279.64 300.22999999999996 272.53999999999996 295.00999999999993 265.41999999999996 289.81999999999994 L 262.67999999999995 287.81999999999994 C 262.67999999999995 287.5799999999999 262.73999999999995 287.3299999999999 262.78 287.0899999999999 L 270.46 287.0899999999999 C 277.57 287.0899999999999 284.68 286.99999999999994 291.78999999999996 287.13999999999993 C 293.95 287.13999999999993 294.84999999999997 286.5199999999999 295.48999999999995 284.42999999999995 C 298.18999999999994 275.65 301.10999999999996 266.93999999999994 303.94999999999993 258.19999999999993 C 304.0899999999999 257.7799999999999 304.2799999999999 257.36999999999995 304.49999999999994 256.8399999999999 C 305.49999999999994 257.3399999999999 305.49999999999994 258.24999999999994 305.74999999999994 258.99999999999994 C 308.60999999999996 267.71999999999997 311.50999999999993 276.43999999999994 314.2699999999999 285.19999999999993 C 314.3511586888522 285.7963982988509 314.66995594437367 286.3346637028445 315.1539464505965 286.6924776957719 C 315.6379369568194 287.0502916886993 316.2460159234234 287.1972655150708 316.8399999999999 287.0999999999999 C 324.9599999999999 287.0299999999999 333.06999999999994 287.0999999999999 341.18999999999994 287.00999999999993 C 343.18999999999994 287.00999999999993 345.12999999999994 287.67999999999995 347.13999999999993 286.93999999999994 L 347.3299999999999 287.47999999999996 C 345 289.24 342.68 291.07 340.31 292.78 Z" stroke-linecap="round" />
</g>
		<g transform="matrix(1 0 0 1 -15.93 -92.57)"  >
<path style="stroke: none; stroke-width: 1; stroke-dasharray: none; stroke-linecap: butt; stroke-dashoffset: 0; stroke-linejoin: miter; stroke-miterlimit: 4; fill: rgb(255,255,255); fill-rule: nonzero; opacity: 1;" vector-effect="non-scaling-stroke"  transform=" translate(-286.12, -207.41)" d="M 279.9 200 C 276.59 201.32 275.2 204 276.27 207.09 C 278.15 212.51 286.59 216.76 291.95 214.99 C 294.47999999999996 214.16 296.39 211.82000000000002 296.32 209.5 C 296.32 209.39 296.32 209.16 296.26 208.94 C 295 202.78 285.69 197.69 279.9 200 Z" stroke-linecap="round" />
</g>
		<g transform="matrix(1 0 0 1 -24.06 -113.22)"  >
<path style="stroke: none; stroke-width: 1; stroke-dasharray: none; stroke-linecap: butt; stroke-dashoffset: 0; stroke-linejoin: miter; stroke-miterlimit: 4; fill: rgb(255,255,255); fill-rule: nonzero; opacity: 1;" vector-effect="non-scaling-stroke"  transform=" translate(-277.98, -186.76)" d="M 281.73 194.66 C 286.32 194.10999999999999 290.23 191.04999999999998 286.82 185.34 C 284.26 181.07 280.15999999999997 179.25 275.34 178.8 C 274.79999999999995 178.8 274.26 178.8 273.72999999999996 178.8 C 269.34999999999997 179.19 266.72999999999996 183 268.31999999999994 186.66000000000003 C 270.3 191.26 276.77 195.26 281.73 194.66 Z" stroke-linecap="round" />
</g>
		<g transform="matrix(1 0 0 1 113.39 -23.99)"  >
<path style="stroke: none; stroke-width: 1; stroke-dasharray: none; stroke-linecap: butt; stroke-dashoffset: 0; stroke-linejoin: miter; stroke-miterlimit: 4; fill: rgb(255,255,255); fill-rule: nonzero; opacity: 1;" vector-effect="non-scaling-stroke"  transform=" translate(-415.44, -275.99)" d="M 407.58 280.49 C 408.63 285.49 412.58 287.57 416.58 285.09000000000003 C 421.06 282.27000000000004 423.01 277.92 423.43 272.78000000000003 C 423.4500014874313 272.3935919924925 423.4500014874313 272.00640800750756 423.43 271.62 C 423.01 268.19 419.79 264.37 415.24 266.41 C 410.69 268.45000000000005 406.58 275.8 407.58 280.49 Z" stroke-linecap="round" />
</g>
		<g transform="matrix(1 0 0 1 -92.56 16.14)"  >
<path style="stroke: none; stroke-width: 1; stroke-dasharray: none; stroke-linecap: butt; stroke-dashoffset: 0; stroke-linejoin: miter; stroke-miterlimit: 4; fill: rgb(255,255,255); fill-rule: nonzero; opacity: 1;" vector-effect="non-scaling-stroke"  transform=" translate(-209.48, -316.12)" d="M 210.08 325.33 C 211.96414189138451 324.29842378166524 213.56474914442597 322.81803381157755 214.74 321.02 C 216.9 317.46 218.37 313.76 216.62 309.52 C 215.42000000000002 306.60999999999996 212.9 305.34999999999997 209.96 306.29999999999995 C 205.26000000000002 307.8299999999999 201.58 313.35999999999996 201.57 318.88999999999993 C 201.57 319.42999999999995 201.57 319.9699999999999 201.57 320.50999999999993 C 201.79 324 205.42 328.11 210.08 325.33 Z" stroke-linecap="round" />
</g>
		<g transform="matrix(1 0 0 1 -113.41 24.31)"  >
<path style="stroke: none; stroke-width: 1; stroke-dasharray: none; stroke-linecap: butt; stroke-dashoffset: 0; stroke-linejoin: miter; stroke-miterlimit: 4; fill: rgb(255,255,255); fill-rule: nonzero; opacity: 1;" vector-effect="non-scaling-stroke"  transform=" translate(-188.64, -324.29)" d="M 196.62 321.3 C 196.64499088939476 320.84033942638735 196.64499088939476 320.3796605736126 196.62 319.92 C 196.1 315.35 192.35 313.02000000000004 188.28 314.72 C 183.91 316.54 179.85 324.09000000000003 180.77 328.72 C 181.77 333.72 185.77 335.85 189.71 333.39000000000004 C 194.12 330.6 196.11 326.34 196.62 321.3 Z" stroke-linecap="round" />
</g>
		<g transform="matrix(1 0 0 1 16.13 92.81)"  >
<path style="stroke: none; stroke-width: 1; stroke-dasharray: none; stroke-linecap: butt; stroke-dashoffset: 0; stroke-linejoin: miter; stroke-miterlimit: 4; fill: rgb(255,255,255); fill-rule: nonzero; opacity: 1;" vector-effect="non-scaling-stroke"  transform=" translate(-318.18, -392.8)" d="M 327.86 397 C 329.07 394.73 327.78000000000003 392.81 326.74 391 C 326.06911768966825 389.96027315488817 325.2031644739604 389.0603609895447 324.19 388.35 C 320.67 385.63 316.83 384.02000000000004 312.26 385.25 C 310.6698407881103 385.60491377778163 309.3224770966667 386.65387531926837 308.5884205618733 388.1084306164447 C 307.8543640270799 389.5629859136211 307.8109070985081 391.269977632376 308.46999999999997 392.76 C 310.27 397.09999999999997 315.96999999999997 400.76 321.03 400.76 C 324 400.72 326.41 399.7 327.86 397 Z" stroke-linecap="round" />
</g>
		<g transform="matrix(1 0 0 1 24.18 113.54)"  >
<path style="stroke: none; stroke-width: 1; stroke-dasharray: none; stroke-linecap: butt; stroke-dashoffset: 0; stroke-linejoin: miter; stroke-miterlimit: 4; fill: rgb(255,255,255); fill-rule: nonzero; opacity: 1;" vector-effect="non-scaling-stroke"  transform=" translate(-326.23, -413.52)" d="M 323.42 405.6 C 322.95 405.6 322.49 405.6 322.03000000000003 405.6 C 317.12 405.99 314.58000000000004 410.36 317.03000000000003 414.42 C 319.4836893032151 418.5885079935642 323.8868765359272 421.2251470550684 328.72 421.42 C 331.61 421.61 334.43 420.77000000000004 335.86 417.82 C 337.06 415.34 335.93 413.06 334.48 411.21 C 331.8478639696604 407.74388800740405 327.7715809302861 405.67626161943934 323.42 405.6 Z" stroke-linecap="round" />
</g>
		<g transform="matrix(1 0 0 1 92.62 -15.89)"  >
<path style="stroke: none; stroke-width: 1; stroke-dasharray: none; stroke-linecap: butt; stroke-dashoffset: 0; stroke-linejoin: miter; stroke-miterlimit: 4; fill: rgb(255,255,255); fill-rule: nonzero; opacity: 1;" vector-effect="non-scaling-stroke"  transform=" translate(-394.66, -284.09)" d="M 393.91 274.86 C 390.17 277.1 388.26000000000005 280.51 387.08000000000004 284.53000000000003 C 386.43064969481725 286.75565996344926 386.6932903363965 289.14820827372586 387.81000000000006 291.18 C 389.26000000000005 293.99 391.94000000000005 295.07 394.71000000000004 293.66 C 399.71000000000004 291.12 402.18000000000006 286.88000000000005 402.57000000000005 281.35 C 402.6000037648426 280.81375269322683 402.6000037648426 280.2762473067732 402.57000000000005 279.74 C 402.12 275.38 398.27 272.24 393.91 274.86 Z" stroke-linecap="round" />
</g>
</g>
</g>
</svg>