<svg xmlns="http://www.w3.org/2000/svg" viewBox="0 0 190.78 56.92"><defs><style>.cls-1{fill:#fff;}</style></defs><g id="Capa_2" data-name="Capa 2"><g id="Capa_1-2" data-name="Capa 1"><path class="cls-1" d="M162.7,34.69a1.51,1.51,0,0,1-1.39-.92,62.35,62.35,0,0,0-3.18-6.39,18.16,18.16,0,0,0-13.26-8.14c-5.43-.54-10.76,1.52-15,5.79a1.51,1.51,0,0,1-2.12,0,1.49,1.49,0,0,1,0-2.12c4.91-4.92,11.1-7.28,17.44-6.65a21.08,21.08,0,0,1,15.46,9.46,62.9,62.9,0,0,1,3.46,6.9,1.5,1.5,0,0,1-.81,2A1.44,1.44,0,0,1,162.7,34.69Z"/><path class="cls-1" d="M170.3,34.75c-2.84,0-5.44,0-7.63-.06a1.5,1.5,0,0,1,0-3h0c4.27.09,10.11.06,16.3,0,3.33,0,6.8,0,10.26,0a1.5,1.5,0,1,1,0,3c-3.46,0-6.92,0-10.25,0Z"/><path class="cls-1" d="M4.23,56.92a7.48,7.48,0,0,1-3.4-.69,1.5,1.5,0,0,1,1.34-2.69,6.34,6.34,0,0,0,3.08.36l1.17,0q7.89,0,15.78,0H40.25c1.58,0,3.38,0,3.62-.24s.38-2.35.43-4.46l0-.73c.22-7.84,3.1-13.71,8.83-18,7.65-5.68,15.31-7.41,23.34-5.26C78.57,15.2,80,11.6,85.07,7.09a27,27,0,0,1,20.67-7,25.48,25.48,0,0,1,18,10.51c3,4.13,4.36,7.6,6,13.36a1.5,1.5,0,0,1-2.88.82c-1.58-5.52-2.75-8.62-5.54-12.4a22.54,22.54,0,0,0-15.92-9.31A24,24,0,0,0,87.08,9.32c-4.46,4-5.73,6.88-8,18.12a1.49,1.49,0,0,1-1.94,1.13C69.43,26,62.36,27.4,54.94,32.91c-4.94,3.66-7.43,8.78-7.62,15.63l0,.73c-.18,6.71-.66,7.67-7.08,7.62h-18q-7.89,0-15.79,0a8.85,8.85,0,0,0-1,0Q4.81,56.92,4.23,56.92Z"/><path class="cls-1" d="M49.73,34.69h-.22a37.35,37.35,0,0,0-4.26-.4q-8.89,0-17.79,0h-6.3a1.5,1.5,0,0,1,0-3h6.3q8.9,0,17.8,0a39.92,39.92,0,0,1,4.68.43,1.5,1.5,0,0,1-.21,3Z"/><path class="cls-1" d="M80.65,14.6c-3.73,0-7.16-.11-10.79-.23-3.83-.13-7.79-.26-12.32-.26a1.5,1.5,0,0,1,0-3c4.58,0,8.56.13,12.41.26,3.61.12,7,.23,10.7.23a1.5,1.5,0,0,1,0,3Z"/></g></g></svg>