<svg width="200" height="200" viewBox="0 0 200 200" fill="none" xmlns="http://www.w3.org/2000/svg">
  <circle cx="100" cy="100" r="100" fill="#E6F0FF"/>
  <path d="M100 105C117.673 105 132 90.6731 132 73C132 55.3269 117.673 41 100 41C82.3269 41 68 55.3269 68 73C68 90.6731 82.3269 105 100 105Z" fill="#4C7BD0"/>
  <path d="M100 112C66.863 112 40 138.863 40 172C40 172 63.7868 184 100 184C136.213 184 160 172 160 172C160 138.863 133.137 112 100 112Z" fill="#4C7BD0"/>
  <!-- Eyes -->
  <ellipse cx="88" cy="70" rx="4" ry="5" fill="white"/>
  <ellipse cx="112" cy="70" rx="4" ry="5" fill="white"/>
  <circle cx="88" cy="70" r="2" fill="#333333"/>
  <circle cx="112" cy="70" r="2" fill="#333333"/>
  <!-- Optional short hair details -->
  <path d="M68 65C68 65 65 50 75 43C85 36 100 41 100 41" stroke="#3A67B0" stroke-width="2"/>
  <path d="M132 65C132 65 135 50 125 43C115 36 100 41 100 41" stroke="#3A67B0" stroke-width="2"/>
</svg> 