<?xml version="1.0" encoding="UTF-8" standalone="no"?>
<svg
   id="Capa_2"
   data-name="Capa 2"
   viewBox="0 0 1080 796.36"
   version="1.1"
   sodipodi:docname="flisol_logo_original_azul-01.svg"
   inkscape:version="1.4.2 (ebf0e940d0, 2025-05-08)"
   xmlns:inkscape="http://www.inkscape.org/namespaces/inkscape"
   xmlns:sodipodi="http://sodipodi.sourceforge.net/DTD/sodipodi-0.dtd"
   xmlns="http://www.w3.org/2000/svg"
   xmlns:svg="http://www.w3.org/2000/svg">
  <sodipodi:namedview
     id="namedview30"
     pagecolor="#505050"
     bordercolor="#eeeeee"
     borderopacity="1"
     inkscape:showpageshadow="0"
     inkscape:pageopacity="0"
     inkscape:pagecheckerboard="0"
     inkscape:deskcolor="#505050"
     inkscape:zoom="0.72898523"
     inkscape:cx="622.78354"
     inkscape:cy="550.76562"
     inkscape:window-width="1920"
     inkscape:window-height="1030"
     inkscape:window-x="0"
     inkscape:window-y="26"
     inkscape:window-maximized="1"
     inkscape:current-layer="Capa_2" />
  <defs
     id="defs1">
    <style
       id="style1">.cls-1{fill:none;}.cls-2,.cls-4{fill:#4d7bd1;}.cls-3{clip-path:url(#clip-path);}.cls-4{isolation:isolate;font-size:49.35px;font-family:Ubuntu-Regular, Ubuntu;}.cls-5{letter-spacing:-0.01em;}.cls-6{letter-spacing:0em;}</style>
    <clipPath
       id="clip-path">
      <rect
         class="cls-1"
         x="609.65"
         y="128.84"
         width="407.03"
         height="409.43"
         id="rect1" />
    </clipPath>
  </defs>
  <path
     class="cls-2"
     d="M516.27,279.11a188.88,188.88,0,0,0-51.81-.49c-21.62,2.58-34.87,19.43-34.88,41.39,0,26.3-.09,52.6,0,78.92.08,18.35,13.45,34.9,31.63,39.57,15.72,2.58,31.57.72,47.38,1.29,23.78.9,41.64-20.88,41.4-41-.27-23.34-.46-46.69.09-70,.31-13.23-1.29-25.54-9.75-36.22a40.1,40.1,0,0,0-24.06-13.42ZM519.55,397c0,8.13-4.6,12.86-12.63,13-11.94.18-23.91,0-35.86.09a10.45,10.45,0,0,1-6.55-2.1c-3.64-2.71-4.49-6.62-4.49-10.8,0-24.82-.18-49.64,0-74.46.11-10.48,5.15-15.44,15.56-15.25,12.57.27,25.2-1.44,37.71,1.17,4.67,2.16,6.26,6.05,6.26,10.92C519.58,345.38,519.65,371.21,519.55,397Z"
     id="path1" />
  <path
     class="cls-2"
     d="M411.72,347.84c-5.46-6.43-12.65-10.74-19.6-15.29-12.31-8.07-25.15-15.36-36.24-25.18a23.37,23.37,0,0,1-6.54-8.19c-3.75-7.28-4-15.13-4-23.16,0-9.5,4.44-15.81,12.61-19.88A34.53,34.53,0,0,1,375.2,252c8.57.34,17.15-.17,25.73.17,6.69.26,11.68-1.82,14.74-8,2.89-5.82,1.29-10.77-2.78-15.28a19.59,19.59,0,0,0-13-4.38c-10.7,0-21.41-.59-32.08-.06-27,1.27-48,19.72-50.78,45.56-2.68,25.17,4.76,46.95,25.73,62.72,5,3.72,10.3,7,15.36,10.47,10.76,7.33,22.54,13.24,31.83,22.61,7.34,7.43,9,19.3,4.41,29.78-4.5,10.15-13.45,16.06-24.21,15.76s-21.78-.9-32.68-1.1a13.13,13.13,0,0,0-11.15,5.56,12.57,12.57,0,0,0-1.88,3.88,13.31,13.31,0,0,0-.55,4.44,13.47,13.47,0,0,0,.94,4.38,13.66,13.66,0,0,0,2.3,3.84,13.43,13.43,0,0,0,3.42,2.87c1.63,1,3.34,1.9,5,2.82,8.47.91,17,.14,25.51.86s16.94,1,25.28-1.29c30.24-8.17,47.53-44.89,34.73-74.69C418.77,357.48,414.9,352.87,411.72,347.84Z"
     id="path2" />
  <path
     class="cls-2"
     d="M157.58,222.61c-7.49.29-15,0-22.48.1a54.76,54.76,0,0,0-17.75,3.17,54.57,54.57,0,0,0-22.32,15,55.53,55.53,0,0,0-5.45,7.22,54.48,54.48,0,0,0-7,16.63c-3.09,13.46-1.8,27.26-1.92,40.92,0,3.43-.66,5.63-4.09,7.66-9.61,5.67-9.73,18.34-.26,24.44,3.46,2.21,4.37,4.54,4.36,8.29-.12,24.44.18,48.8-.18,73.18C80.37,429.7,83.92,437,94,440.66c14.92-2.56,17.61-5.81,17.65-21.16v-6.44c0-22,.1-44-.08-66,0-4.7,1.4-6.43,6.22-6.35,12.6.23,25.2,0,37.81.12,6.14.07,10-2.93,12.76-8,3.31-6.1,1.78-11.52-2.2-16.63a22.18,22.18,0,0,0-15.32-5c-12.4.19-24.81,0-37.21-.08-1.8-1.28-2-3.11-2-5.14-.1-10.05-.36-20.09.07-30.11.48-10.71,8.92-19.87,19.75-22.46,9.71-2.33,19.55-1.29,29.31-1.18,6.92,0,12-2,15.37-8.14s1.41-11.48-2.43-16.55a23.61,23.61,0,0,0-16.11-4.87Z"
     id="path3" />
  <path
     class="cls-2"
     d="M259.22,410c-7,.27-14,0-21,.08-6.59.08-12.56-1.45-17.39-6.22-7.46-6.18-9-14.76-9-23.62q-.22-68.34,0-136.65c0-5.15-.11-10.29-2.27-15-1.36-2.15-3.85-2.65-5.86-3.71-11-5.78-22,.47-22.07,12.79-.12,49.48-.36,99,.11,148.43.23,23.7,17,45.51,44.13,52.49,13.14,2.22,26.4,1,39.6,1.21a10.2,10.2,0,0,0,6.43-2.48c7.34-5.5,8.36-12.57,3.17-22.08a22.67,22.67,0,0,0-7.45-4.11A22.44,22.44,0,0,0,259.22,410Z"
     id="path4" />
  <path
     class="cls-2"
     d="M649.44,415.57a17,17,0,0,0-13.7-5.52c-7.9.16-15.79,0-23.7.06a23.56,23.56,0,0,1-19-8.69c-4.36-5.92-5.9-12.5-5.88-19.86.16-46.44.08-92.89.08-139.33,0-4.72,0-9.46-3.64-13.17-4-5.25-11.09-7.72-16.84-5.89-6.43,2-9.9,7.12-9.9,14.72,0,47.67.65,95.35-.28,143-.53,27.93,17.44,50.54,45.24,58.48,11.74.62,23.5.39,35.25.49,6.6,0,11.58-2.43,14.71-8.39S653.74,420.29,649.44,415.57Z"
     id="path5" />
  <path
     class="cls-2"
     d="M307.62,226.17a16.13,16.13,0,0,0-7.24-3.8c-10.63-2.11-18,4.58-18,16.61,0,60.11.11,120.23-.15,180.35,0,9.75,3,16.57,12.23,20.18,12.87.11,18.84-5.15,18.86-17.54q.18-91.41,0-182.83C313.34,234,311.8,229.5,307.62,226.17Z"
     id="path6" />
  <g
     class="cls-3"
     clip-path="url(#clip-path)"
     id="g7">
    <path
       class="cls-2"
       d="M1013.35,398.2c-3.22-2.57-6.25-5.36-9.35-8.07-14-12.17-28-24.44-42.08-36.51-5.43-4.67-11.24-4.56-16.52.19a269.24,269.24,0,0,0-32.6,34.91c-3,3.86-2.88,7.95.59,11.37,7.71,7.73,15.43,15.27,23.43,22.72,3.86,3.69,8,3.52,11.76-.26,7.42-7.52,14.73-15.15,22-22.8.75-.8,2.57-1.58,1-3.34s-2.49-.1-3.41.6c-7.94,5.94-15.89,11.89-23.69,18-1.68,1.29-2.57,1.06-3.86-.27-6.26-6.14-12.56-12.24-19-18.21-1.82-1.68-1.89-2.66,0-4.43q14.68-14,29.14-28.19c1.6-1.58,2.44-1.18,3.79.14,4.23,4.13,8.57,8.16,12.86,12.24,10.73,10.17,21.39,20.4,32.23,30.48,1.9,1.77,1.88,2.64,0,4.31-9,8.18-17.84,16.48-26.77,24.71-9.31,8.59-18.7,17.11-27.91,25.73-1.87,1.76-2.84,1.49-4.5-.19q-24.06-24.12-48.31-48.05c-2-1.95-2.22-3-.12-5.14a105.39,105.39,0,0,0,11.6-14,103.6,103.6,0,0,0,18.08-50.78c.38-4.36.86-4.81,5.3-4.95,6-.21,12-.24,18-.49,12.3-.5,24.61-.76,36.91-1.36,10-.49,20-.58,30-.7a3.24,3.24,0,0,0,1.31-.12,3.19,3.19,0,0,0,2-1.67,3,3,0,0,0,.32-1.27,77.18,77.18,0,0,0,1.71-8.9c.43-5.68,1.19-11.49-1.28-17-1.68-3.78-4.17-5.14-8.34-4.77-3.48.33-5.3,2.57-6.25,5.79a23.91,23.91,0,0,0-.72,12.39c.9,4.17,0,5.15-4.35,5.27-3.46.14-6.92.41-10.37.71-8.76.8-17.5,1.66-26.26,2.45-5.55.51-11.09.91-16.62,1.41q-9,.82-18.13,1.77c-1.95.21-2.68-.34-2.8-2.57a105.56,105.56,0,0,0-14.57-49.19,2.49,2.49,0,0,1-.47-.86,2.37,2.37,0,0,1-.09-1,2.6,2.6,0,0,1,.3-.93,2.33,2.33,0,0,1,.66-.74c6.9-7.13,13.69-14.37,20.57-21.55q17.1-17.83,34.21-35.68c6.27-6.56,6-18.45-.41-24.44Q942.64,176.67,923,158.2c-8.55-8-17.1-16-25.73-23.93-5.81-5.31-12.59-5-17.88.78-4.34,4.75-8.47,9.69-12.7,14.56-10.86,12.5-21.81,24.95-32.56,37.56-4.65,5.44-4.34,10.89.37,16.19A263.5,263.5,0,0,0,868.11,235c5.52,4.37,9,4.21,14-.85q10.42-10.65,20.73-21.39c4.43-4.64,4.36-8.63-.27-13.16q-11.12-10.86-22.37-21.55c-.72-.68-1.2-2.5-3-1s-.58,2.26.26,3.36c6,7.89,12,15.83,18,23.69,1.19,1.54,1.48,2.57-.13,4.18q-9.27,9.33-18.22,19c-1.5,1.61-2.35,2-4.12.16-9.41-9.85-19-19.57-28.54-29.27-1.29-1.37-1.4-2.12,0-3.54q21.87-22.9,43.62-46c1.21-1.28,1.91-1.18,3,0,3.11,3.44,6.32,6.8,9.48,10.21q21,22.66,42,45.28c1.46,1.57,1.29,2.45-.12,3.86q-24.75,24.79-49.27,49.57c-1.37,1.37-2.07,1.37-3.46,0a105.45,105.45,0,0,0-31.88-21.37,110,110,0,0,0-36-8.61c-1.49-.13-2.08-.43-2.31-2.13-1.07-8.05-.57-16.18-1-24.25-.63-12.28-1-24.6-1.29-36.91-.23-9.16-1-18.31-.76-27.47,0-2.13-.77-2.85-2.77-3.34a105.73,105.73,0,0,0-14.6-2.25A21,21,0,0,0,787,133.53a7.57,7.57,0,0,0-4.21,6.56c-.3,4.4,2.58,7,8.07,8.36,4.26,1,8.36,0,12.52-.15,2.18-.06,2.83.52,2.92,2.77.23,6,.74,11.93,1.29,17.89,1,10.53,2.08,21,3.05,31.57.74,8.36,1.16,16.72,2.11,25.07.25,2.13-.48,2-1.84,2.06-3,.23-6.09.46-9.13.86a103.52,103.52,0,0,0-40,13.77c-1.61.93-2.58.68-3.77-.56-4.58-4.54-9.29-8.94-13.94-13.39q-22-21-44-42c-6.32-6-18.27-5.9-23.92.17l-32.88,35.18c-9.38,10-18.8,20-28.14,30.08-5.06,5.46-4.85,13.28.34,17.79l51.86,45c5.61,4.87,11.17,5,16.73.09a256.34,256.34,0,0,0,31.89-33.82c4.27-5.41,4-8.92-1-13.75-7-6.85-14.15-13.66-21.19-20.49-5.14-4.94-8.55-5-13.49.08q-10.72,11-21.33,22.13c-.73.78-2.37,1.29-1,3s2.29.52,3.34-.28q11.73-8.91,23.47-17.77c1-.79,2-2.25,3.7-.55,6.69,6.6,13.49,13.09,20.28,19.59,1,.91,1.14,1.52.08,2.57q-15.2,14.7-30.36,29.57c-1,1-1.59.91-2.57,0q-23.16-22-46.5-44c-1.48-1.4-.94-2.09.25-3.19,6.43-5.85,12.69-11.77,19-17.65l36.24-33.6c1.52-1.44,2.44-1.36,3.86.11,4.63,4.78,9.4,9.43,14.15,14.15,11.89,11.86,23.76,23.76,35.72,35.55,1.67,1.65,1.88,2.67,0,4.25a40.71,40.71,0,0,0-4.55,4.83c-14.88,18-23.38,38.59-24.8,62-.11,1.7-.8,2-2.33,2.15-9.44.76-18.91.66-28.31,1.06q-18.1.83-36.27,1.29c-8.31.23-16.61.83-24.94.72-2.1,0-2.93.7-3.35,2.75A79.88,79.88,0,0,0,612,351.25c0,4.35.25,8.76,3.35,12.41a7.21,7.21,0,0,0,1.26,1.27,7.43,7.43,0,0,0,1.54.91,7.29,7.29,0,0,0,1.71.5,7.09,7.09,0,0,0,1.78.05,6.85,6.85,0,0,0,1.74-.38,7.76,7.76,0,0,0,1.6-.81,7.18,7.18,0,0,0,1.34-1.18,6.76,6.76,0,0,0,1-1.48,20.36,20.36,0,0,0,2.2-8.73c.19-3-.76-5.84-.69-8.8,0-1.17.12-2,1.63-2.06,4.92-.33,9.81-.83,14.73-1.28,5.85-.48,11.72-.86,17.57-1.37,9-.78,17.93-1.65,26.9-2.47,5.43-.49,10.9-.73,16.26-1.59,2.57-.41,3.32,0,3.4,2.57a101.74,101.74,0,0,0,13.54,47.52c1.18,2.08.91,3.23-.66,4.86q-27.57,28.67-55,57.43a17.34,17.34,0,0,0-2.11,2.7,17.79,17.79,0,0,0-1.54,3.05,18.05,18.05,0,0,0-.92,3.31,17.69,17.69,0,0,0-.26,3.41,17.93,17.93,0,0,0,1.48,6.66,17.6,17.6,0,0,0,1.68,3,17.15,17.15,0,0,0,2.22,2.6c9.66,9.15,19.42,18.2,29.11,27.31,11.71,11,23.36,22,35.09,33,5.88,5.51,13.56,5.26,18.51-.44q22.4-25.82,44.81-51.62c4.7-5.4,4.79-11.45,0-16.8a266.24,266.24,0,0,0-34.74-32.39c-4-3.14-8.11-3.11-11.57.45Q737.32,444.52,726,456.5c-3.09,3.27-3.35,7.52-.29,10.57,8.06,8.08,16.39,15.87,24.6,23.79.7.68,1.29,1,2.08.13.62-.69,1.54-1.29.5-2.32a18.64,18.64,0,0,1-1.28-1.78c-5.87-7.72-11.69-15.44-17.63-23.16-1-1.29-1.28-2.08,0-3.41q9.57-9.7,18.91-19.6c1.4-1.48,2.25-1.63,3.75,0q14.22,14.89,28.62,29.58c1,1.08,1.38,1.72.14,3Q763.75,496,742.29,518.9c-1.84,2-2.75,1.89-4.54,0q-23.55-25.72-47.28-51.21c-5.08-5.49-5.14-5.47.08-10.66,15.22-15.26,30.48-30.49,45.61-45.82,2.05-2.08,3.4-3,5.64-.24a37.65,37.65,0,0,0,5.85,5.29,107.08,107.08,0,0,0,13.49,9.5,105.82,105.82,0,0,0,14.79,7.31A106.92,106.92,0,0,0,791.68,438,105.79,105.79,0,0,0,808,440.46c1.76.13,1.89.89,2.1,2.34,1.16,8.06.58,16.17,1,24.25.65,12.39,1,24.81,1.29,37.23.21,9.25,1.07,18.52.75,27.79a2.11,2.11,0,0,0,0,1,2.32,2.32,0,0,0,.44.89,2.42,2.42,0,0,0,.77.62,2.21,2.21,0,0,0,1,.24c5.37.87,10.62,2.58,15.93,2.12,3.85.08,7.34.16,10.64-1.66,3.77-2.07,5.44-4.86,4.93-8.58-.38-2.92-3.69-5.66-7.4-6.36a31.32,31.32,0,0,0-12.5,0c-2.43.53-3.69-.25-3.61-3.14a96.84,96.84,0,0,0-.65-10.36c-.79-9-1.65-17.94-2.47-26.91-.45-5.22-.88-10.43-1.28-15.66-.62-7-1.2-14-1.88-21-.21-2.12.61-2.67,2.65-2.71a101.9,101.9,0,0,0,48.45-13.68,2.59,2.59,0,0,1,1-.52,2.87,2.87,0,0,1,1.13-.1,3,3,0,0,1,1.07.36,3,3,0,0,1,.84.75q28.3,27.24,56.76,54.34a16.58,16.58,0,0,0,2.71,2.16,17.28,17.28,0,0,0,3.07,1.61,17.49,17.49,0,0,0,3.34,1,17.27,17.27,0,0,0,3.44.31,18,18,0,0,0,3.45-.38,17.42,17.42,0,0,0,3.31-1,17.55,17.55,0,0,0,5.7-3.89c9.59-10.1,19.07-20.33,28.62-30.49,10.47-11.15,20.92-22.36,31.46-33.45C1019,412.18,1020.2,403.69,1013.35,398.2Zm-131-80.31c-12.71,8.68-25.4,17.4-38.16,26-1.77,1.21-.84,2.41-.45,3.56q6.75,19.77,13.57,39.48c.39,1.15,1.28,2.25.6,4-2.58-1.66-5-3.21-7.38-4.84q-16-10.85-31.93-21.75a3.24,3.24,0,0,0-1-.64,3.36,3.36,0,0,0-2.39,0,3.29,3.29,0,0,0-1,.64C802,372.73,789.74,381,777.51,389.28c-.85.56-1.74,1.09-2.57,1.65-.71-1.28,0-2.27.29-3.24,4.63-13.45,9.22-26.93,14-40.35.75-2.09.16-2.94-1.49-4Q769.51,331,751.38,318.46c-.79-.54-2.35-.85-1.93-2.13s1.86-.61,2.82-.61c14.89,0,29.78-.11,44.68,0,2.45,0,3.45-.81,4.2-3.07,4.4-13.08,9-26.13,13.52-39.16.36-1,.33-2.69,1.7-2.76s1.42,1.62,1.78,2.57c4.57,13,9.16,26.06,13.58,39.15.79,2.4,1.8,3.24,4.4,3.22,15.2-.13,30.42,0,45.63,0,.82,0,2.07-.67,2.37.72S883,317.46,882.39,317.89Z"
       id="path7" />
  </g>
  <path
     class="cls-2"
     d="M784.87,197.25c-4.13,1.43-7,5.57-5.34,9.83,2.74,7.21,13.72,13,21.18,10.85,3.36-1,6.16-4.25,6.19-7.46a3,3,0,0,0-.14-1C804.89,201.31,792.76,194.51,784.87,197.25Z"
     id="path8" />
  <path
     class="cls-2"
     d="M792.63,188.38c6.42-.67,12.23-4.95,7.34-13.3-3.74-6.36-9.79-9.07-17-9.58h-2c-6.22.49-10.08,5.86-8,11.07C776.09,184.28,785.73,189.12,792.63,188.38Z"
     id="path9" />
  <path
     class="cls-2"
     d="M959.22,305.15v1.29c.53,6.63,5.53,10.12,11.21,7.79,6.17-2.58,11.8-13.17,10.28-19.64-1.28-5.15-5.76-9.54-12-5.83S960,298.25,959.22,305.15Z"
     id="path10" />
  <path
     class="cls-2"
     d="M688.59,368.8c6.86-3.44,9.48-9.57,10.54-16.66a10.35,10.35,0,0,0-1.08-4.54c-1.67-4.55-5.14-6.33-9.6-4.76-7.54,2.66-13,13.93-10.38,21.5C679.77,369.36,683.91,371.15,688.59,368.8Z"
     id="path11" />
  <path
     class="cls-2"
     d="M669.51,363.3v-1.9c-.38-4.64-5-10-11-7.29S646.63,366.9,648,373.31c1.41,6.68,6.58,9.54,12,6.34C666.08,376,668.66,370.13,669.51,363.3Z"
     id="path12" />
  <path
     class="cls-2"
     d="M849.91,466.73c1.82-3.07,0-5.7-1.38-8.21a12.91,12.91,0,0,0-3.46-3.64c-4.79-3.73-10-6-16.26-4.31a7.55,7.55,0,0,0-1.54.52,7.21,7.21,0,0,0-1.4.86,6.53,6.53,0,0,0-1.16,1.13,6.82,6.82,0,0,0-.9,1.36,7.61,7.61,0,0,0-.57,1.53,7.26,7.26,0,0,0-.21,1.62,6.7,6.7,0,0,0,.14,1.61,7.07,7.07,0,0,0,.49,1.56c2.49,5.94,10.23,10.84,17.16,10.84a9.19,9.19,0,0,0,2.72-.16,9.73,9.73,0,0,0,2.55-.92,9.58,9.58,0,0,0,3.82-3.79Z"
     id="path13" />
  <path
     class="cls-2"
     d="M845.47,478.45c-6.06,0-9.34,1.48-10.77,4.61-1.65,3.62-.17,6.55,2.09,9.5a16.78,16.78,0,0,0,3.86,3.52c5.15,3.47,10.6,5.51,16.73,2.58a7.44,7.44,0,0,0,1.23-.69,7,7,0,0,0,1.92-2,7.74,7.74,0,0,0,.6-1.27,6.51,6.51,0,0,0,.33-1.37,6,6,0,0,0,0-1.41,6.43,6.43,0,0,0-.24-1.38,7.87,7.87,0,0,0-.52-1.32,19.12,19.12,0,0,0-2.61-4.12,18.38,18.38,0,0,0-3.59-3.29,18.2,18.2,0,0,0-4.32-2.27A18.52,18.52,0,0,0,845.47,478.45Z"
     id="path14" />
  <path
     class="cls-2"
     d="M940.52,299.67c-5.23,3.14-7.87,7.82-9.51,13.43a11.61,11.61,0,0,0-.36,4.62,11.4,11.4,0,0,0,1.49,4.38c1.94,3.68,5.53,5.15,9.17,3.26,6.8-3.47,10.29-9.24,10.76-16.73a16.3,16.3,0,0,0,0-2.21C951.44,300.14,945.91,296.44,940.52,299.67Z"
     id="path15" />
  <path
     class="cls-2"
     d="M104.41,492.54c-5.59,0-9.62,1.43-12.11,4.26s-3.7,6.74-3.7,11.68a22.33,22.33,0,0,0,.9,6.56,14.12,14.12,0,0,0,2.77,5,12.46,12.46,0,0,0,4.64,3.28,16.36,16.36,0,0,0,6.43,1.17c1.34,0,2.47,0,3.4-.06a19.35,19.35,0,0,0,2.5-.31v-17h12v24.21a47.85,47.85,0,0,1-6.91,1.66,65.61,65.61,0,0,1-11.73.89,33.21,33.21,0,0,1-10.88-1.69,23.56,23.56,0,0,1-8.33-4.93,22.06,22.06,0,0,1-5.34-8,29.35,29.35,0,0,1-1.87-10.83,26.82,26.82,0,0,1,2.07-10.85,23.38,23.38,0,0,1,5.67-8,24.63,24.63,0,0,1,8.5-5A31.73,31.73,0,0,1,102.81,483a45.17,45.17,0,0,1,6.8.46,42,42,0,0,1,5.2,1.07,22.53,22.53,0,0,1,3.6,1.23,16.77,16.77,0,0,1,2,1L117,495.52a34.28,34.28,0,0,0-5.66-2.09A25.8,25.8,0,0,0,104.41,492.54Z"
     id="path16" />
  <path
     class="cls-2"
     d="M161.92,533.43a58.81,58.81,0,0,1-6.73,1.44,54.44,54.44,0,0,1-8.64.67,20.28,20.28,0,0,1-7.66-1.26,11.73,11.73,0,0,1-4.82-3.58,14,14,0,0,1-2.53-5.46,30.45,30.45,0,0,1-.75-7V497.56h9.58V517q0,5.1,1.43,7.36c1,1.5,2.81,2.24,5.47,2.24.82,0,1.69,0,2.6-.09s1.75-.16,2.47-.25V497.56h9.58Z"
     id="path17" />
  <path
     class="cls-2"
     d="M185.44,526.58c1,0,2,0,2.94-.06a18.08,18.08,0,0,0,2.27-.25v-8c-.43-.07-1.06-.17-1.9-.27a20,20,0,0,0-2.33-.16,20.5,20.5,0,0,0-2.79.19,7.93,7.93,0,0,0-2.3.67,4,4,0,0,0-1.56,1.35,3.73,3.73,0,0,0-.55,2.12,3.65,3.65,0,0,0,1.65,3.43A9.15,9.15,0,0,0,185.44,526.58Zm-.55-29.8a22.75,22.75,0,0,1,7.36,1,11.29,11.29,0,0,1,4.75,2.88,10.57,10.57,0,0,1,2.5,4.54,23,23,0,0,1,.73,6V532q-2.13.49-6,1.1a57.65,57.65,0,0,1-9.23.64,29.12,29.12,0,0,1-6.23-.61,12.89,12.89,0,0,1-4.77-2,9,9,0,0,1-3.09-3.58,12.63,12.63,0,0,1-1-5.44,10.27,10.27,0,0,1,1.22-5.21,9.61,9.61,0,0,1,3.32-3.44,14.46,14.46,0,0,1,4.74-1.83,26.44,26.44,0,0,1,5.59-.58,29.73,29.73,0,0,1,3.44.17,16.27,16.27,0,0,1,2.44.44v-.93a5.59,5.59,0,0,0-1.54-4.11c-1-1-2.82-1.54-5.36-1.54a33.77,33.77,0,0,0-5,.38,22,22,0,0,0-4.28,1l-1.28-8.06c.58-.17,1.31-.36,2.18-.55s1.82-.37,2.85-.53,2.1-.3,3.23-.4A33.32,33.32,0,0,1,184.89,496.78Z"
     id="path18" />
  <path
     class="cls-2"
     d="M243.18,497.56q-3.17,10.74-6.63,20.11T229,535.88a39,39,0,0,1-3,5.39,16.11,16.11,0,0,1-3.25,3.68,11.44,11.44,0,0,1-4,2.12,18,18,0,0,1-5.15.67,20.9,20.9,0,0,1-4.56-.46,19.47,19.47,0,0,1-3.41-1l1.81-8.4a19.6,19.6,0,0,0,2.88.77,16.79,16.79,0,0,0,2.7.21,5.78,5.78,0,0,0,4.32-1.53,12.19,12.19,0,0,0,2.61-4.2c-2.42-4.7-4.81-10-7.21-15.82A201.53,201.53,0,0,1,206,497.56h11.16q.71,2.76,1.65,6t2,6.46c.71,2.2,1.42,4.33,2.14,6.41s1.44,4,2.12,5.64q.88-2.53,1.87-5.64c.67-2.08,1.32-4.21,2-6.41s1.24-4.33,1.84-6.46,1.12-4.14,1.59-6Z"
     id="path19" />
  <path
     class="cls-2"
     d="M262.06,526.58c1,0,2,0,2.94-.06a18.08,18.08,0,0,0,2.27-.25v-8c-.43-.07-1.07-.17-1.9-.27a20.14,20.14,0,0,0-2.33-.16,20.5,20.5,0,0,0-2.79.19,7.84,7.84,0,0,0-2.3.67,4,4,0,0,0-1.56,1.35,3.73,3.73,0,0,0-.56,2.12,3.65,3.65,0,0,0,1.66,3.43A9.12,9.12,0,0,0,262.06,526.58Zm-.56-29.8a22.81,22.81,0,0,1,7.37,1,11.19,11.19,0,0,1,4.74,2.88,10.59,10.59,0,0,1,2.51,4.54,23,23,0,0,1,.73,6V532q-2.13.49-6,1.1a57.65,57.65,0,0,1-9.23.64,29.05,29.05,0,0,1-6.23-.61,12.89,12.89,0,0,1-4.77-2,8.94,8.94,0,0,1-3.09-3.58,12.63,12.63,0,0,1-1.05-5.44,10.27,10.27,0,0,1,1.23-5.21,9.66,9.66,0,0,1,3.31-3.44,14.61,14.61,0,0,1,4.75-1.83,26.37,26.37,0,0,1,5.59-.58,29.44,29.44,0,0,1,3.43.17,16.19,16.19,0,0,1,2.45.44v-.93a5.59,5.59,0,0,0-1.54-4.11c-1-1-2.82-1.54-5.36-1.54a34,34,0,0,0-5,.38,22.37,22.37,0,0,0-4.28,1l-1.28-8.06c.59-.17,1.31-.36,2.19-.55s1.82-.37,2.85-.53,2.1-.3,3.23-.4A33.12,33.12,0,0,1,261.5,496.78Z"
     id="path20" />
  <path
     class="cls-2"
     d="M297.09,515.64c0,6.73,2.5,10.08,7.51,10.08a12.07,12.07,0,0,0,3.19-.43,9.53,9.53,0,0,0,2.58-1v-19c-.52-.07-1.17-.15-2-.21s-1.67-.12-2.6-.12a7.65,7.65,0,0,0-6.53,2.94A12.67,12.67,0,0,0,297.09,515.64Zm-8.56.59a25.16,25.16,0,0,1,1.17-7.88,18,18,0,0,1,3.44-6.13,15.41,15.41,0,0,1,5.53-4,18.71,18.71,0,0,1,7.45-1.41q1.72,0,3.63.18c1.27.11,2.51.25,3.74.43s2.39.41,3.49.67,2.1.55,3,.83v48.9h-9.57v-14a17.57,17.57,0,0,1-3.35,1.2,15.82,15.82,0,0,1-3.72.42q-7.2,0-11-5.18T288.53,516.23Z"
     id="path21" />
  <path
     class="cls-2"
     d="M360.65,533.43a58.57,58.57,0,0,1-6.74,1.44,54.41,54.41,0,0,1-8.63.67,20.25,20.25,0,0,1-7.66-1.26,11.73,11.73,0,0,1-4.82-3.58,14,14,0,0,1-2.53-5.46,30.45,30.45,0,0,1-.75-7V497.56h9.58V517c0,3.4.47,5.85,1.43,7.36s2.8,2.24,5.47,2.24c.82,0,1.68,0,2.6-.09s1.75-.16,2.47-.25V497.56h9.58Z"
     id="path22" />
  <path
     class="cls-2"
     d="M382.2,533.47h-9.58V495.16h9.58Zm.6-47.42a5.76,5.76,0,0,1-1.87,4.57,6.47,6.47,0,0,1-4.41,1.66,6.4,6.4,0,0,1-4.38-1.66,6.47,6.47,0,0,1,0-9.1,6.35,6.35,0,0,1,4.38-1.66,6.42,6.42,0,0,1,4.41,1.66A5.73,5.73,0,0,1,382.8,486.05Z"
     id="path23" />
  <path
     class="cls-2"
     d="M405.21,534.88a25.25,25.25,0,0,1-7.18-.94,10.66,10.66,0,0,1-4.33-2.47,8.33,8.33,0,0,1-2.18-3.86,21.84,21.84,0,0,1-.55-5.12V483.25l10.09-1.62v38.83a12.9,12.9,0,0,0,.21,2.44,4.44,4.44,0,0,0,.76,1.83,4.18,4.18,0,0,0,1.68,1.2,9,9,0,0,0,2.92.62Z"
     id="path24" />
  <path
     class="cls-2"
     d="M462.09,494.37A14.67,14.67,0,0,1,461,500a25.88,25.88,0,0,1-2.83,5.16,41.39,41.39,0,0,1-3.89,4.79c-1.44,1.53-2.87,3-4.27,4.35-.71.72-1.5,1.52-2.35,2.43s-1.65,1.8-2.42,2.73-1.44,1.76-2,2.56a6.09,6.09,0,0,0-1.13,1.93H463.6v9.57H430.24a11.27,11.27,0,0,1-.16-2.13v-1.86a19.66,19.66,0,0,1,1.1-6.72,26.28,26.28,0,0,1,2.92-5.68,35.86,35.86,0,0,1,4.08-5l4.55-4.59c1.15-1.17,2.23-2.27,3.23-3.32a38.05,38.05,0,0,0,2.67-3.06,14.79,14.79,0,0,0,1.82-3,7.46,7.46,0,0,0,.66-3q0-3.39-1.82-4.75a7.14,7.14,0,0,0-4.46-1.37,10,10,0,0,0-3.67.67,18.6,18.6,0,0,0-5.52,3.29,20,20,0,0,0-1.51,1.4l-5.34-8a27.81,27.81,0,0,1,7.38-5.15,20.76,20.76,0,0,1,9.07-2,24,24,0,0,1,7.6,1.07,14.06,14.06,0,0,1,5.24,3,11.91,11.91,0,0,1,3,4.76A19.11,19.11,0,0,1,462.09,494.37Z"
     id="path25" />
  <path
     class="cls-2"
     d="M506.9,507.07q0,13.45-5.11,20.64a17.45,17.45,0,0,1-28.22,0q-5.1-7.19-5.11-20.64a47.24,47.24,0,0,1,1.34-11.82,26.24,26.24,0,0,1,3.91-8.72,17.19,17.19,0,0,1,6.08-5.38,16.92,16.92,0,0,1,7.91-1.83,16.33,16.33,0,0,1,14.09,7.18Q506.91,493.69,506.9,507.07Zm-11.69,0a58.94,58.94,0,0,0-.4-7.25,26.45,26.45,0,0,0-1.2-5.64,8.7,8.7,0,0,0-2.3-3.71,5.27,5.27,0,0,0-3.61-1.3,5.16,5.16,0,0,0-3.61,1.3,9.54,9.54,0,0,0-2.3,3.71,25.62,25.62,0,0,0-1.27,5.64,63.61,63.61,0,0,0-.37,7.25,65.22,65.22,0,0,0,.37,7.31,25.62,25.62,0,0,0,1.27,5.68,9.85,9.85,0,0,0,2.3,3.71,5.16,5.16,0,0,0,3.61,1.3,5.27,5.27,0,0,0,3.61-1.3,9,9,0,0,0,2.3-3.71,26.46,26.46,0,0,0,1.2-5.68A60.43,60.43,0,0,0,495.21,507.07Z"
     id="path26" />
  <path
     class="cls-2"
     d="M541.11,494.37A14.68,14.68,0,0,1,540,500a25.88,25.88,0,0,1-2.83,5.16,40.37,40.37,0,0,1-3.89,4.79c-1.44,1.53-2.87,3-4.27,4.35-.71.72-1.5,1.52-2.35,2.43s-1.65,1.8-2.42,2.73-1.43,1.76-2,2.56a6.09,6.09,0,0,0-1.13,1.93h21.53v9.57H509.25a11.27,11.27,0,0,1-.16-2.13v-1.86a19.66,19.66,0,0,1,1.1-6.72,26.73,26.73,0,0,1,2.92-5.68,35.86,35.86,0,0,1,4.08-5c1.52-1.53,3-3.06,4.55-4.59,1.15-1.17,2.23-2.27,3.23-3.32a38.05,38.05,0,0,0,2.67-3.06,14.79,14.79,0,0,0,1.82-3,7.46,7.46,0,0,0,.66-3q0-3.39-1.82-4.75a7.14,7.14,0,0,0-4.46-1.37,10.06,10.06,0,0,0-3.67.67,16.27,16.27,0,0,0-3.1,1.53,16.49,16.49,0,0,0-2.42,1.76,20,20,0,0,0-1.51,1.4l-5.33-8a27.59,27.59,0,0,1,7.37-5.15,20.79,20.79,0,0,1,9.07-2,24,24,0,0,1,7.6,1.07,14.06,14.06,0,0,1,5.24,3,11.91,11.91,0,0,1,3,4.76A19.1,19.1,0,0,1,541.11,494.37Z"
     id="path27" />
  <path
     class="cls-2"
     d="m 571.41,518 a 7.72,7.72 0 0 0 -1,-3.94 7.48,7.48 0 0 0 -3.47,-2.87 23.67,23.67 0 0 0 -6.61,-1.77 72.86,72.86 0 0 0 -10.44,-0.63 c 0.55,-4.76 1,-9.59 1.37,-14.52 0.37,-4.93 0.66,-9.51 0.86,-13.81 h 28.8 v 9.58 h -19.19 c -0.11,1.85 -0.23,3.63 -0.36,5.37 -0.13,1.74 -0.25,3.2 -0.4,4.47 q 11.21,0.78 16.55,5.27 c 3.55,3 5.34,7.14 5.34,12.48 a 17.39,17.39 0 0 1 -1.34,6.84 14.57,14.57 0 0 1 -3.9,5.44 18.66,18.66 0 0 1 -6.58,3.64 29.39,29.39 0 0 1 -9.24,1.3 33.12,33.12 0 0 1 -4.34,-0.3 c -1.52,-0.18 -3,-0.42 -4.4,-0.7 -1.4,-0.28 -2.67,-0.55 -3.81,-0.87 a 17.58,17.58 0 0 1 -2.6,-0.9 l 2.1,-9.44 a 33,33 0 0 0 5,1.63 30.74,30.74 0 0 0 7.54,0.8 c 3.54,0 6.09,-0.7 7.68,-2.1 a 6.4,6.4 0 0 0 2.44,-4.97 z"
     id="path28"
     style="display:none" />
  <text
     class="cls-4"
     transform="translate(75.35 621.57)"
     id="text30"><tspan
       class="cls-5"
       id="tspan29">F<tspan
   class="cls-6"
   x="25.81"
   y="0"
   id="tspan28">estival Latinoamericano de Instalación</tspan></tspan><tspan
       x="0"
       y="59.21"
       id="tspan30">de Software Libre</tspan></text>
  <text
     xml:space="preserve"
     style="font-size:77.3333px;font-family:Ubuntu-Regular, Ubuntu;-inkscape-font-specification:'Ubuntu-Regular, Ubuntu';text-align:start;writing-mode:lr-tb;direction:ltr;text-anchor:start;fill:#4d7bd1;fill-opacity:1"
     x="541.25323"
     y="533.49335"
     id="text31"><tspan
       sodipodi:role="line"
       id="tspan31"
       x="541.25323"
       y="533.49335"
       style="font-style:normal;font-variant:normal;font-weight:500;font-stretch:normal;font-size:77.3333px;font-family:Ubuntu;-inkscape-font-specification:'Ubuntu, Medium';font-variant-ligatures:normal;font-variant-caps:normal;font-variant-numeric:normal;font-variant-east-asian:normal;fill:#4d7bd1;fill-opacity:1">6</tspan></text>
</svg>
