<svg xmlns="http://www.w3.org/2000/svg" viewBox="0 0 210.71 56.92"><defs><style>.cls-1{fill:#fff;}</style></defs><g id="Capa_2" data-name="Capa 2"><g id="Capa_1-2" data-name="Capa 1"><path class="cls-1" d="M190.24,54.69c-2.85,0-5.44,0-7.64-.06-1.26,0-2.18,0-2.69-.93a1.94,1.94,0,0,1,.15-2,4.94,4.94,0,0,0,.65-2.25,15.22,15.22,0,0,0-4.16-10.61,12.45,12.45,0,0,0-9.23-4.09,8.47,8.47,0,0,0-1.18.16c-1.46.26-3.27.58-4.5-.63-.5-.49-1.11-1.65-2.85-5.42-.34-.75-.61-1.35-.74-1.58a17,17,0,0,0-12.7-8.77,19.8,19.8,0,0,0-17,5.8,1.5,1.5,0,1,1-2.12-2.12,22.78,22.78,0,0,1,19.53-6.65A20,20,0,0,1,160.7,25.84c.13.26.44.92.82,1.74.54,1.18,1.78,3.87,2.22,4.52a6.47,6.47,0,0,0,1.88-.16,9.73,9.73,0,0,1,1.7-.21,15.34,15.34,0,0,1,11.42,5,18.21,18.21,0,0,1,5,12.86,8.82,8.82,0,0,1-.37,2c4.19.07,9.75,0,15.62,0,3.33,0,6.8,0,10.25,0a1.5,1.5,0,1,1,0,3c-3.45,0-6.91,0-10.24,0Z"/><path class="cls-1" d="M4.23,56.92a7.35,7.35,0,0,1-3.4-.69,1.5,1.5,0,0,1,1.34-2.69,6.34,6.34,0,0,0,3.08.36c.39,0,.8,0,1.17,0q7.89,0,15.77,0,8.34,0,16.67,0h1.39c1.58,0,3.38,0,3.62-.24s.38-2.35.43-4.46l0-.73c.22-7.84,3.1-13.71,8.83-18,7.65-5.67,15.31-7.4,23.34-5.26C78.57,15.2,80,11.6,85.07,7.09a27,27,0,0,1,20.67-7,25.48,25.48,0,0,1,18,10.51c3.07,4.17,4,6.05,5,12.35a1.5,1.5,0,0,1-3,.49c-1-5.83-1.72-7.3-4.48-11.06a22.53,22.53,0,0,0-15.93-9.3A24,24,0,0,0,87.08,9.33c-4.46,4-5.73,6.87-8,18.11a1.5,1.5,0,0,1-.72,1,1.53,1.53,0,0,1-1.22.13C69.43,26,62.36,27.4,54.94,32.91c-4.94,3.67-7.43,8.78-7.62,15.63l0,.73c-.17,6.72-.64,7.64-7.08,7.62H38.86q-8.34,0-16.67,0-7.89,0-15.78,0c-.4,0-.69,0-1,0S4.62,56.92,4.23,56.92Z"/><path class="cls-1" d="M49.73,34.69h-.22a40,40,0,0,0-4.26-.4q-8.89,0-17.78,0H21.16a1.5,1.5,0,0,1,0-3h6.3q8.9,0,17.8,0a39.92,39.92,0,0,1,4.68.43,1.5,1.5,0,0,1-.21,3Z"/><path class="cls-1" d="M80.65,14.6c-3.73,0-7.16-.11-10.79-.23-3.83-.13-7.79-.26-12.32-.26a1.5,1.5,0,0,1,0-3c4.58,0,8.56.13,12.41.26,3.61.12,7,.23,10.7.23a1.5,1.5,0,0,1,0,3Z"/><path class="cls-1" d="M51.64,14.11a1.58,1.58,0,0,1-.52-.09,11.56,11.56,0,0,0-4.55-.4,25.72,25.72,0,0,1-2.91,0,1.5,1.5,0,0,1,.23-3,24.28,24.28,0,0,0,2.56,0,14.31,14.31,0,0,1,5.71.58,1.5,1.5,0,0,1-.52,2.91Z"/></g></g></svg>