<svg xmlns="http://www.w3.org/2000/svg" xmlns:xlink="http://www.w3.org/1999/xlink" width="1229" zoomAndPan="magnify" viewBox="0 0 921.75 110.999996" height="148" preserveAspectRatio="xMidYMid meet" version="1.0"><defs><filter x="0%" y="0%" width="100%" height="100%" id="6c3fb03786"><feColorMatrix values="0 0 0 0 1 0 0 0 0 1 0 0 0 0 1 0 0 0 1 0" color-interpolation-filters="sRGB"/></filter><g/><mask id="e76b3337cf"><g filter="url(#6c3fb03786)"><rect x="-92.175" width="1106.1" fill="#000000" y="-11.1" height="133.199995" fill-opacity="0.75"/></g></mask><clipPath id="07556be245"><path d="M 1 4 L 9.730469 4 L 9.730469 13 L 1 13 Z M 1 4 " clip-rule="nonzero"/></clipPath><clipPath id="bcd475dd5b"><rect x="0" width="10" y="0" height="19"/></clipPath><mask id="c78b815dd0"><g filter="url(#6c3fb03786)"><rect x="-92.175" width="1106.1" fill="#000000" y="-11.1" height="133.199995" fill-opacity="0.7"/></g></mask><clipPath id="9cab8dadcb"><path d="M 52.207031 10 L 85.808594 10 L 85.808594 25.660156 L 52.207031 25.660156 Z M 52.207031 10 " clip-rule="nonzero"/></clipPath><clipPath id="6ee73b32e1"><path d="M 85.210938 25.585938 C 83.84375 25.585938 82.472656 25.59375 81.160156 25.597656 C 79.945312 25.601562 78.773438 25.609375 77.699219 25.609375 C 76.578125 25.609375 75.554688 25.605469 74.683594 25.585938 C 74.480469 25.582031 74.28125 25.578125 74.132812 25.554688 C 74.0625 25.542969 73.515625 25.4375 73.523438 24.878906 C 73.527344 24.730469 73.582031 24.613281 73.601562 24.570312 C 73.625 24.515625 73.65625 24.460938 73.675781 24.421875 C 73.765625 24.253906 73.90625 24 73.9375 23.535156 C 74.082031 21.328125 72.257812 17.949219 68.984375 17.730469 C 68.871094 17.722656 68.753906 17.71875 68.640625 17.71875 L 68.640625 17.125 L 68.640625 17.71875 C 68.546875 17.71875 68.402344 17.742188 68.171875 17.78125 C 67.953125 17.820312 67.648438 17.875 67.359375 17.875 C 67.164062 17.875 66.925781 17.851562 66.703125 17.746094 C 66.59375 17.695312 66.488281 17.628906 66.394531 17.53125 C 66.363281 17.5 66.332031 17.46875 66.3125 17.441406 C 66.0625 17.121094 65.566406 16.03125 65.269531 15.390625 C 65.121094 15.066406 65.015625 14.835938 64.972656 14.761719 C 63.140625 11.335938 58.742188 10.230469 55.179688 12.140625 C 54.492188 12.507812 53.835938 12.992188 53.238281 13.589844 C 53.003906 13.824219 52.628906 13.824219 52.398438 13.589844 C 52.167969 13.355469 52.164062 12.980469 52.398438 12.75 C 53.078125 12.070312 53.832031 11.519531 54.621094 11.097656 C 58.6875 8.921875 63.84375 10.128906 66.019531 14.203125 L 65.5 14.484375 L 66.019531 14.203125 C 66.085938 14.320312 66.210938 14.597656 66.351562 14.894531 C 66.695312 15.640625 67.109375 16.53125 67.246094 16.710938 C 67.246094 16.710938 67.242188 16.703125 67.226562 16.691406 L 66.8125 17.113281 L 67.226562 16.691406 C 67.214844 16.679688 67.207031 16.675781 67.207031 16.675781 C 67.210938 16.679688 67.253906 16.695312 67.363281 16.695312 C 67.523438 16.695312 67.722656 16.664062 67.972656 16.617188 C 68.164062 16.582031 68.417969 16.539062 68.640625 16.539062 C 68.78125 16.539062 68.925781 16.542969 69.0625 16.554688 C 73.175781 16.828125 75.300781 20.957031 75.125 23.621094 L 74.53125 23.582031 L 75.125 23.621094 C 75.074219 24.332031 74.847656 24.761719 74.722656 24.992188 C 74.695312 25.039062 74.6875 25.054688 74.683594 25.0625 C 74.675781 25.085938 74.710938 25.015625 74.710938 24.910156 C 74.71875 24.433594 74.242188 24.378906 74.335938 24.394531 C 74.367188 24.398438 74.457031 24.40625 74.703125 24.410156 L 74.691406 25.003906 L 74.703125 24.410156 C 75.5625 24.425781 76.574219 24.433594 77.695312 24.433594 C 78.765625 24.433594 79.933594 24.429688 81.148438 24.421875 C 82.464844 24.417969 83.835938 24.410156 85.207031 24.410156 C 85.535156 24.410156 85.800781 24.675781 85.800781 25.003906 C 85.800781 25.332031 85.535156 25.597656 85.207031 25.597656 Z M 85.210938 25.585938 " clip-rule="nonzero"/></clipPath><clipPath id="39e062987c"><path d="M 2.453125 3.871094 L 53.507812 3.871094 L 53.507812 26.527344 L 2.453125 26.527344 Z M 2.453125 3.871094 " clip-rule="nonzero"/></clipPath><clipPath id="7263c63ab7"><path d="M 52.230469 13.261719 C 51.851562 10.972656 51.574219 10.402344 50.460938 8.886719 C 47.332031 4.632812 41.757812 4.023438 37.675781 7.035156 C 37.410156 7.226562 37.152344 7.4375 36.898438 7.664062 C 35.132812 9.25 34.632812 10.410156 33.746094 14.832031 C 33.714844 14.996094 33.613281 15.144531 33.460938 15.226562 C 33.3125 15.308594 33.136719 15.328125 32.980469 15.277344 C 29.765625 14.21875 26.9375 14.953125 24.1875 16.996094 C 22.070312 18.5625 21.242188 20.664062 21.171875 23.175781 L 20.578125 23.160156 L 21.171875 23.175781 C 21.167969 23.277344 21.167969 23.375 21.164062 23.464844 C 21.160156 23.554688 21.160156 23.636719 21.15625 23.71875 C 21.089844 26.246094 20.75 26.503906 18.363281 26.480469 C 18.199219 26.480469 18.015625 26.476562 17.824219 26.476562 L 17.824219 25.882812 L 17.824219 26.476562 C 15.625 26.472656 13.425781 26.472656 11.226562 26.472656 C 9.152344 26.472656 7.070312 26.472656 4.992188 26.46875 C 4.863281 26.46875 4.730469 26.472656 4.582031 26.480469 C 4.4375 26.488281 4.277344 26.492188 4.121094 26.492188 C 3.71875 26.492188 3.253906 26.449219 2.785156 26.214844 C 2.492188 26.070312 2.375 25.714844 2.523438 25.421875 C 2.667969 25.128906 3.023438 25.007812 3.316406 25.15625 C 3.542969 25.269531 3.796875 25.304688 4.121094 25.304688 C 4.25 25.304688 4.386719 25.300781 4.535156 25.292969 C 4.675781 25.289062 4.835938 25.28125 4.996094 25.28125 L 4.996094 25.875 L 4.996094 25.28125 C 7.074219 25.285156 9.152344 25.285156 11.226562 25.285156 C 13.425781 25.285156 15.628906 25.285156 17.832031 25.289062 C 18.027344 25.289062 18.210938 25.292969 18.375 25.292969 C 20.117188 25.308594 19.921875 25.5625 19.972656 23.683594 C 19.976562 23.605469 19.976562 23.523438 19.980469 23.433594 C 19.984375 23.339844 19.984375 23.246094 19.988281 23.140625 C 20.066406 20.351562 21.015625 17.871094 23.484375 16.042969 L 23.835938 16.515625 L 23.484375 16.042969 C 26.46875 13.828125 29.695312 12.949219 33.355469 14.152344 L 33.171875 14.710938 L 32.589844 14.597656 C 33.484375 10.125 34.042969 8.632812 36.109375 6.78125 L 36.503906 7.222656 L 36.109375 6.78125 C 36.390625 6.53125 36.675781 6.296875 36.972656 6.082031 C 41.550781 2.710938 47.875 3.375 51.417969 8.1875 L 50.9375 8.539062 L 51.417969 8.1875 C 52.652344 9.859375 52.996094 10.609375 53.40625 13.070312 C 53.460938 13.394531 53.242188 13.699219 52.921875 13.753906 C 52.601562 13.808594 52.292969 13.589844 52.234375 13.269531 Z M 52.230469 13.261719 " clip-rule="nonzero"/></clipPath><clipPath id="92d8b428d2"><path d="M 10.148438 16.230469 L 22.722656 16.230469 L 22.722656 17.746094 L 10.148438 17.746094 Z M 10.148438 16.230469 " clip-rule="nonzero"/></clipPath><clipPath id="a42f095cb0"><path d="M 22.039062 17.691406 C 22.027344 17.691406 20.96875 17.535156 20.355469 17.53125 L 20.359375 16.9375 L 20.355469 17.53125 C 17.988281 17.523438 15.617188 17.523438 13.25 17.523438 C 12.441406 17.523438 11.636719 17.523438 10.824219 17.523438 C 10.496094 17.523438 10.230469 17.261719 10.230469 16.929688 C 10.230469 16.601562 10.496094 16.339844 10.824219 16.339844 C 11.632812 16.339844 12.4375 16.339844 13.246094 16.339844 C 15.613281 16.339844 17.984375 16.335938 20.355469 16.347656 C 21.070312 16.351562 22.21875 16.519531 22.207031 16.515625 C 22.535156 16.5625 22.757812 16.863281 22.710938 17.1875 C 22.664062 17.511719 22.363281 17.738281 22.039062 17.691406 Z M 22.039062 17.691406 " clip-rule="nonzero"/></clipPath><clipPath id="3792d2fddb"><path d="M 24.566406 8.316406 L 34.972656 8.316406 L 34.972656 9.835938 L 24.566406 9.835938 Z M 24.566406 8.316406 " clip-rule="nonzero"/></clipPath><clipPath id="6c18db90eb"><path d="M 25.214844 8.371094 C 27.027344 8.371094 28.609375 8.421875 30.125 8.472656 C 31.539062 8.523438 32.902344 8.566406 34.351562 8.566406 C 34.679688 8.566406 34.945312 8.832031 34.945312 9.160156 C 34.945312 9.488281 34.679688 9.753906 34.351562 9.753906 C 32.878906 9.753906 31.5 9.703125 30.085938 9.660156 C 28.566406 9.609375 27.003906 9.558594 25.210938 9.558594 C 24.882812 9.558594 24.617188 9.292969 24.617188 8.964844 C 24.617188 8.636719 24.882812 8.371094 25.210938 8.371094 Z M 25.214844 8.371094 " clip-rule="nonzero"/></clipPath><clipPath id="4077a55818"><path d="M 19.144531 8.101562 L 23.480469 8.101562 L 23.480469 9.617188 L 19.144531 9.617188 Z M 19.144531 8.101562 " clip-rule="nonzero"/></clipPath><clipPath id="ba3b80e6c5"><path d="M 22.675781 9.519531 C 22.136719 9.320312 21.574219 9.332031 20.875 9.359375 C 20.519531 9.371094 20.125 9.386719 19.730469 9.359375 C 19.402344 9.335938 19.15625 9.050781 19.183594 8.722656 C 19.210938 8.394531 19.492188 8.148438 19.820312 8.175781 C 20.140625 8.203125 20.46875 8.191406 20.835938 8.175781 C 21.5 8.152344 22.300781 8.113281 23.09375 8.410156 C 23.402344 8.527344 23.558594 8.867188 23.441406 9.175781 C 23.328125 9.484375 22.988281 9.636719 22.679688 9.523438 Z M 22.675781 9.519531 " clip-rule="nonzero"/></clipPath><clipPath id="9e8167b7a2"><rect x="0" width="88" y="0" height="29"/></clipPath><mask id="b2133c0906"><g filter="url(#6c3fb03786)"><rect x="-92.175" width="1106.1" fill="#000000" y="-11.1" height="133.199995" fill-opacity="0.7"/></g></mask><clipPath id="9db1653149"><path d="M 67.488281 12.695312 L 86.492188 12.695312 L 86.492188 22.335938 L 67.488281 22.335938 Z M 67.488281 12.695312 " clip-rule="nonzero"/></clipPath><clipPath id="1b7c9e4f14"><path d="M 84.914062 21.800781 C 84.453125 20.6875 83.515625 18.882812 83.292969 18.542969 L 83.929688 18.121094 L 83.292969 18.542969 C 80.507812 14.371094 75.039062 12.957031 70.570312 15.941406 C 69.980469 16.328125 69.417969 16.796875 68.867188 17.34375 C 68.566406 17.644531 68.082031 17.644531 67.785156 17.34375 C 67.488281 17.042969 67.484375 16.558594 67.785156 16.261719 C 68.402344 15.644531 69.050781 15.117188 69.722656 14.667969 C 74.949219 11.183594 81.347656 12.867188 84.566406 17.695312 C 84.867188 18.148438 85.851562 20.058594 86.332031 21.21875 C 86.492188 21.613281 86.304688 22.054688 85.917969 22.21875 C 85.53125 22.382812 85.082031 22.195312 84.917969 21.804688 Z M 84.914062 21.800781 " clip-rule="nonzero"/></clipPath><clipPath id="a633e53507"><path d="M 84.816406 20.660156 L 100 20.660156 L 100 22.335938 L 84.816406 22.335938 Z M 84.816406 20.660156 " clip-rule="nonzero"/></clipPath><clipPath id="c3863ac036"><path d="M 99.175781 22.273438 C 97.417969 22.273438 95.648438 22.285156 93.953125 22.289062 C 92.386719 22.296875 90.878906 22.304688 89.492188 22.304688 C 88.050781 22.304688 86.726562 22.300781 85.605469 22.273438 C 85.183594 22.265625 84.847656 21.917969 84.855469 21.496094 C 84.867188 21.070312 85.214844 20.734375 85.636719 20.746094 C 86.742188 20.765625 88.050781 20.777344 89.492188 20.777344 C 90.875 20.777344 92.378906 20.769531 93.945312 20.761719 C 95.640625 20.753906 97.410156 20.746094 99.175781 20.746094 C 99.597656 20.746094 99.941406 21.085938 99.941406 21.511719 C 99.941406 21.933594 99.597656 22.273438 99.175781 22.273438 Z M 99.175781 22.273438 " clip-rule="nonzero"/></clipPath><clipPath id="ca3f569eab"><path d="M 2.65625 4.589844 L 68.886719 4.589844 L 68.886719 33.65625 L 2.65625 33.65625 Z M 2.65625 4.589844 " clip-rule="nonzero"/></clipPath><clipPath id="d1d8710753"><path d="M 67.359375 17.238281 C 66.582031 14.492188 65.972656 12.855469 64.542969 10.914062 C 60.507812 5.433594 53.324219 4.648438 48.058594 8.527344 C 47.71875 8.777344 47.386719 9.046875 47.0625 9.339844 C 44.78125 11.382812 44.140625 12.878906 43.003906 18.578125 C 42.960938 18.792969 42.828125 18.980469 42.636719 19.089844 C 42.441406 19.195312 42.214844 19.21875 42.011719 19.15625 C 37.867188 17.789062 34.222656 18.734375 30.675781 21.367188 C 27.949219 23.390625 26.882812 26.097656 26.792969 29.335938 L 26.027344 29.316406 L 26.792969 29.335938 C 26.785156 29.464844 26.785156 29.59375 26.78125 29.710938 C 26.777344 29.820312 26.777344 29.929688 26.769531 30.035156 C 26.683594 33.292969 26.246094 33.625 23.171875 33.59375 C 22.957031 33.59375 22.722656 33.589844 22.476562 33.589844 C 19.617188 33.585938 16.757812 33.585938 13.894531 33.585938 C 11.242188 33.585938 8.585938 33.585938 5.933594 33.582031 C 5.765625 33.582031 5.59375 33.585938 5.40625 33.59375 C 5.214844 33.601562 5.011719 33.609375 4.804688 33.609375 C 4.289062 33.609375 3.6875 33.554688 3.089844 33.257812 C 2.710938 33.070312 2.558594 32.609375 2.75 32.234375 C 2.9375 31.855469 3.394531 31.703125 3.773438 31.890625 C 4.0625 32.039062 4.390625 32.085938 4.808594 32.085938 C 4.976562 32.085938 5.148438 32.082031 5.34375 32.070312 C 5.527344 32.066406 5.738281 32.054688 5.941406 32.054688 L 5.941406 32.820312 L 5.941406 32.054688 C 8.59375 32.0625 11.242188 32.0625 13.902344 32.0625 C 16.761719 32.0625 19.621094 32.0625 22.488281 32.066406 L 22.488281 32.832031 L 22.488281 32.066406 C 22.742188 32.066406 22.976562 32.066406 23.191406 32.070312 C 25.433594 32.089844 25.183594 32.417969 25.25 29.996094 C 25.257812 29.894531 25.257812 29.785156 25.261719 29.675781 C 25.265625 29.550781 25.265625 29.429688 25.273438 29.296875 C 25.367188 25.703125 26.59375 22.503906 29.773438 20.144531 L 30.226562 20.753906 L 29.773438 20.144531 C 33.625 17.289062 37.785156 16.15625 42.503906 17.707031 L 42.261719 18.429688 L 41.511719 18.28125 C 42.664062 12.515625 43.382812 10.59375 46.050781 8.207031 L 46.5625 8.777344 L 46.050781 8.207031 C 46.414062 7.886719 46.78125 7.585938 47.164062 7.304688 C 53.066406 2.960938 61.222656 3.816406 65.785156 10.015625 L 65.167969 10.46875 L 65.785156 10.015625 C 67.375 12.179688 68.042969 14.023438 68.84375 16.828125 C 68.960938 17.238281 68.726562 17.660156 68.320312 17.773438 C 67.910156 17.882812 67.488281 17.65625 67.375 17.246094 Z M 67.359375 17.238281 " clip-rule="nonzero"/></clipPath><clipPath id="3864fafe3f"><path d="M 12.574219 20.378906 L 28.925781 20.378906 L 28.925781 22.335938 L 12.574219 22.335938 Z M 12.574219 20.378906 " clip-rule="nonzero"/></clipPath><clipPath id="838fe558f4"><path d="M 27.902344 22.265625 C 27.886719 22.265625 26.527344 22.066406 25.730469 22.0625 L 25.734375 21.296875 L 25.730469 22.0625 C 22.695312 22.050781 19.65625 22.050781 16.625 22.050781 C 15.566406 22.050781 14.507812 22.050781 13.453125 22.050781 C 13.027344 22.050781 12.6875 21.710938 12.6875 21.285156 C 12.6875 20.863281 13.027344 20.519531 13.453125 20.519531 C 14.507812 20.519531 15.5625 20.519531 16.625 20.519531 C 19.664062 20.519531 22.703125 20.515625 25.742188 20.53125 C 26.664062 20.535156 28.144531 20.753906 28.132812 20.75 C 28.550781 20.8125 28.839844 21.199219 28.78125 21.617188 C 28.71875 22.035156 28.332031 22.324219 27.914062 22.265625 Z M 27.902344 22.265625 " clip-rule="nonzero"/></clipPath><clipPath id="03fbd60463"><path d="M 31.160156 10.179688 L 44.574219 10.179688 L 44.574219 12.136719 L 31.160156 12.136719 Z M 31.160156 10.179688 " clip-rule="nonzero"/></clipPath><clipPath id="50d81eae89"><path d="M 31.996094 10.25 C 34.332031 10.25 36.371094 10.316406 38.324219 10.382812 C 40.152344 10.445312 41.90625 10.5 43.777344 10.5 C 44.199219 10.5 44.542969 10.84375 44.542969 11.265625 C 44.542969 11.6875 44.199219 12.03125 43.777344 12.03125 C 41.875 12.03125 40.101562 11.96875 38.273438 11.914062 C 36.316406 11.847656 34.300781 11.78125 31.996094 11.78125 C 31.574219 11.78125 31.234375 11.4375 31.234375 11.015625 C 31.234375 10.59375 31.574219 10.25 31.996094 10.25 Z M 31.996094 10.25 " clip-rule="nonzero"/></clipPath><clipPath id="a1f6956458"><rect x="0" width="103" y="0" height="37"/></clipPath><mask id="09e803534b"><g filter="url(#6c3fb03786)"><rect x="-92.175" width="1106.1" fill="#000000" y="-11.1" height="133.199995" fill-opacity="0.7"/></g></mask><clipPath id="ac63b5141a"><path d="M 56.335938 10.703125 L 71.894531 10.703125 L 71.894531 18.597656 L 56.335938 18.597656 Z M 56.335938 10.703125 " clip-rule="nonzero"/></clipPath><clipPath id="864d9bab85"><path d="M 70.601562 18.15625 C 70.226562 17.246094 69.457031 15.769531 69.273438 15.488281 L 69.796875 15.144531 L 69.273438 15.488281 C 66.996094 12.074219 62.519531 10.917969 58.859375 13.359375 C 58.378906 13.675781 57.914062 14.0625 57.464844 14.507812 C 57.21875 14.753906 56.820312 14.753906 56.578125 14.507812 C 56.335938 14.261719 56.332031 13.867188 56.578125 13.625 C 57.082031 13.117188 57.613281 12.683594 58.164062 12.316406 C 62.445312 9.464844 67.683594 10.84375 70.320312 14.796875 C 70.566406 15.167969 71.371094 16.730469 71.761719 17.679688 C 71.898438 18.003906 71.742188 18.367188 71.425781 18.5 C 71.109375 18.632812 70.742188 18.480469 70.605469 18.160156 Z M 70.601562 18.15625 " clip-rule="nonzero"/></clipPath><clipPath id="ed3cb0d279"><path d="M 70.523438 17.222656 L 82.992188 17.222656 L 82.992188 18.597656 L 70.523438 18.597656 Z M 70.523438 17.222656 " clip-rule="nonzero"/></clipPath><clipPath id="f9e4645ed2"><path d="M 82.28125 18.546875 C 80.839844 18.546875 79.390625 18.554688 78.003906 18.558594 C 76.722656 18.5625 75.488281 18.570312 74.351562 18.570312 C 73.171875 18.570312 72.089844 18.566406 71.171875 18.546875 C 70.824219 18.539062 70.546875 18.253906 70.558594 17.90625 C 70.566406 17.5625 70.847656 17.285156 71.195312 17.292969 C 72.101562 17.308594 73.171875 17.320312 74.351562 17.320312 C 75.484375 17.320312 76.714844 17.3125 77.996094 17.304688 C 79.386719 17.300781 80.835938 17.292969 82.28125 17.292969 C 82.628906 17.292969 82.90625 17.574219 82.90625 17.917969 C 82.90625 18.265625 82.628906 18.546875 82.28125 18.546875 Z M 82.28125 18.546875 " clip-rule="nonzero"/></clipPath><clipPath id="0d2aaed76f"><path d="M 3.25 4.066406 L 57.480469 4.066406 L 57.480469 27.863281 L 3.25 27.863281 Z M 3.25 4.066406 " clip-rule="nonzero"/></clipPath><clipPath id="7139e514b2"><path d="M 56.230469 14.421875 C 55.59375 12.175781 55.097656 10.835938 53.921875 9.242188 C 50.621094 4.753906 44.738281 4.113281 40.429688 7.289062 C 40.148438 7.492188 39.878906 7.714844 39.609375 7.953125 C 37.742188 9.628906 37.21875 10.851562 36.285156 15.519531 C 36.253906 15.695312 36.144531 15.847656 35.984375 15.9375 C 35.828125 16.023438 35.644531 16.046875 35.476562 15.992188 C 32.082031 14.871094 29.097656 15.648438 26.195312 17.800781 C 23.960938 19.460938 23.089844 21.675781 23.011719 24.328125 L 22.386719 24.3125 L 23.011719 24.328125 C 23.007812 24.433594 23.007812 24.539062 23.003906 24.632812 C 23 24.726562 23 24.8125 22.996094 24.902344 C 22.925781 27.570312 22.566406 27.839844 20.050781 27.816406 C 19.875 27.816406 19.683594 27.8125 19.480469 27.8125 C 17.140625 27.804688 14.796875 27.804688 12.453125 27.804688 C 10.285156 27.804688 8.109375 27.804688 5.9375 27.800781 C 5.800781 27.800781 5.65625 27.804688 5.503906 27.816406 C 5.347656 27.820312 5.179688 27.828125 5.011719 27.828125 C 4.589844 27.828125 4.09375 27.78125 3.605469 27.539062 C 3.296875 27.386719 3.171875 27.007812 3.328125 26.699219 C 3.480469 26.390625 3.859375 26.265625 4.167969 26.421875 C 4.40625 26.542969 4.671875 26.578125 5.015625 26.578125 C 5.152344 26.578125 5.292969 26.574219 5.453125 26.566406 C 5.601562 26.5625 5.773438 26.554688 5.941406 26.554688 L 5.941406 27.179688 L 5.941406 26.554688 C 8.113281 26.558594 10.285156 26.558594 12.457031 26.558594 C 14.800781 26.558594 17.144531 26.558594 19.488281 26.5625 L 19.488281 27.1875 L 19.488281 26.5625 C 19.699219 26.5625 19.890625 26.5625 20.066406 26.566406 C 21.902344 26.582031 21.699219 26.851562 21.753906 24.867188 C 21.757812 24.785156 21.757812 24.695312 21.761719 24.605469 C 21.765625 24.503906 21.765625 24.402344 21.769531 24.296875 C 21.847656 21.351562 22.851562 18.734375 25.457031 16.800781 L 25.828125 17.300781 L 25.457031 16.800781 C 28.609375 14.460938 32.015625 13.535156 35.878906 14.804688 L 35.679688 15.398438 L 35.066406 15.277344 C 36.011719 10.554688 36.601562 8.980469 38.785156 7.027344 L 39.199219 7.492188 L 38.785156 7.027344 C 39.078125 6.761719 39.378906 6.515625 39.695312 6.289062 C 44.527344 2.730469 51.203125 3.429688 54.941406 8.507812 L 54.4375 8.878906 L 54.941406 8.507812 C 56.242188 10.277344 56.792969 11.789062 57.445312 14.085938 C 57.542969 14.421875 57.351562 14.765625 57.015625 14.859375 C 56.683594 14.949219 56.335938 14.761719 56.242188 14.429688 Z M 56.230469 14.421875 " clip-rule="nonzero"/></clipPath><clipPath id="a891e31798"><path d="M 11.375 17 L 24.757812 17 L 24.757812 18.597656 L 11.375 18.597656 Z M 11.375 17 " clip-rule="nonzero"/></clipPath><clipPath id="f39f588072"><path d="M 23.921875 18.539062 C 23.910156 18.539062 22.796875 18.375 22.144531 18.371094 L 22.148438 17.746094 L 22.144531 18.371094 C 19.660156 18.363281 17.171875 18.363281 14.6875 18.363281 C 13.824219 18.363281 12.957031 18.363281 12.089844 18.363281 C 11.746094 18.363281 11.464844 18.082031 11.464844 17.734375 C 11.464844 17.390625 11.746094 17.109375 12.089844 17.109375 C 12.957031 17.109375 13.820312 17.109375 14.6875 17.109375 C 17.175781 17.109375 19.664062 17.105469 22.152344 17.117188 C 22.910156 17.121094 24.121094 17.300781 24.113281 17.296875 C 24.453125 17.347656 24.691406 17.664062 24.640625 18.007812 C 24.589844 18.351562 24.273438 18.585938 23.933594 18.539062 Z M 23.921875 18.539062 " clip-rule="nonzero"/></clipPath><clipPath id="7836cf2234"><path d="M 26.589844 8.644531 L 37.574219 8.644531 L 37.574219 10.246094 L 26.589844 10.246094 Z M 26.589844 8.644531 " clip-rule="nonzero"/></clipPath><clipPath id="9d056618b4"><path d="M 27.277344 8.699219 C 29.1875 8.699219 30.859375 8.753906 32.457031 8.808594 C 33.953125 8.859375 35.390625 8.90625 36.921875 8.90625 C 37.269531 8.90625 37.546875 9.183594 37.546875 9.53125 C 37.546875 9.878906 37.269531 10.15625 36.921875 10.15625 C 35.363281 10.15625 33.910156 10.109375 32.417969 10.0625 C 30.8125 10.007812 29.164062 9.953125 27.277344 9.953125 C 26.929688 9.953125 26.648438 9.671875 26.648438 9.328125 C 26.648438 8.980469 26.929688 8.699219 27.277344 8.699219 Z M 27.277344 8.699219 " clip-rule="nonzero"/></clipPath><clipPath id="35317e7aa9"><rect x="0" width="86" y="0" height="31"/></clipPath><clipPath id="60e849c4fc"><path d="M 798 62 L 921.5 62 L 921.5 102 L 798 102 Z M 798 62 " clip-rule="nonzero"/></clipPath><mask id="84130e4481"><g filter="url(#6c3fb03786)"><rect x="-92.175" width="1106.1" fill="#000000" y="-11.1" height="133.199995" fill-opacity="0.7"/></g></mask><clipPath id="7d881aa701"><path d="M 73.027344 13.816406 L 120.03125 13.816406 L 120.03125 35.804688 L 73.027344 35.804688 Z M 73.027344 13.816406 " clip-rule="nonzero"/></clipPath><clipPath id="3aca06f31c"><path d="M 119.195312 35.703125 C 117.289062 35.703125 115.367188 35.710938 113.53125 35.71875 C 111.832031 35.722656 110.191406 35.734375 108.6875 35.734375 C 107.121094 35.734375 105.6875 35.730469 104.472656 35.703125 C 104.183594 35.695312 103.90625 35.691406 103.703125 35.65625 C 103.601562 35.640625 102.839844 35.492188 102.851562 34.710938 C 102.855469 34.507812 102.925781 34.339844 102.957031 34.277344 C 102.988281 34.203125 103.03125 34.125 103.058594 34.074219 C 103.1875 33.835938 103.382812 33.480469 103.425781 32.828125 C 103.628906 29.742188 101.078125 25.015625 96.496094 24.710938 C 96.335938 24.699219 96.175781 24.695312 96.015625 24.695312 L 96.015625 23.863281 L 96.015625 24.695312 C 95.882812 24.695312 95.683594 24.726562 95.363281 24.785156 C 95.054688 24.839844 94.628906 24.917969 94.222656 24.917969 C 93.953125 24.917969 93.621094 24.882812 93.304688 24.734375 C 93.15625 24.660156 93.007812 24.566406 92.875 24.433594 C 92.828125 24.390625 92.789062 24.347656 92.761719 24.308594 C 92.410156 23.859375 91.714844 22.332031 91.300781 21.4375 C 91.089844 20.980469 90.949219 20.660156 90.886719 20.554688 C 88.324219 15.765625 82.171875 14.21875 77.1875 16.894531 C 76.222656 17.40625 75.304688 18.082031 74.46875 18.917969 C 74.140625 19.246094 73.617188 19.246094 73.296875 18.917969 C 72.976562 18.589844 72.96875 18.066406 73.296875 17.746094 C 74.246094 16.792969 75.296875 16.023438 76.40625 15.433594 C 82.09375 12.386719 89.304688 14.078125 92.351562 19.777344 L 91.621094 20.167969 L 92.351562 19.777344 C 92.441406 19.941406 92.617188 20.328125 92.8125 20.742188 C 93.292969 21.789062 93.875 23.035156 94.070312 23.285156 C 94.070312 23.285156 94.0625 23.273438 94.039062 23.257812 L 93.460938 23.847656 L 94.039062 23.257812 C 94.023438 23.238281 94.011719 23.234375 94.011719 23.234375 C 94.019531 23.238281 94.078125 23.261719 94.230469 23.261719 C 94.457031 23.261719 94.734375 23.21875 95.082031 23.15625 C 95.351562 23.105469 95.707031 23.046875 96.015625 23.046875 C 96.214844 23.046875 96.414062 23.050781 96.609375 23.066406 C 102.363281 23.449219 105.335938 29.226562 105.085938 32.949219 L 104.253906 32.894531 L 105.085938 32.949219 C 105.019531 33.945312 104.699219 34.550781 104.527344 34.871094 C 104.488281 34.9375 104.476562 34.960938 104.472656 34.972656 C 104.460938 35 104.511719 34.90625 104.511719 34.753906 C 104.519531 34.089844 103.851562 34.011719 103.984375 34.035156 C 104.027344 34.042969 104.15625 34.050781 104.5 34.058594 L 104.484375 34.886719 L 104.5 34.058594 C 105.699219 34.078125 107.117188 34.089844 108.683594 34.089844 C 110.183594 34.089844 111.816406 34.085938 113.511719 34.074219 C 115.355469 34.070312 117.277344 34.058594 119.191406 34.058594 C 119.648438 34.058594 120.019531 34.429688 120.019531 34.886719 C 120.019531 35.347656 119.648438 35.71875 119.191406 35.71875 Z M 119.195312 35.703125 " clip-rule="nonzero"/></clipPath><clipPath id="1f1af758f5"><path d="M 3.425781 5.324219 L 74.847656 5.324219 L 74.847656 37 L 3.425781 37 Z M 3.425781 5.324219 " clip-rule="nonzero"/></clipPath><clipPath id="36e525f722"><path d="M 73.0625 18.457031 C 72.53125 15.261719 72.144531 14.457031 70.585938 12.339844 C 66.207031 6.390625 58.410156 5.539062 52.699219 9.75 C 52.328125 10.019531 51.96875 10.3125 51.613281 10.628906 C 49.140625 12.847656 48.445312 14.46875 47.203125 20.65625 C 47.160156 20.886719 47.015625 21.09375 46.804688 21.207031 C 46.597656 21.324219 46.351562 21.351562 46.132812 21.28125 C 41.632812 19.796875 37.675781 20.828125 33.832031 23.683594 C 30.871094 25.875 29.714844 28.816406 29.613281 32.332031 L 28.785156 32.308594 L 29.613281 32.332031 C 29.609375 32.46875 29.609375 32.609375 29.601562 32.734375 C 29.597656 32.855469 29.597656 32.972656 29.589844 33.089844 C 29.496094 36.625 29.023438 36.984375 25.683594 36.953125 C 25.453125 36.953125 25.199219 36.945312 24.933594 36.945312 L 24.933594 36.117188 L 24.933594 36.945312 C 21.855469 36.941406 18.777344 36.941406 15.703125 36.941406 C 12.796875 36.941406 9.886719 36.941406 6.980469 36.933594 C 6.800781 36.933594 6.609375 36.941406 6.40625 36.953125 C 6.203125 36.964844 5.980469 36.96875 5.757812 36.96875 C 5.199219 36.96875 4.546875 36.90625 3.894531 36.582031 C 3.484375 36.375 3.320312 35.878906 3.523438 35.46875 C 3.726562 35.058594 4.226562 34.894531 4.636719 35.097656 C 4.949219 35.257812 5.304688 35.308594 5.757812 35.308594 C 5.941406 35.308594 6.128906 35.304688 6.339844 35.292969 C 6.539062 35.285156 6.761719 35.273438 6.988281 35.273438 L 6.988281 36.105469 L 6.988281 35.273438 C 9.890625 35.28125 12.796875 35.28125 15.703125 35.28125 C 18.777344 35.28125 21.859375 35.28125 24.9375 35.285156 C 25.214844 35.285156 25.46875 35.292969 25.703125 35.292969 C 28.136719 35.3125 27.863281 35.667969 27.9375 33.039062 C 27.941406 32.929688 27.941406 32.8125 27.949219 32.691406 C 27.953125 32.558594 27.953125 32.425781 27.960938 32.28125 C 28.0625 28.378906 29.390625 24.910156 32.84375 22.347656 L 33.335938 23.011719 L 32.84375 22.347656 C 37.023438 19.25 41.539062 18.023438 46.65625 19.703125 L 46.398438 20.488281 L 45.582031 20.328125 C 46.835938 14.070312 47.621094 11.984375 50.507812 9.394531 L 51.0625 10.015625 L 50.507812 9.394531 C 50.902344 9.046875 51.300781 8.71875 51.714844 8.414062 C 58.121094 3.699219 66.964844 4.628906 71.921875 11.359375 L 71.253906 11.851562 L 71.921875 11.359375 C 73.648438 13.699219 74.132812 14.75 74.707031 18.191406 C 74.785156 18.648438 74.472656 19.074219 74.027344 19.152344 C 73.578125 19.226562 73.144531 18.917969 73.070312 18.46875 Z M 73.0625 18.457031 " clip-rule="nonzero"/></clipPath><clipPath id="032a7ccf2e"><path d="M 14.191406 22.613281 L 31.78125 22.613281 L 31.78125 24.734375 L 14.191406 24.734375 Z M 14.191406 22.613281 " clip-rule="nonzero"/></clipPath><clipPath id="1116f2cd73"><path d="M 30.824219 24.65625 C 30.808594 24.65625 29.324219 24.441406 28.46875 24.433594 L 28.472656 23.605469 L 28.46875 24.433594 C 25.160156 24.425781 21.84375 24.425781 18.53125 24.425781 C 17.402344 24.425781 16.273438 24.425781 15.136719 24.425781 C 14.679688 24.425781 14.308594 24.054688 14.308594 23.59375 C 14.308594 23.132812 14.679688 22.765625 15.136719 22.765625 C 16.265625 22.765625 17.394531 22.765625 18.523438 22.765625 C 21.839844 22.765625 25.152344 22.757812 28.46875 22.773438 C 29.46875 22.78125 31.074219 23.019531 31.0625 23.011719 C 31.515625 23.078125 31.832031 23.5 31.765625 23.953125 C 31.699219 24.40625 31.28125 24.722656 30.824219 24.65625 Z M 30.824219 24.65625 " clip-rule="nonzero"/></clipPath><clipPath id="fb4f206e98"><path d="M 34.359375 11.542969 L 48.917969 11.542969 L 48.917969 13.664062 L 34.359375 13.664062 Z M 34.359375 11.542969 " clip-rule="nonzero"/></clipPath><clipPath id="bb6ec80398"><path d="M 35.269531 11.621094 C 37.804688 11.621094 40.015625 11.691406 42.136719 11.761719 C 44.117188 11.828125 46.019531 11.890625 48.050781 11.890625 C 48.511719 11.890625 48.882812 12.261719 48.882812 12.71875 C 48.882812 13.179688 48.511719 13.550781 48.050781 13.550781 C 45.988281 13.550781 44.0625 13.484375 42.082031 13.421875 C 39.957031 13.351562 37.769531 13.28125 35.261719 13.28125 C 34.804688 13.28125 34.433594 12.910156 34.433594 12.449219 C 34.433594 11.988281 34.804688 11.621094 35.261719 11.621094 Z M 35.269531 11.621094 " clip-rule="nonzero"/></clipPath><clipPath id="2560aa5007"><path d="M 26.777344 11.238281 L 32.84375 11.238281 L 32.84375 13.363281 L 26.777344 13.363281 Z M 26.777344 11.238281 " clip-rule="nonzero"/></clipPath><clipPath id="de0a94c592"><path d="M 31.714844 13.222656 C 30.964844 12.949219 30.179688 12.964844 29.199219 13.003906 C 28.699219 13.019531 28.148438 13.042969 27.59375 13.003906 C 27.136719 12.96875 26.792969 12.570312 26.832031 12.113281 C 26.871094 11.652344 27.261719 11.308594 27.722656 11.347656 C 28.167969 11.382812 28.628906 11.363281 29.144531 11.347656 C 30.074219 11.316406 31.191406 11.257812 32.304688 11.675781 C 32.734375 11.835938 32.949219 12.3125 32.789062 12.742188 C 32.628906 13.175781 32.152344 13.390625 31.722656 13.230469 Z M 31.714844 13.222656 " clip-rule="nonzero"/></clipPath><clipPath id="17643567aa"><rect x="0" width="124" y="0" height="40"/></clipPath><mask id="94fee10e22"><g filter="url(#6c3fb03786)"><rect x="-92.175" width="1106.1" fill="#000000" y="-11.1" height="133.199995" fill-opacity="0.75"/></g></mask><clipPath id="2e474490d9"><path d="M 0.160156 5 L 9 5 L 9 14 L 0.160156 14 Z M 0.160156 5 " clip-rule="nonzero"/></clipPath><clipPath id="9e2423f279"><rect x="0" width="10" y="0" height="19"/></clipPath><mask id="4f033211d6"><g filter="url(#6c3fb03786)"><rect x="-92.175" width="1106.1" fill="#000000" y="-11.1" height="133.199995" fill-opacity="0.75"/></g></mask><clipPath id="42bf61e361"><rect x="0" width="11" y="0" height="20"/></clipPath><mask id="d44929d460"><g filter="url(#6c3fb03786)"><rect x="-92.175" width="1106.1" fill="#000000" y="-11.1" height="133.199995" fill-opacity="0.75"/></g></mask><clipPath id="9966bf15d2"><path d="M 0.179688 5 L 9 5 L 9 14 L 0.179688 14 Z M 0.179688 5 " clip-rule="nonzero"/></clipPath><clipPath id="ea48cbf8cb"><rect x="0" width="10" y="0" height="19"/></clipPath><mask id="43a4d984d3"><g filter="url(#6c3fb03786)"><rect x="-92.175" width="1106.1" fill="#000000" y="-11.1" height="133.199995" fill-opacity="0.75"/></g></mask><clipPath id="fedf281a38"><path d="M 1 4 L 9.796875 4 L 9.796875 13 L 1 13 Z M 1 4 " clip-rule="nonzero"/></clipPath><clipPath id="0528b44214"><rect x="0" width="10" y="0" height="19"/></clipPath><mask id="deef607831"><g filter="url(#6c3fb03786)"><rect x="-92.175" width="1106.1" fill="#000000" y="-11.1" height="133.199995" fill-opacity="0.75"/></g></mask><clipPath id="f63d720d7b"><path d="M 0.230469 5 L 9 5 L 9 13 L 0.230469 13 Z M 0.230469 5 " clip-rule="nonzero"/></clipPath><clipPath id="ae4f4d5c9d"><rect x="0" width="10" y="0" height="19"/></clipPath><mask id="169d2d2d02"><g filter="url(#6c3fb03786)"><rect x="-92.175" width="1106.1" fill="#000000" y="-11.1" height="133.199995" fill-opacity="0.75"/></g></mask><clipPath id="2eb18931ca"><rect x="0" width="13" y="0" height="22"/></clipPath><mask id="473092d320"><g filter="url(#6c3fb03786)"><rect x="-92.175" width="1106.1" fill="#000000" y="-11.1" height="133.199995" fill-opacity="0.75"/></g></mask><clipPath id="fbe1460f52"><rect x="0" width="12" y="0" height="22"/></clipPath><mask id="8981c1ed9e"><g filter="url(#6c3fb03786)"><rect x="-92.175" width="1106.1" fill="#000000" y="-11.1" height="133.199995" fill-opacity="0.75"/></g></mask><clipPath id="fe75e330f9"><rect x="0" width="12" y="0" height="22"/></clipPath><mask id="ff391dcda8"><g filter="url(#6c3fb03786)"><rect x="-92.175" width="1106.1" fill="#000000" y="-11.1" height="133.199995" fill-opacity="0.75"/></g></mask><clipPath id="c5a584d073"><rect x="0" width="12" y="0" height="23"/></clipPath></defs><g mask="url(#e76b3337cf)"><g transform="matrix(1, 0, 0, 1, 92, 46)"><g clip-path="url(#bcd475dd5b)"><g clip-path="url(#07556be245)"><g fill="#2aaa8a" fill-opacity="1"><g transform="translate(0.846106, 12.706953)"><g><path d="M 0.515625 -3.75 C 0.515625 -4.28125 0.601562 -4.785156 0.78125 -5.265625 C 0.96875 -5.753906 1.226562 -6.179688 1.5625 -6.546875 C 2.300781 -7.328125 3.257812 -7.71875 4.4375 -7.71875 C 5.613281 -7.71875 6.546875 -7.347656 7.234375 -6.609375 C 7.898438 -5.898438 8.234375 -4.984375 8.234375 -3.859375 C 8.234375 -2.734375 7.894531 -1.800781 7.21875 -1.0625 C 6.488281 -0.28125 5.53125 0.109375 4.34375 0.109375 C 3.113281 0.109375 2.15625 -0.273438 1.46875 -1.046875 C 0.832031 -1.742188 0.515625 -2.644531 0.515625 -3.75 Z M 2.28125 -3.796875 C 2.28125 -3.484375 2.328125 -3.1875 2.421875 -2.90625 C 2.523438 -2.625 2.671875 -2.378906 2.859375 -2.171875 C 3.265625 -1.734375 3.789062 -1.515625 4.4375 -1.515625 C 5.039062 -1.515625 5.519531 -1.726562 5.875 -2.15625 C 6.207031 -2.570312 6.375 -3.113281 6.375 -3.78125 C 6.375 -4.457031 6.203125 -5.003906 5.859375 -5.421875 C 5.484375 -5.867188 4.972656 -6.09375 4.328125 -6.09375 C 3.671875 -6.09375 3.15625 -5.851562 2.78125 -5.375 C 2.445312 -4.9375 2.28125 -4.410156 2.28125 -3.796875 Z M 2.28125 -3.796875 "/></g></g></g></g></g></g></g><g mask="url(#c78b815dd0)"><g transform="matrix(1, 0, 0, 1, 129, 16)"><g clip-path="url(#9e8167b7a2)"><g clip-path="url(#9cab8dadcb)"><g clip-path="url(#6ee73b32e1)"><path fill="#2aaa8a" d="M 0.394531 0.730469 L 87.757812 0.730469 L 87.757812 28.476562 L 0.394531 28.476562 Z M 0.394531 0.730469 " fill-opacity="1" fill-rule="nonzero"/></g></g><g clip-path="url(#39e062987c)"><g clip-path="url(#7263c63ab7)"><path fill="#2aaa8a" d="M 0.394531 0.730469 L 87.757812 0.730469 L 87.757812 28.476562 L 0.394531 28.476562 Z M 0.394531 0.730469 " fill-opacity="1" fill-rule="nonzero"/></g></g><g clip-path="url(#92d8b428d2)"><g clip-path="url(#a42f095cb0)"><path fill="#2aaa8a" d="M 0.394531 0.730469 L 87.757812 0.730469 L 87.757812 28.476562 L 0.394531 28.476562 Z M 0.394531 0.730469 " fill-opacity="1" fill-rule="nonzero"/></g></g><g clip-path="url(#3792d2fddb)"><g clip-path="url(#6c18db90eb)"><path fill="#2aaa8a" d="M 0.394531 0.730469 L 87.757812 0.730469 L 87.757812 28.476562 L 0.394531 28.476562 Z M 0.394531 0.730469 " fill-opacity="1" fill-rule="nonzero"/></g></g><g clip-path="url(#4077a55818)"><g clip-path="url(#ba3b80e6c5)"><path fill="#2aaa8a" d="M 0.394531 0.730469 L 87.757812 0.730469 L 87.757812 28.476562 L 0.394531 28.476562 Z M 0.394531 0.730469 " fill-opacity="1" fill-rule="nonzero"/></g></g></g></g></g><g mask="url(#b2133c0906)"><g transform="matrix(1, 0, 0, 1, 0, 47)"><g clip-path="url(#a1f6956458)"><g clip-path="url(#9db1653149)"><g clip-path="url(#1b7c9e4f14)"><path fill="#2aaa8a" d="M 0 0.398438 L 102.421875 0.398438 L 102.421875 36.171875 L 0 36.171875 Z M 0 0.398438 " fill-opacity="1" fill-rule="nonzero"/></g></g><g clip-path="url(#a633e53507)"><g clip-path="url(#c3863ac036)"><path fill="#2aaa8a" d="M 0 0.398438 L 102.421875 0.398438 L 102.421875 36.171875 L 0 36.171875 Z M 0 0.398438 " fill-opacity="1" fill-rule="nonzero"/></g></g><g clip-path="url(#ca3f569eab)"><g clip-path="url(#d1d8710753)"><path fill="#2aaa8a" d="M 0 0.398438 L 102.421875 0.398438 L 102.421875 36.171875 L 0 36.171875 Z M 0 0.398438 " fill-opacity="1" fill-rule="nonzero"/></g></g><g clip-path="url(#3864fafe3f)"><g clip-path="url(#838fe558f4)"><path fill="#2aaa8a" d="M 0 0.398438 L 102.421875 0.398438 L 102.421875 36.171875 L 0 36.171875 Z M 0 0.398438 " fill-opacity="1" fill-rule="nonzero"/></g></g><g clip-path="url(#03fbd60463)"><g clip-path="url(#50d81eae89)"><path fill="#2aaa8a" d="M 0 0.398438 L 102.421875 0.398438 L 102.421875 36.171875 L 0 36.171875 Z M 0 0.398438 " fill-opacity="1" fill-rule="nonzero"/></g></g></g></g></g><g mask="url(#09e803534b)"><g transform="matrix(1, 0, 0, 1, 704, 26)"><g clip-path="url(#35317e7aa9)"><g clip-path="url(#ac63b5141a)"><g clip-path="url(#864d9bab85)"><path fill="#2aaa8a" d="M 1.078125 0.632812 L 84.9375 0.632812 L 84.9375 29.921875 L 1.078125 29.921875 Z M 1.078125 0.632812 " fill-opacity="1" fill-rule="nonzero"/></g></g><g clip-path="url(#ed3cb0d279)"><g clip-path="url(#f9e4645ed2)"><path fill="#2aaa8a" d="M 1.078125 0.632812 L 84.9375 0.632812 L 84.9375 29.921875 L 1.078125 29.921875 Z M 1.078125 0.632812 " fill-opacity="1" fill-rule="nonzero"/></g></g><g clip-path="url(#0d2aaed76f)"><g clip-path="url(#7139e514b2)"><path fill="#2aaa8a" d="M 1.078125 0.632812 L 84.9375 0.632812 L 84.9375 29.921875 L 1.078125 29.921875 Z M 1.078125 0.632812 " fill-opacity="1" fill-rule="nonzero"/></g></g><g clip-path="url(#a891e31798)"><g clip-path="url(#f39f588072)"><path fill="#2aaa8a" d="M 1.078125 0.632812 L 84.9375 0.632812 L 84.9375 29.921875 L 1.078125 29.921875 Z M 1.078125 0.632812 " fill-opacity="1" fill-rule="nonzero"/></g></g><g clip-path="url(#7836cf2234)"><g clip-path="url(#9d056618b4)"><path fill="#2aaa8a" d="M 1.078125 0.632812 L 84.9375 0.632812 L 84.9375 29.921875 L 1.078125 29.921875 Z M 1.078125 0.632812 " fill-opacity="1" fill-rule="nonzero"/></g></g></g></g></g><g clip-path="url(#60e849c4fc)"><g mask="url(#84130e4481)"><g transform="matrix(1, 0, 0, 1, 798, 62)"><g clip-path="url(#17643567aa)"><g clip-path="url(#7d881aa701)"><g clip-path="url(#3aca06f31c)"><path fill="#2aaa8a" d="M 0.546875 0.929688 L 122.761719 0.929688 L 122.761719 39.746094 L 0.546875 39.746094 Z M 0.546875 0.929688 " fill-opacity="1" fill-rule="nonzero"/></g></g><g clip-path="url(#1f1af758f5)"><g clip-path="url(#36e525f722)"><path fill="#2aaa8a" d="M 0.546875 0.929688 L 122.761719 0.929688 L 122.761719 39.746094 L 0.546875 39.746094 Z M 0.546875 0.929688 " fill-opacity="1" fill-rule="nonzero"/></g></g><g clip-path="url(#032a7ccf2e)"><g clip-path="url(#1116f2cd73)"><path fill="#2aaa8a" d="M 0.546875 0.929688 L 122.761719 0.929688 L 122.761719 39.746094 L 0.546875 39.746094 Z M 0.546875 0.929688 " fill-opacity="1" fill-rule="nonzero"/></g></g><g clip-path="url(#fb4f206e98)"><g clip-path="url(#bb6ec80398)"><path fill="#2aaa8a" d="M 0.546875 0.929688 L 122.761719 0.929688 L 122.761719 39.746094 L 0.546875 39.746094 Z M 0.546875 0.929688 " fill-opacity="1" fill-rule="nonzero"/></g></g><g clip-path="url(#2560aa5007)"><g clip-path="url(#de0a94c592)"><path fill="#2aaa8a" d="M 0.546875 0.929688 L 122.761719 0.929688 L 122.761719 39.746094 L 0.546875 39.746094 Z M 0.546875 0.929688 " fill-opacity="1" fill-rule="nonzero"/></g></g></g></g></g></g><g mask="url(#94fee10e22)"><g transform="matrix(1, 0, 0, 1, 145, 56)"><g clip-path="url(#9e2423f279)"><g clip-path="url(#2e474490d9)"><g fill="#2aaa8a" fill-opacity="1"><g transform="translate(0.233084, 13.101371)"><g><path d="M 0.515625 -3.75 C 0.515625 -4.28125 0.601562 -4.785156 0.78125 -5.265625 C 0.96875 -5.753906 1.226562 -6.179688 1.5625 -6.546875 C 2.300781 -7.328125 3.257812 -7.71875 4.4375 -7.71875 C 5.613281 -7.71875 6.546875 -7.347656 7.234375 -6.609375 C 7.898438 -5.898438 8.234375 -4.984375 8.234375 -3.859375 C 8.234375 -2.734375 7.894531 -1.800781 7.21875 -1.0625 C 6.488281 -0.28125 5.53125 0.109375 4.34375 0.109375 C 3.113281 0.109375 2.15625 -0.273438 1.46875 -1.046875 C 0.832031 -1.742188 0.515625 -2.644531 0.515625 -3.75 Z M 2.28125 -3.796875 C 2.28125 -3.484375 2.328125 -3.1875 2.421875 -2.90625 C 2.523438 -2.625 2.671875 -2.378906 2.859375 -2.171875 C 3.265625 -1.734375 3.789062 -1.515625 4.4375 -1.515625 C 5.039062 -1.515625 5.519531 -1.726562 5.875 -2.15625 C 6.207031 -2.570312 6.375 -3.113281 6.375 -3.78125 C 6.375 -4.457031 6.203125 -5.003906 5.859375 -5.421875 C 5.484375 -5.867188 4.972656 -6.09375 4.328125 -6.09375 C 3.671875 -6.09375 3.15625 -5.851562 2.78125 -5.375 C 2.445312 -4.9375 2.28125 -4.410156 2.28125 -3.796875 Z M 2.28125 -3.796875 "/></g></g></g></g></g></g></g><g mask="url(#4f033211d6)"><g transform="matrix(1, 0, 0, 1, 246, 15)"><g clip-path="url(#42bf61e361)"><g fill="#2aaa8a" fill-opacity="1"><g transform="translate(1.039793, 13.614011)"><g><path d="M 0.515625 -3.75 C 0.515625 -4.28125 0.601562 -4.785156 0.78125 -5.265625 C 0.96875 -5.753906 1.226562 -6.179688 1.5625 -6.546875 C 2.300781 -7.328125 3.257812 -7.71875 4.4375 -7.71875 C 5.613281 -7.71875 6.546875 -7.347656 7.234375 -6.609375 C 7.898438 -5.898438 8.234375 -4.984375 8.234375 -3.859375 C 8.234375 -2.734375 7.894531 -1.800781 7.21875 -1.0625 C 6.488281 -0.28125 5.53125 0.109375 4.34375 0.109375 C 3.113281 0.109375 2.15625 -0.273438 1.46875 -1.046875 C 0.832031 -1.742188 0.515625 -2.644531 0.515625 -3.75 Z M 2.28125 -3.796875 C 2.28125 -3.484375 2.328125 -3.1875 2.421875 -2.90625 C 2.523438 -2.625 2.671875 -2.378906 2.859375 -2.171875 C 3.265625 -1.734375 3.789062 -1.515625 4.4375 -1.515625 C 5.039062 -1.515625 5.519531 -1.726562 5.875 -2.15625 C 6.207031 -2.570312 6.375 -3.113281 6.375 -3.78125 C 6.375 -4.457031 6.203125 -5.003906 5.859375 -5.421875 C 5.484375 -5.867188 4.972656 -6.09375 4.328125 -6.09375 C 3.671875 -6.09375 3.15625 -5.851562 2.78125 -5.375 C 2.445312 -4.9375 2.28125 -4.410156 2.28125 -3.796875 Z M 2.28125 -3.796875 "/></g></g></g></g></g></g><g mask="url(#d44929d460)"><g transform="matrix(1, 0, 0, 1, 663, 18)"><g clip-path="url(#ea48cbf8cb)"><g clip-path="url(#9966bf15d2)"><g fill="#2aaa8a" fill-opacity="1"><g transform="translate(0.271543, 13.087499)"><g><path d="M 0.515625 -3.75 C 0.515625 -4.28125 0.601562 -4.785156 0.78125 -5.265625 C 0.96875 -5.753906 1.226562 -6.179688 1.5625 -6.546875 C 2.300781 -7.328125 3.257812 -7.71875 4.4375 -7.71875 C 5.613281 -7.71875 6.546875 -7.347656 7.234375 -6.609375 C 7.898438 -5.898438 8.234375 -4.984375 8.234375 -3.859375 C 8.234375 -2.734375 7.894531 -1.800781 7.21875 -1.0625 C 6.488281 -0.28125 5.53125 0.109375 4.34375 0.109375 C 3.113281 0.109375 2.15625 -0.273438 1.46875 -1.046875 C 0.832031 -1.742188 0.515625 -2.644531 0.515625 -3.75 Z M 2.28125 -3.796875 C 2.28125 -3.484375 2.328125 -3.1875 2.421875 -2.90625 C 2.523438 -2.625 2.671875 -2.378906 2.859375 -2.171875 C 3.265625 -1.734375 3.789062 -1.515625 4.4375 -1.515625 C 5.039062 -1.515625 5.519531 -1.726562 5.875 -2.15625 C 6.207031 -2.570312 6.375 -3.113281 6.375 -3.78125 C 6.375 -4.457031 6.203125 -5.003906 5.859375 -5.421875 C 5.484375 -5.867188 4.972656 -6.09375 4.328125 -6.09375 C 3.671875 -6.09375 3.15625 -5.851562 2.78125 -5.375 C 2.445312 -4.9375 2.28125 -4.410156 2.28125 -3.796875 Z M 2.28125 -3.796875 "/></g></g></g></g></g></g></g><g mask="url(#43a4d984d3)"><g transform="matrix(1, 0, 0, 1, 883, 36)"><g clip-path="url(#0528b44214)"><g clip-path="url(#fedf281a38)"><g fill="#2aaa8a" fill-opacity="1"><g transform="translate(0.891286, 12.690608)"><g><path d="M 0.515625 -3.75 C 0.515625 -4.28125 0.601562 -4.785156 0.78125 -5.265625 C 0.96875 -5.753906 1.226562 -6.179688 1.5625 -6.546875 C 2.300781 -7.328125 3.257812 -7.71875 4.4375 -7.71875 C 5.613281 -7.71875 6.546875 -7.347656 7.234375 -6.609375 C 7.898438 -5.898438 8.234375 -4.984375 8.234375 -3.859375 C 8.234375 -2.734375 7.894531 -1.800781 7.21875 -1.0625 C 6.488281 -0.28125 5.53125 0.109375 4.34375 0.109375 C 3.113281 0.109375 2.15625 -0.273438 1.46875 -1.046875 C 0.832031 -1.742188 0.515625 -2.644531 0.515625 -3.75 Z M 2.28125 -3.796875 C 2.28125 -3.484375 2.328125 -3.1875 2.421875 -2.90625 C 2.523438 -2.625 2.671875 -2.378906 2.859375 -2.171875 C 3.265625 -1.734375 3.789062 -1.515625 4.4375 -1.515625 C 5.039062 -1.515625 5.519531 -1.726562 5.875 -2.15625 C 6.207031 -2.570312 6.375 -3.113281 6.375 -3.78125 C 6.375 -4.457031 6.203125 -5.003906 5.859375 -5.421875 C 5.484375 -5.867188 4.972656 -6.09375 4.328125 -6.09375 C 3.671875 -6.09375 3.15625 -5.851562 2.78125 -5.375 C 2.445312 -4.9375 2.28125 -4.410156 2.28125 -3.796875 Z M 2.28125 -3.796875 "/></g></g></g></g></g></g></g><g mask="url(#deef607831)"><g transform="matrix(1, 0, 0, 1, 769, 89)"><g clip-path="url(#ae4f4d5c9d)"><g clip-path="url(#f63d720d7b)"><g fill="#2aaa8a" fill-opacity="1"><g transform="translate(0.280188, 12.828521)"><g><path d="M 0.515625 -3.75 C 0.515625 -4.28125 0.601562 -4.785156 0.78125 -5.265625 C 0.96875 -5.753906 1.226562 -6.179688 1.5625 -6.546875 C 2.300781 -7.328125 3.257812 -7.71875 4.4375 -7.71875 C 5.613281 -7.71875 6.546875 -7.347656 7.234375 -6.609375 C 7.898438 -5.898438 8.234375 -4.984375 8.234375 -3.859375 C 8.234375 -2.734375 7.894531 -1.800781 7.21875 -1.0625 C 6.488281 -0.28125 5.53125 0.109375 4.34375 0.109375 C 3.113281 0.109375 2.15625 -0.273438 1.46875 -1.046875 C 0.832031 -1.742188 0.515625 -2.644531 0.515625 -3.75 Z M 2.28125 -3.796875 C 2.28125 -3.484375 2.328125 -3.1875 2.421875 -2.90625 C 2.523438 -2.625 2.671875 -2.378906 2.859375 -2.171875 C 3.265625 -1.734375 3.789062 -1.515625 4.4375 -1.515625 C 5.039062 -1.515625 5.519531 -1.726562 5.875 -2.15625 C 6.207031 -2.570312 6.375 -3.113281 6.375 -3.78125 C 6.375 -4.457031 6.203125 -5.003906 5.859375 -5.421875 C 5.484375 -5.867188 4.972656 -6.09375 4.328125 -6.09375 C 3.671875 -6.09375 3.15625 -5.851562 2.78125 -5.375 C 2.445312 -4.9375 2.28125 -4.410156 2.28125 -3.796875 Z M 2.28125 -3.796875 "/></g></g></g></g></g></g></g><g mask="url(#169d2d2d02)"><g transform="matrix(1, 0, 0, 1, 47, 4)"><g clip-path="url(#2eb18931ca)"><g fill="#2aaa8a" fill-opacity="1"><g transform="translate(1.133581, 17.887641)"><g><path d="M 1 -6.421875 L 4.578125 -6.421875 L 4.578125 -10.3125 L 6.09375 -10.3125 L 6.09375 -6.421875 L 9.671875 -6.421875 L 9.671875 -4.921875 L 6.09375 -4.921875 L 6.09375 -1 L 4.578125 -1 L 4.578125 -4.921875 L 1 -4.921875 Z M 1 -6.421875 "/></g></g></g></g></g></g><g mask="url(#473092d320)"><g transform="matrix(1, 0, 0, 1, 265, 57)"><g clip-path="url(#fbe1460f52)"><g fill="#2aaa8a" fill-opacity="1"><g transform="translate(0.587711, 17.736371)"><g><path d="M 1 -6.421875 L 4.578125 -6.421875 L 4.578125 -10.3125 L 6.09375 -10.3125 L 6.09375 -6.421875 L 9.671875 -6.421875 L 9.671875 -4.921875 L 6.09375 -4.921875 L 6.09375 -1 L 4.578125 -1 L 4.578125 -4.921875 L 1 -4.921875 Z M 1 -6.421875 "/></g></g></g></g></g></g><g mask="url(#8981c1ed9e)"><g transform="matrix(1, 0, 0, 1, 695, 58)"><g clip-path="url(#fe75e330f9)"><g fill="#2aaa8a" fill-opacity="1"><g transform="translate(0.351532, 18.034928)"><g><path d="M 1 -6.421875 L 4.578125 -6.421875 L 4.578125 -10.3125 L 6.09375 -10.3125 L 6.09375 -6.421875 L 9.671875 -6.421875 L 9.671875 -4.921875 L 6.09375 -4.921875 L 6.09375 -1 L 4.578125 -1 L 4.578125 -4.921875 L 1 -4.921875 Z M 1 -6.421875 "/></g></g></g></g></g></g><g mask="url(#ff391dcda8)"><g transform="matrix(1, 0, 0, 1, 819, 36)"><g clip-path="url(#c5a584d073)"><g fill="#2aaa8a" fill-opacity="1"><g transform="translate(0.835108, 18.325611)"><g><path d="M 1 -6.421875 L 4.578125 -6.421875 L 4.578125 -10.3125 L 6.09375 -10.3125 L 6.09375 -6.421875 L 9.671875 -6.421875 L 9.671875 -4.921875 L 6.09375 -4.921875 L 6.09375 -1 L 4.578125 -1 L 4.578125 -4.921875 L 1 -4.921875 Z M 1 -6.421875 "/></g></g></g></g></g></g></svg>